<svg width="280" height="336" viewBox="0 0 280 336" fill="none" xmlns="http://www.w3.org/2000/svg">
<path d="M182.812 185C182.741 185 182.696 184.998 182.68 184.997L174.13 184.998V183.847H182.711C182.91 183.854 186.964 183.958 190.699 179.821C196.264 173.656 200.835 158.393 191.002 120.693C177.78 70.001 188.808 25.2172 194.163 8.31583C194.426 7.47965 194.474 6.59891 194.3 5.74322C194.127 4.88752 193.739 4.08031 193.165 3.38537C192.591 2.69042 191.848 2.12677 190.995 1.73896C190.142 1.35116 189.201 1.14982 188.248 1.15085H60.5501C59.5792 1.15204 58.6223 1.36217 57.7571 1.76419C56.8919 2.1662 56.1427 2.74878 55.5703 3.46463C53.3019 6.31309 50.1888 11.7852 48.2407 21.6798L47 21.4764C48.9902 11.3669 52.2046 5.73373 54.5506 2.78806C55.24 1.9255 56.1426 1.2235 57.1851 0.739073C58.2275 0.254645 59.3803 0.00143327 60.55 3.13147e-06H188.248C189.397 -0.00100589 190.53 0.241845 191.558 0.709369C192.586 1.17689 193.481 1.85628 194.173 2.69386C194.864 3.53143 195.332 4.50425 195.541 5.53545C195.749 6.56665 195.692 7.62797 195.374 8.63558C190.046 25.4493 179.076 70.0008 192.229 120.427C202.2 158.657 197.406 174.25 191.629 180.6C187.819 184.788 183.62 185 182.812 185Z" fill="#E6E6E6"/>
<path d="M159.913 206C159.842 206 159.797 205.998 159.782 205.997L151.288 205.998V204.847H159.812C160.011 204.853 164.037 204.958 167.747 200.821C173.276 194.656 177.816 179.393 168.048 141.693C154.914 91.001 165.869 46.2172 171.188 29.3158C171.45 28.4796 171.497 27.5989 171.325 26.7432C171.153 25.8875 170.767 25.0803 170.197 24.3854C169.627 23.6904 168.889 23.1268 168.041 22.739C167.194 22.3512 166.259 22.1498 165.312 22.1508H38.4604C37.496 22.152 36.5454 22.3622 35.6859 22.7642C34.8265 23.1662 34.0822 23.7488 33.5137 24.4646C31.2602 27.3131 28.1678 32.7852 26.2327 42.6798L25 42.4764C26.9771 32.3669 30.1702 26.7337 32.5007 23.7881C33.1856 22.9255 34.0822 22.2235 35.1177 21.7391C36.1532 21.2546 37.2984 21.0014 38.4604 21H165.312C166.454 20.999 167.579 21.2418 168.601 21.7094C169.622 22.1769 170.511 22.8563 171.198 23.6939C171.884 24.5314 172.35 25.5043 172.557 26.5354C172.764 27.5666 172.707 28.628 172.391 29.6356C167.099 46.4493 156.201 91.0008 169.267 141.427C179.172 179.657 174.41 195.25 168.672 201.6C164.886 205.788 160.715 206 159.913 206Z" fill="#CCCCCC"/>
<path d="M136.891 227C136.82 227 136.775 226.998 136.76 226.997L11.6837 226.998C10.4795 227 9.29336 226.73 8.22897 226.213C7.16458 225.697 6.25443 224.948 5.57818 224.034C4.90194 223.12 4.48021 222.067 4.34989 220.969C4.21957 219.87 4.38463 218.759 4.83064 217.733C9.36881 207.329 15.4792 182.368 5.41479 132.087C-6.46955 72.7149 4.17009 51.2576 9.29609 44.7881C9.98199 43.9255 10.8799 43.2235 11.9169 42.7391C12.9539 42.2546 14.1008 42.0014 15.2645 42H142.298C143.441 41.999 144.569 42.2418 145.592 42.7094C146.614 43.1769 147.505 43.8563 148.192 44.6939C148.88 45.5314 149.346 46.5043 149.553 47.5354C149.761 48.5666 149.704 49.628 149.387 50.6356C144.088 67.4493 133.174 112.001 146.259 162.427C156.178 200.657 151.41 216.25 145.662 222.6C141.872 226.788 137.695 227 136.891 227ZM15.2645 43.1508C14.2987 43.152 13.3468 43.3622 12.486 43.7642C11.6253 44.1662 10.8799 44.7488 10.3105 45.4646C5.2796 51.8142 -5.1483 72.9453 6.64829 131.879C16.2629 179.912 11.5998 205.311 5.99494 218.16C5.61719 219.008 5.47541 219.929 5.58238 220.84C5.68934 221.75 6.04169 222.622 6.60764 223.376C7.16882 224.138 7.92509 224.761 8.81011 225.192C9.69514 225.623 10.6819 225.848 11.6837 225.847H136.791C136.988 225.856 141.021 225.959 144.736 221.821C150.273 215.656 154.82 200.393 145.038 162.693C131.885 112.001 142.855 67.2172 148.183 50.3158C148.445 49.4796 148.492 48.5989 148.32 47.7432C148.147 46.8875 147.761 46.0803 147.19 45.3854C146.619 44.6904 145.88 44.1268 145.031 43.739C144.182 43.3512 143.247 43.1498 142.298 43.1508H15.2645Z" fill="#3F3D56"/>
<path d="M120.017 94H20.9829C19.6613 94 18.3939 93.4732 17.4594 92.5355C16.525 91.5979 16 90.3261 16 89C16 87.6739 16.525 86.4021 17.4594 85.4645C18.3939 84.5268 19.6613 84 20.9829 84H120.017C121.339 84 122.606 84.5268 123.541 85.4645C124.475 86.4021 125 87.6739 125 89C125 90.3261 124.475 91.5979 123.541 92.5355C122.606 93.4732 121.339 94 120.017 94Z" fill="#AD63FF"/>
<path d="M120.017 114H20.9829C19.6613 114 18.3939 113.473 17.4594 112.536C16.525 111.598 16 110.326 16 109C16 107.674 16.525 106.402 17.4594 105.464C18.3939 104.527 19.6613 104 20.9829 104H120.017C121.339 104 122.606 104.527 123.541 105.464C124.475 106.402 125 107.674 125 109C125 110.326 124.475 111.598 123.541 112.536C122.606 113.473 121.339 114 120.017 114Z" fill="#CCCCCC"/>
<path d="M120.017 132H20.9829C19.6613 132 18.3939 131.579 17.4594 130.828C16.525 130.078 16 129.061 16 128C16 126.939 16.525 125.922 17.4594 125.172C18.3939 124.421 19.6613 124 20.9829 124H120.017C121.339 124 122.606 124.421 123.541 125.172C124.475 125.922 125 126.939 125 128C125 129.061 124.475 130.078 123.541 130.828C122.606 131.579 121.339 132 120.017 132Z" fill="#CCCCCC"/>
<path d="M128.971 152H29.0286C27.6949 152 26.4159 151.526 25.4728 150.682C24.5298 149.838 24 148.693 24 147.5C24 146.307 24.5298 145.162 25.4728 144.318C26.4159 143.474 27.6949 143 29.0286 143H128.971C130.305 143 131.584 143.474 132.527 144.318C133.47 145.162 134 146.307 134 147.5C134 148.693 133.47 149.838 132.527 150.682C131.584 151.526 130.305 152 128.971 152Z" fill="#CCCCCC"/>
<path d="M128.971 172H29.0286C27.6949 172 26.4159 171.526 25.4728 170.682C24.5298 169.838 24 168.693 24 167.5C24 166.307 24.5298 165.162 25.4728 164.318C26.4159 163.474 27.6949 163 29.0286 163H128.971C130.305 163 131.584 163.474 132.527 164.318C133.47 165.162 134 166.307 134 167.5C134 168.693 133.47 169.838 132.527 170.682C131.584 171.526 130.305 172 128.971 172Z" fill="#CCCCCC"/>
<path d="M67.989 74H21.011C19.682 74 18.4074 73.5259 17.4677 72.682C16.5279 71.8381 16 70.6935 16 69.5C16 68.3065 16.5279 67.1619 17.4677 66.318C18.4074 65.4741 19.682 65 21.011 65H67.989C69.318 65 70.5926 65.4741 71.5323 66.318C72.4721 67.1619 73 68.3065 73 69.5C73 70.6935 72.4721 71.8381 71.5323 72.682C70.5926 73.5259 69.318 74 67.989 74Z" fill="#AD63FF"/>
<path d="M61.8544 203.399C62.873 199.505 67.6584 198.228 71.5709 198.371C74.0428 198.521 76.4948 198.872 78.8975 199.418C81.4115 199.926 83.901 200.527 86.3781 201.165C90.9204 202.335 95.4158 203.749 100.033 204.664C103.877 205.425 108.054 205.872 111.887 204.821C115.572 203.81 118.698 201.33 119.7 197.9C120.645 194.669 119.348 191.135 115.88 189.658C112.718 188.311 108.723 188.996 107.155 192.042C105.388 195.476 107.154 199.221 109.952 201.707C111.543 203.055 113.285 204.25 115.15 205.272C117.044 206.437 119.151 207.29 121.375 207.789C125.025 208.494 129.373 207.456 131.256 204.307C131.674 203.594 131.926 202.811 131.995 202.006C132.107 200.911 130.213 200.918 130.102 202.006C129.783 205.142 125.716 206.611 122.675 206.267C120.622 205.96 118.662 205.273 116.917 204.249C115.233 203.362 113.637 202.345 112.148 201.21C109.568 199.194 107.15 195.877 108.883 192.731C110.293 190.17 113.971 190.195 116.207 191.847C118.916 193.848 118.433 197.479 116.646 199.854C114.668 202.485 111.083 203.588 107.702 203.706C104.029 203.836 100.387 203.075 96.8764 202.174C92.5145 201.056 88.1961 199.804 83.8132 198.751C81.3249 198.153 78.8175 197.613 76.2845 197.194C73.8892 196.717 71.4291 196.563 68.984 196.737C65.0339 197.149 61.0017 199.226 60.0291 202.945C59.7493 204.015 61.5741 204.471 61.8544 203.399Z" fill="#3F3D56"/>
<path d="M130.571 203.69C130.331 203.506 130.155 203.26 130.066 202.983C129.976 202.706 129.978 202.411 130.071 202.136C130.163 201.86 130.342 201.615 130.585 201.433C130.828 201.251 131.124 201.139 131.435 201.112C134.896 200.804 138.389 201.134 141.71 202.082L175.54 211.711C175.978 211.835 176.385 212.038 176.738 212.308C177.09 212.578 177.382 212.908 177.596 213.282C177.81 213.655 177.942 214.064 177.985 214.485C178.027 214.905 177.98 215.329 177.845 215.733C177.709 216.136 177.489 216.511 177.197 216.837C176.904 217.162 176.545 217.431 176.14 217.628C175.735 217.825 175.291 217.947 174.835 217.986C174.378 218.025 173.918 217.981 173.48 217.857L139.651 208.228C136.327 207.286 133.241 205.743 130.571 203.69Z" fill="#3F3D56"/>
<path d="M267.679 243.502C266.782 243.153 265.978 242.627 265.324 241.959C264.67 241.292 264.182 240.499 263.894 239.638C263.607 238.777 263.526 237.868 263.659 236.975C263.792 236.082 264.134 235.227 264.663 234.47L259 207.042L273.432 206L274.303 232.829C275.618 233.735 276.527 235.056 276.86 236.542C277.193 238.028 276.926 239.575 276.11 240.891C275.293 242.206 273.984 243.199 272.43 243.68C270.876 244.161 269.186 244.098 267.679 243.502Z" fill="#FFB8B8"/>
<path d="M258.856 228.949L244.24 165.214C243.64 162.597 244.175 159.863 245.727 157.614C247.28 155.366 249.723 153.787 252.518 153.225C255.314 152.663 258.234 153.164 260.635 154.617C263.037 156.071 264.723 158.358 265.323 160.976L279.939 224.71C280.092 225.383 279.954 226.086 279.555 226.664C279.156 227.242 278.529 227.648 277.81 227.793L262.149 230.942C261.793 231.014 261.425 231.019 261.067 230.958C260.709 230.896 260.367 230.769 260.061 230.584C259.755 230.399 259.492 230.159 259.285 229.879C259.078 229.598 258.932 229.282 258.856 228.949Z" fill="#AD63FF"/>
<path d="M232.998 329H226.224L223 302L233 302.001L232.998 329Z" fill="#FFB8B8"/>
<path d="M220.659 327H236V336H211C211 334.818 211.25 333.648 211.735 332.556C212.221 331.464 212.932 330.472 213.829 329.636C214.726 328.8 215.791 328.137 216.963 327.685C218.135 327.233 219.391 327 220.659 327Z" fill="#2F2E41"/>
<path d="M258.998 328H252.224L249 301L259 301.001L258.998 328Z" fill="#FFB8B8"/>
<path d="M246.659 326H262V335H237C237 333.818 237.25 332.648 237.735 331.556C238.221 330.464 238.932 329.472 239.829 328.636C240.726 327.8 241.791 327.137 242.963 326.685C244.135 326.233 245.391 326 246.659 326Z" fill="#2F2E41"/>
<path d="M224.87 324.406C224.585 324.189 224.349 323.921 224.177 323.618C224.004 323.316 223.899 322.984 223.866 322.643L215.011 232.369C214.977 232.019 215.02 231.666 215.138 231.331C215.256 230.997 215.446 230.688 215.696 230.424C215.947 230.159 216.253 229.945 216.596 229.794C216.939 229.643 217.312 229.559 217.691 229.545L262.099 228.002C262.484 227.989 262.867 228.049 263.225 228.179C263.583 228.309 263.908 228.507 264.18 228.758C264.452 229.01 264.665 229.312 264.806 229.643C264.947 229.975 265.012 230.33 264.998 230.686L261.448 320.613C261.422 321.242 261.15 321.842 260.683 322.299C260.215 322.756 259.584 323.04 258.908 323.098L249.953 323.853C249.582 323.884 249.208 323.846 248.852 323.742C248.497 323.637 248.168 323.467 247.884 323.243C247.601 323.018 247.369 322.744 247.202 322.435C247.034 322.126 246.935 321.789 246.911 321.445L242.801 264.315C242.798 264.206 242.772 264.098 242.723 263.997C242.675 263.897 242.605 263.807 242.519 263.732C242.432 263.657 242.331 263.599 242.22 263.56C242.108 263.522 241.99 263.505 241.872 263.51H241.868C241.749 263.505 241.631 263.523 241.52 263.562C241.408 263.601 241.307 263.66 241.22 263.735C241.134 263.811 241.065 263.902 241.017 264.003C240.969 264.103 240.943 264.212 240.941 264.322L237.264 321.836C237.227 322.452 236.953 323.036 236.492 323.48C236.031 323.925 235.413 324.202 234.751 324.261L226.929 324.987C226.561 325.022 226.19 324.988 225.836 324.889C225.483 324.789 225.155 324.625 224.87 324.406Z" fill="#2F2E41"/>
<path d="M242.5 140C251.06 140 258 133.732 258 126C258 118.268 251.06 112 242.5 112C233.94 112 227 118.268 227 126C227 133.732 233.94 140 242.5 140Z" fill="#FFB8B8"/>
<path d="M211.429 232.119C211.149 231.833 210.944 231.495 210.827 231.13C210.711 230.764 210.686 230.379 210.755 230.004C213.657 214.158 212.022 190.865 210.139 174.115C209.647 169.672 210.467 165.191 212.516 161.123C214.565 157.055 217.771 153.544 221.811 150.944L230.018 144.623C230.564 144.207 231.26 143.986 231.975 144.001L252.365 144.524C253.1 144.542 253.8 144.813 254.319 145.281L257.47 151.551L257.502 151.572C261.257 154.052 264.269 157.329 266.269 161.111C268.27 164.892 269.196 169.06 268.965 173.242L265.964 228.975C265.926 229.623 265.619 230.235 265.104 230.69C264.59 231.146 263.904 231.412 263.183 231.436L213.69 232.999C213.658 232.999 213.626 233 213.594 233C213.184 233.001 212.779 232.922 212.406 232.77C212.032 232.618 211.699 232.396 211.429 232.119Z" fill="#AD63FF"/>
<path d="M154.002 209.772C153.978 208.85 154.167 207.935 154.554 207.09C154.94 206.245 155.517 205.491 156.242 204.882C156.967 204.273 157.823 203.823 158.75 203.564C159.676 203.304 160.651 203.242 161.606 203.382L186.119 187L193 199.042L167.127 211.03C166.775 212.546 165.853 213.886 164.535 214.796C163.218 215.706 161.597 216.123 159.979 215.968C158.361 215.813 156.859 215.097 155.758 213.955C154.656 212.813 154.031 211.325 154.002 209.772Z" fill="#FFB8B8"/>
<path d="M174.922 211.97C174.559 211.919 174.211 211.803 173.897 211.627C173.583 211.451 173.31 211.219 173.093 210.945L163.54 198.919C163.103 198.367 162.92 197.677 163.032 197C163.145 196.324 163.543 195.716 164.139 195.31L220.704 156.946C223.027 155.371 225.933 154.712 228.781 155.116C230.192 155.316 231.546 155.771 232.766 156.454C233.986 157.138 235.049 158.037 235.894 159.1C236.738 160.163 237.347 161.369 237.687 162.65C238.027 163.93 238.091 165.26 237.874 166.564C237.658 167.867 237.166 169.118 236.426 170.246C235.686 171.373 234.714 172.355 233.563 173.136L176.999 211.499C176.522 211.824 175.945 212 175.352 212C175.208 212 175.064 211.99 174.922 211.97Z" fill="#AD63FF"/>
<path d="M242.527 138.602C244.519 136.306 244.301 132.809 242.702 130.256C241.104 127.703 238.39 125.945 235.598 124.571C232.806 123.198 229.84 122.118 227.213 120.483C224.585 118.847 224.7 111.924 224 109.036L225.669 109.558C225.027 108.787 224.822 106.507 224.18 105.736C226.066 105.911 227.516 107.594 229.401 107.769L228.313 105.024C234.779 104.649 238.799 108.873 245.264 108.498C248.468 108.313 251.947 108.195 254.581 109.92C256.869 111.419 258.028 114.013 258.788 116.536C260.42 121.953 260.673 128.021 257.854 132.989C255.036 137.956 248.538 141.304 242.862 139.51L242.527 138.602Z" fill="#2F2E41"/>
</svg>
