<svg width="137" height="120" viewBox="0 0 137 120" fill="none" xmlns="http://www.w3.org/2000/svg">
<g clip-path="url(#clip0_0_357)">
<path d="M135.908 118.284C135.669 118.618 135.427 118.949 135.188 119.277C134.5 119.75 133.684 120.002 132.848 120H4.15147C3.35331 120.001 2.57206 119.771 1.90233 119.338C1.68006 119.046 1.4603 118.752 1.23804 118.457L1.4603 118.335L66.6122 82.3402C67.1903 82.0215 67.84 81.8539 68.5006 81.853C69.1612 81.8522 69.8113 82.0181 70.3902 82.3353L135.689 118.162L135.908 118.284Z" fill="#936EE3"/>
<path d="M132.848 42.5964L76.3834 10.0941C74.0085 8.72707 71.3146 8.00672 68.5721 8.00537C65.8296 8.00403 63.135 8.72173 60.7587 10.0864L4.15152 42.5964C3.05094 42.598 1.9959 43.0344 1.21767 43.8101C0.43945 44.5858 0.00155691 45.6374 0 46.7344V115.862C0.00128229 116.959 0.439085 118.011 1.21737 118.787C1.99565 119.562 3.05086 119.999 4.15152 120H132.848C133.949 119.998 135.004 119.562 135.782 118.786C136.56 118.01 136.998 116.959 137 115.862V46.7344C136.998 45.6374 136.561 44.5858 135.782 43.8101C135.004 43.0344 133.949 42.598 132.848 42.5964ZM136.512 115.862C136.509 116.83 136.123 117.757 135.436 118.441C134.75 119.125 133.819 119.511 132.848 119.513H4.15152C3.18054 119.512 2.24983 119.126 1.56324 118.442C0.876656 117.758 0.49016 116.83 0.488414 115.862V46.7344C0.489595 45.7664 0.875907 44.8384 1.56262 44.1539C2.24933 43.4695 3.18036 43.0844 4.15152 43.0833L60.7587 10.5733C63.135 9.20854 65.8296 8.49084 68.5721 8.49219C71.3146 8.49354 74.0085 9.21388 76.3834 10.5809L132.848 43.0833C133.82 43.0844 134.751 43.4695 135.437 44.1539C136.124 44.8384 136.51 45.7664 136.512 46.7344V115.862Z" fill="#A39FD3"/>
<path d="M68.5732 81.707C68.1479 81.7085 67.7254 81.6378 67.3238 81.4981L67.2499 81.4721L67.235 81.3084C67.189 81.331 67.1425 81.3526 67.096 81.3731L67.0469 81.3946L66.9977 81.3729C66.8948 81.3279 66.7926 81.2769 66.694 81.2215L21.7344 56.0402V4.62463C21.7357 3.43076 22.2121 2.28617 23.0591 1.44197C23.9061 0.597779 25.0544 0.122922 26.2522 0.121582H110.748C111.946 0.122922 113.094 0.597779 113.941 1.44197C114.788 2.28617 115.264 3.43076 115.266 4.62463V56.106L115.203 56.1409L70.4524 81.2216C69.8779 81.5408 69.2309 81.708 68.5732 81.707Z" fill="white"/>
<path d="M68.5732 81.8288C68.1341 81.8303 67.6979 81.7573 67.2833 81.613L67.1355 81.5611L67.1291 81.4915L67.0469 81.5276L66.9486 81.4845C66.842 81.4378 66.7362 81.385 66.6341 81.3276L21.6123 56.1117V4.62475C21.6137 3.39861 22.103 2.2231 22.9728 1.35609C23.8427 0.489083 25.0221 0.00138769 26.2522 0H110.748C111.978 0.00139283 113.157 0.489088 114.027 1.35609C114.897 2.2231 115.386 3.39861 115.388 4.62475V56.1773L70.5123 81.3278C69.9195 81.6573 69.2519 81.8298 68.5732 81.8288ZM67.5931 81.2017C68.4909 81.4586 69.4543 81.3514 70.2731 80.9033L114.899 55.8925V4.62475C114.898 3.52768 114.46 2.4759 113.682 1.70015C112.904 0.924406 111.848 0.48805 110.748 0.486815H26.2522C25.1516 0.488045 24.0963 0.924401 23.318 1.70015C22.5397 2.47589 22.102 3.52768 22.1007 4.62475V55.8266L25.0287 57.4656L66.8736 80.9035C66.9305 80.9354 66.9883 80.9655 67.047 80.9937C67.1057 80.9655 67.1634 80.9355 67.2202 80.9036L67.5491 80.7189L67.5931 81.2017Z" fill="#A39FD3"/>
<path d="M135.918 44.3926L118.196 54.3236L115.143 56.0348L70.3926 81.1155C69.8364 81.4246 69.21 81.5864 68.5732 81.5853C68.1617 81.5865 67.753 81.5182 67.3645 81.3832C67.2563 81.3488 67.1503 81.3082 67.0469 81.2615C66.9469 81.2177 66.8492 81.1691 66.7539 81.1155L24.9091 57.6778L21.8565 55.9691L1.11848 44.3536C1.06209 44.3214 1.02073 44.2683 1.00336 44.2059C0.985996 44.1435 0.994024 44.0767 1.02571 44.0202C1.05749 43.9641 1.11031 43.9228 1.17257 43.9055C1.23483 43.8881 1.30144 43.8961 1.3578 43.9277L21.8565 55.4092L24.9091 57.1179L66.9933 80.6895C67.1329 80.7676 67.2781 80.8352 67.4279 80.8916C67.4914 80.9159 67.5574 80.9378 67.6233 80.9573C68.0413 81.0852 68.481 81.1274 68.9158 81.0813C69.3506 81.0353 69.7715 80.9021 70.1533 80.6895L115.143 55.4774L118.196 53.7662L135.679 43.9691C135.707 43.9534 135.737 43.9434 135.769 43.9395C135.801 43.9357 135.833 43.9382 135.864 43.9467C135.895 43.9553 135.924 43.9699 135.949 43.9896C135.974 44.0093 135.995 44.0337 136.011 44.0615C136.027 44.0894 136.037 44.12 136.041 44.1517C136.044 44.1834 136.042 44.2155 136.033 44.2462C136.025 44.277 136.01 44.3057 135.99 44.3308C135.971 44.3559 135.946 44.3769 135.918 44.3926Z" fill="#A39FD3"/>
<path d="M93.6533 55.0102H43.3467C42.8286 55.0102 42.3317 54.8051 41.9653 54.4399C41.5989 54.0747 41.3931 53.5794 41.3931 53.063C41.3931 52.5465 41.5989 52.0512 41.9653 51.6861C42.3317 51.3209 42.8286 51.1157 43.3467 51.1157H93.6533C94.1715 51.1157 94.6684 51.3209 95.0348 51.6861C95.4011 52.0512 95.607 52.5465 95.607 53.063C95.607 53.5794 95.4011 54.0747 95.0348 54.4399C94.6684 54.8051 94.1715 55.0102 93.6533 55.0102Z" fill="#E6E6E6"/>
<path d="M93.6533 47.708H43.3467C42.8286 47.708 42.3317 47.5028 41.9653 47.1377C41.5989 46.7725 41.3931 46.2772 41.3931 45.7607C41.3931 45.2443 41.5989 44.749 41.9653 44.3838C42.3317 44.0186 42.8286 43.8135 43.3467 43.8135H93.6533C94.1715 43.8135 94.6684 44.0186 95.0348 44.3838C95.4011 44.749 95.607 45.2443 95.607 45.7607C95.607 46.2772 95.4011 46.7725 95.0348 47.1377C94.6684 47.5028 94.1715 47.708 93.6533 47.708Z" fill="#E6E6E6"/>
<path d="M89.746 40.1621H47.4982C46.9801 40.1621 46.4831 39.9569 46.1168 39.5918C45.7504 39.2266 45.5446 38.7313 45.5446 38.2148C45.5446 37.6984 45.7504 37.2031 46.1168 36.8379C46.4831 36.4727 46.9801 36.2676 47.4982 36.2676H89.746C90.2641 36.2676 90.761 36.4727 91.1274 36.8379C91.4938 37.2031 91.6996 37.6984 91.6996 38.2148C91.6996 38.7313 91.4938 39.2266 91.1274 39.5918C90.761 39.9569 90.2641 40.1621 89.746 40.1621Z" fill="#936EE3"/>
<path d="M48.127 22.6367H33.2304C32.7122 22.6367 32.2153 22.4316 31.8489 22.0664C31.4826 21.7012 31.2767 21.2059 31.2767 20.6894C31.2767 20.173 31.4826 19.6777 31.8489 19.3125C32.2153 18.9473 32.7122 18.7422 33.2304 18.7422H48.127C48.6451 18.7422 49.1421 18.9473 49.5084 19.3125C49.8748 19.6777 50.0807 20.173 50.0807 20.6894C50.0807 21.2059 49.8748 21.7012 49.5084 22.0664C49.1421 22.4316 48.6451 22.6367 48.127 22.6367Z" fill="#E6E6E6"/>
<path d="M40.0682 16.0649H33.2304C32.7122 16.0649 32.2153 15.8598 31.8489 15.4946C31.4826 15.1294 31.2767 14.6341 31.2767 14.1177C31.2767 13.6012 31.4826 13.1059 31.8489 12.7407C32.2153 12.3756 32.7122 12.1704 33.2304 12.1704H40.0682C40.5863 12.1704 41.0832 12.3756 41.4496 12.7407C41.816 13.1059 42.0218 13.6012 42.0218 14.1177C42.0218 14.6341 41.816 15.1294 41.4496 15.4946C41.0832 15.8598 40.5863 16.0649 40.0682 16.0649Z" fill="#936EE3"/>
</g>
<defs>
<clipPath id="clip0_0_357">
<rect width="137" height="120" fill="white"/>
</clipPath>
</defs>
</svg>
