<svg width="180" height="214" viewBox="0 0 180 214" fill="none" xmlns="http://www.w3.org/2000/svg">
<g clip-path="url(#clip0_0_436)">
<path d="M90.9505 214C127.78 214 157.636 207.983 157.636 200.56C157.636 193.138 127.78 187.121 90.9505 187.121C54.1213 187.121 24.2654 193.138 24.2654 200.56C24.2654 207.983 54.1213 214 90.9505 214Z" fill="#3F3D56"/>
<path d="M35.3757 73.9708C35.3757 54.3913 60.5715 38.519 91.6521 38.519C122.733 38.519 147.929 54.3913 147.929 73.9708" stroke="#3F3D56" stroke-width="2" stroke-miterlimit="10"/>
<path d="M109.347 52.1692H63.5633C54.5079 34.7794 54.5079 17.3897 63.5633 0H109.347C96.6856 17.3897 96.6856 34.7794 109.347 52.1692Z" fill="#E6E6E6"/>
<path d="M95.9027 6.21045H70.1039V9.93682H95.9027V6.21045Z" fill="#AD63FF"/>
<path d="M95.9027 18.4248H61.7465V19.6669H95.9027V18.4248Z" fill="white"/>
<path d="M95.9027 24.8423H61.7465V26.0844H95.9027V24.8423Z" fill="white"/>
<path d="M176.156 62H142V63.2421H176.156V62Z" fill="white"/>
<path d="M95.9027 31.2603H61.7465V32.5024H95.9027V31.2603Z" fill="white"/>
<path d="M127.626 167.649C127.626 184.194 136.736 197.582 147.993 197.582L127.626 167.649Z" fill="#3F3D56"/>
<path d="M147.993 197.582C147.993 180.851 158.158 167.312 170.721 167.312L147.993 197.582Z" fill="#AD63FF"/>
<path d="M135.006 169.148C135.006 184.865 140.814 197.582 147.993 197.582L135.006 169.148Z" fill="#AD63FF"/>
<path d="M147.993 197.582C147.993 176.204 159.742 158.904 174.263 158.904L147.993 197.582Z" fill="#3F3D56"/>
<path d="M143.708 197.793C143.708 197.793 146.597 197.692 147.467 196.985C148.338 196.279 151.91 195.436 152.126 196.568C152.342 197.701 156.466 202.202 153.206 202.232C149.945 202.262 145.629 201.653 144.76 201.05C143.891 200.447 143.708 197.793 143.708 197.793Z" fill="#A8A8A8"/>
<path opacity="0.2" d="M153.264 201.838C150.003 201.868 145.687 201.259 144.818 200.656C144.157 200.197 143.893 198.549 143.805 197.789C143.744 197.792 143.708 197.793 143.708 197.793C143.708 197.793 143.891 200.448 144.76 201.051C145.629 201.654 149.945 202.262 153.206 202.232C154.147 202.224 154.472 201.842 154.454 201.277C154.323 201.618 153.964 201.832 153.264 201.838Z" fill="black"/>
<path d="M81.1631 40.7537C81.4282 40.8922 81.7472 40.6857 81.9035 40.4051C82.4987 39.3365 81.4028 37.9587 81.6401 36.7223C81.8302 35.7318 82.818 35.1439 83.02 34.1564C83.2162 33.1969 82.6115 32.1154 83.0202 31.2472C83.3405 30.567 84.1403 30.388 84.8096 30.5072C85.4788 30.6263 86.1141 30.9616 86.7902 31.0085C87.6912 31.0711 88.55 30.6192 89.431 30.3953C90.312 30.1714 91.3866 30.259 91.9048 31.1011C92.5703 32.1824 91.8953 33.688 92.127 34.9819C92.311 36.0094 93.0658 36.8602 93.0821 37.9087C93.0878 38.2814 92.2281 37.9812 92.2738 38.3503C92.3195 38.7193 91.9131 38.3944 92.2379 38.3505C92.3706 38.3135 92.4894 38.2293 92.5773 38.1102C92.6652 37.9911 92.7175 37.8432 92.7268 37.688C92.7654 37.3806 93.2724 37.2781 93.2665 36.9676C93.2528 36.24 94.4073 36.7306 94.5974 36.0358C95.0347 34.4162 94.9449 32.6712 94.3447 31.1207C94.0858 30.4588 93.7332 29.8324 93.6083 29.1218C93.4387 28.1571 93.7055 27.1214 93.4258 26.1906C93.0488 24.9361 91.8015 24.2966 90.6434 24.1667C89.4853 24.0368 88.3085 24.2693 87.157 24.0778C86.1255 23.9062 85.1268 23.3968 84.0864 23.4706C82.838 23.5592 81.7516 24.4758 80.8862 25.5049C80.0208 26.534 79.2867 27.7177 78.3038 28.5993C78.0029 28.8352 77.7253 29.1076 77.4758 29.4115C76.9752 30.1067 76.9245 31.0969 77.0637 31.982C77.203 32.867 77.506 33.7113 77.6339 34.5986C77.7542 35.4325 77.7171 36.2844 77.7689 37.1273C77.8207 37.9703 77.9742 38.8388 78.4198 39.5143C78.5982 39.7903 78.8295 40.0162 79.0961 40.1749C79.3626 40.3336 79.6575 40.4209 79.9582 40.4301C80.1665 40.4356 80.3424 40.2223 80.5527 40.2779C80.8155 40.3474 80.9298 40.6318 81.1631 40.7537Z" fill="#2F2E41"/>
<path d="M72.2527 102.014L73.0248 107.419L74.5692 105.03L73.6866 101.385L72.2527 102.014Z" fill="#A0616A"/>
<path d="M73.2455 61.1631L72.0296 64.8141C72.0296 64.8141 70.8187 83.4108 70.8187 84.7934C70.8187 86.176 71.7012 103.899 72.0321 104.653C72.0321 104.653 73.4661 102.265 75.3414 102.642C77.2166 103.019 76.4445 96.3571 76.4445 96.3571L78.2094 79.8914L77.8785 71.5956L73.2455 61.1631Z" fill="#575A89"/>
<path opacity="0.1" d="M73.2455 61.1631L72.0296 64.8141C72.0296 64.8141 70.8187 83.4108 70.8187 84.7934C70.8187 86.176 71.7012 103.899 72.0321 104.653C72.0321 104.653 73.4661 102.265 75.3414 102.642C77.2166 103.019 76.4445 96.3571 76.4445 96.3571L78.2094 79.8914L77.8785 71.5956L73.2455 61.1631Z" fill="black"/>
<path d="M80.7465 41.0526C80.7465 41.0526 84.3866 51.6108 82.2908 53.6219C80.1949 55.633 93.9835 50.2282 93.9835 50.2282L93.6526 48.8456C93.6526 48.8456 89.1299 46.8345 91.3361 41.0526C93.5423 35.2708 80.7465 41.0526 80.7465 41.0526Z" fill="#A0616A"/>
<path opacity="0.1" d="M80.7465 41.0526C80.7465 41.0526 84.3866 51.6108 82.2908 53.6219C80.1949 55.633 93.9835 50.2282 93.9835 50.2282L93.6526 48.8456C93.6526 48.8456 89.1299 46.8345 91.3361 41.0526C93.5423 35.2708 80.7465 41.0526 80.7465 41.0526Z" fill="black"/>
<path d="M75.0105 182.08C75.0105 182.08 73.4661 181.577 72.5837 182.834C71.7012 184.091 68.3919 187.233 68.3919 187.233C68.3919 187.233 61.994 186.479 61.1116 190.124C60.2291 193.769 71.1497 193.769 73.7971 192.889C76.4445 192.01 76.996 192.889 76.996 192.889C76.996 192.889 85.1589 193.644 85.1589 192.135C85.1589 190.627 84.3867 185.473 84.3867 185.473L75.0105 182.08Z" fill="#575A89"/>
<path d="M100.933 190.501L99.4989 195.529C99.4989 195.529 95.1969 202.316 97.6237 203.699C100.051 205.082 108.655 206.464 108.655 202.819V195.906C108.655 195.906 107.772 191.004 106.89 190.501C106.007 189.999 100.933 190.501 100.933 190.501Z" fill="#575A89"/>
<path d="M76.5726 100.174C76.5726 100.174 71.9218 104.779 72.0321 105.407C72.1424 106.036 74.3486 146.383 74.3486 146.383L75.562 172.527C75.562 172.527 74.0176 178.686 74.7898 180.069C75.562 181.452 73.6867 181.829 73.6867 181.829C73.6867 181.829 81.6289 189.999 84.9382 186.479L88.0268 140.853L96.5206 174.036C96.5206 174.036 97.9546 191.633 99.6092 191.633C101.264 191.633 107.993 192.01 107.882 191.004C107.772 189.999 108.213 182.331 107.441 177.806C106.669 173.281 101.485 137.459 101.485 137.459C101.485 137.459 101.039 106.749 102.199 103.878C103.36 101.008 101.595 97.9914 101.595 97.9914L93.8732 94.5977L84.6073 95.8546L76.5726 100.174Z" fill="#2F2E41"/>
<path d="M85.931 45.326C90.1955 45.326 93.6526 41.3868 93.6526 36.5275C93.6526 31.6682 90.1955 27.729 85.931 27.729C81.6664 27.729 78.2094 31.6682 78.2094 36.5275C78.2094 41.3868 81.6664 45.326 85.931 45.326Z" fill="#A0616A"/>
<path d="M104.683 55.5069C104.302 54.2771 103.659 53.1742 102.812 52.2969C101.965 51.4195 100.94 50.795 99.8299 50.4792C97.6048 49.8414 95.4284 49.0008 93.3216 47.9653C93.3216 47.9653 85.4897 52.2389 83.9454 52.2389C82.4011 52.2389 82.4011 51.1077 82.4011 51.1077C82.4011 51.1077 78.43 55.884 76.3341 56.3868C74.2382 56.8895 71.1496 62.7971 72.2527 66.0651C73.0019 68.1603 74.0867 70.0783 75.4516 71.7213C75.4516 71.7213 75.0104 89.3183 76.4444 92.5863C76.4444 92.5863 72.9145 100.254 76.2238 100.756C79.5331 101.259 92.2186 99.4994 94.4247 101.259C96.6309 103.019 100.712 100.882 101.264 103.27C101.815 105.658 103.029 106.161 103.029 106.161C103.029 106.161 104.904 102.767 103.801 100.756C102.698 98.7453 104.683 55.5069 104.683 55.5069Z" fill="#575A89"/>
<path d="M96.5206 102.768L94.7557 104.025C94.7557 104.025 96.6309 111.44 97.4031 111.692C98.1752 111.943 99.9928 105.351 99.9928 105.351L96.5206 102.768Z" fill="#A0616A"/>
<path d="M79.8393 39.8738C80.1045 40.0123 80.4234 39.8058 80.5797 39.5252C81.1749 38.4567 80.0791 37.0788 80.3164 35.8424C80.5065 34.8519 81.4943 34.264 81.6963 33.2765C81.8925 32.317 81.2878 31.2355 81.6965 30.3673C82.0167 29.6871 82.8166 29.5081 83.4858 29.6273C84.1551 29.7464 84.7904 30.0817 85.4665 30.1286C86.3674 30.1912 87.2263 29.7393 88.1073 29.5154C88.9882 29.2915 90.0628 29.3791 90.5811 30.2212C91.2466 31.3025 90.5715 32.8081 90.8032 34.102C90.9872 35.1295 93.0836 35.8507 93.2737 35.156C93.7109 33.5363 93.6212 31.7913 93.021 30.2408C92.7621 29.5789 92.4095 28.9525 92.2846 28.2419C92.115 27.2772 92.3818 26.2415 92.1021 25.3107C91.7251 24.0562 90.4777 23.4167 89.3197 23.2868C88.1616 23.1569 86.9847 23.3894 85.8333 23.1979C84.8017 23.0264 83.8031 22.5169 82.7627 22.5908C81.5142 22.6793 80.4279 23.5959 79.5625 24.625C78.6971 25.6541 77.963 26.8378 76.9801 27.7194C76.6792 27.9554 76.4016 28.2277 76.1521 28.5317C75.6515 29.2268 75.6007 30.217 75.74 31.1021C75.8793 31.9872 76.1823 32.8314 76.3102 33.7187C76.4305 34.5526 76.3934 35.4045 76.4451 36.2474C76.4969 37.0904 76.6505 37.9589 77.096 38.6344C77.2744 38.9104 77.5057 39.1363 77.7723 39.295C78.0389 39.4537 78.3338 39.541 78.6345 39.5503C78.8428 39.5557 79.0187 39.3424 79.229 39.398C79.4918 39.4676 79.606 39.7519 79.8393 39.8738Z" fill="#2F2E41"/>
<path opacity="0.1" d="M100.326 57.707L103.911 55.5073C103.911 55.5073 112.626 79.1376 110.53 85.6736C108.434 92.2097 100.381 105.659 100.381 105.659C100.381 105.659 93.9835 104.151 94.6454 102.642C95.3072 101.134 99.6093 91.4555 99.9402 90.1986C100.271 88.9417 102.477 80.7716 101.485 79.8918C100.492 79.0119 98.5613 58.5868 98.5613 58.5868L100.326 57.707Z" fill="black"/>
<path d="M100.271 54.1245L104.683 55.5071C104.683 55.5071 113.398 79.1374 111.302 85.6735C109.206 92.2095 101.154 105.659 101.154 105.659C101.154 105.659 94.7557 104.15 95.4175 102.642C96.0794 101.134 100.381 91.4553 100.712 90.1984C101.043 88.9415 103.249 80.7714 102.257 79.8916C101.264 79.0117 96.5206 57.2668 96.5206 57.2668L100.271 54.1245Z" fill="#575A89"/>
<path d="M147.929 73.9707C147.929 94.4984 122.733 111.139 91.6521 111.139C60.5715 111.139 35.3757 94.4984 35.3757 73.9707" stroke="#3F3D56" stroke-width="2" stroke-miterlimit="10"/>
<path d="M137.692 111.667C125.113 119.398 108.699 124.076 90.7445 124.076C73.5296 124.076 57.7315 119.775 45.3713 112.607" stroke="#3F3D56" stroke-width="2" stroke-miterlimit="10"/>
<path d="M119.756 28.9224C143.696 36.0921 160.745 51.8632 162.331 70.4379" stroke="#3F3D56" stroke-width="2" stroke-miterlimit="10"/>
<path d="M22.4922 58.365C26.5259 49.9172 33.8948 42.4829 43.5494 36.7715" stroke="#3F3D56" stroke-width="2" stroke-miterlimit="10"/>
<path d="M71.9832 148.794H117.767C126.822 131.404 126.822 114.014 117.767 96.6245H71.9832C84.6448 114.014 84.6448 131.404 71.9832 148.794Z" fill="#F2F2F2"/>
<path d="M112.931 106.562H87.1321V110.288H112.931V106.562Z" fill="#AD63FF"/>
<path d="M119.29 117.741H85.1336V118.983H119.29V117.741Z" fill="white"/>
<path d="M119.29 124.158H85.1336V125.4H119.29V124.158Z" fill="white"/>
<path d="M52.5754 113.384H6.79153C-2.26384 95.9938 -2.26384 78.6041 6.79153 61.2144H52.5754C39.9138 78.6041 39.9138 95.9938 52.5754 113.384Z" fill="#F2F2F2"/>
<path d="M37.6774 67.4253H11.8786V71.1517H37.6774V67.4253Z" fill="#AD63FF"/>
<path d="M40.4027 77.7764H6.24646V79.0185H40.4027V77.7764Z" fill="white"/>
<path d="M40.4027 84.1938H6.24646V85.436H40.4027V84.1938Z" fill="white"/>
<path d="M40.4027 90.6113H6.24646V91.8535H40.4027V90.6113Z" fill="white"/>
<path d="M40.4027 97.0293H6.24646V98.2714H40.4027V97.0293Z" fill="white"/>
<path d="M127.425 89.3527H173.208C182.264 71.963 182.264 54.5733 173.208 37.1836H127.425C140.086 54.5733 140.086 71.963 127.425 89.3527Z" fill="#F2F2F2"/>
<path d="M167.827 42.3594H142.028V46.0857H167.827V42.3594Z" fill="#AD63FF"/>
<path d="M173.459 52.71H139.303V53.9521H173.459V52.71Z" fill="white"/>
</g>
<defs>
<clipPath id="clip0_0_436">
<rect width="180" height="214" fill="white"/>
</clipPath>
</defs>
</svg>
