<svg width="283" height="318" viewBox="0 0 283 318" fill="none" xmlns="http://www.w3.org/2000/svg">
<g clip-path="url(#clip0_0_259)">
<path d="M137.457 211.458C136.997 212.006 136.377 212.401 135.683 212.59C134.988 212.778 134.252 212.75 133.574 212.51C132.895 212.27 132.308 211.83 131.891 211.249C131.474 210.667 131.248 209.973 131.243 209.26C131.043 208.96 130.899 208.745 130.698 208.446C128.942 207.783 127.026 207.654 125.195 208.077C123.365 208.499 121.704 209.453 120.424 210.816C119.145 212.18 118.306 213.89 118.015 215.729C117.724 217.567 117.994 219.45 118.791 221.135C123.187 230.68 127.011 241.349 136.747 246.547C97.1073 234.478 66.6841 198.955 60.6003 158.425C62.5277 150.479 61.2466 141.472 56.2031 134.876C54.6887 138.303 49.5328 139.626 48.5601 135.144C48.2812 133.33 48.0183 131.515 47.7393 129.701C27.8871 129.991 33.7885 157.012 58.3034 159.097C59.5406 166.77 61.5847 174.294 64.4022 181.547C59.4428 175.983 53.2201 171.664 46.2459 168.946C39.5997 166.572 32.1209 166.616 24.9424 166.12C16.2034 165.506 11.0186 175.799 16.974 182.153C21.5671 179.585 27.355 183.937 24.2253 188.792C37.2315 198.52 55.3983 200.711 70.4978 194.773C78.0475 208.813 88.5329 221.099 101.255 230.811C85.6905 220.216 68.8031 231.884 53.8491 237.195C52.8237 237.467 51.9003 238.028 51.1915 238.81C50.4827 239.592 50.0191 240.562 49.8574 241.601C49.6957 242.639 49.8428 243.702 50.2807 244.66C50.7187 245.617 51.4286 246.427 52.3238 246.992C54.2114 246.1 56.1839 245.396 58.2122 244.889C59.1689 244.658 60.1745 244.725 61.0912 245.082C62.0078 245.438 62.7906 246.067 63.3323 246.881C63.874 247.696 64.1481 248.656 64.1169 249.63C64.0857 250.605 63.7509 251.546 63.1583 252.325C80.8687 258.83 101.886 253.288 114.496 239.495C121.512 243.408 128.919 246.588 136.599 248.985L155.388 228.579C155.226 228.299 155.05 228.02 154.882 227.747C153.263 229.744 151.402 231.537 149.343 233.087C147.968 222.696 148.478 216.079 137.457 211.458L137.457 211.458Z" fill="#F2F2F2"/>
<path d="M181.942 235.438C182.577 235.774 183.301 235.908 184.016 235.823C184.731 235.738 185.402 235.437 185.939 234.962C186.476 234.487 186.852 233.859 187.016 233.165C187.181 232.471 187.126 231.743 186.859 231.081C186.931 230.729 186.982 230.476 187.053 230.124C188.427 228.854 190.153 228.019 192.009 227.727C193.865 227.434 195.768 227.698 197.472 228.482C199.176 229.267 200.605 230.538 201.574 232.132C202.544 233.726 203.011 235.57 202.916 237.429C202.481 247.91 203.004 259.22 195.968 267.669C228.081 241.688 242.723 197.427 232.916 157.618C228.104 150.979 225.859 142.16 228.017 134.168C230.725 136.775 236.004 136.075 235.198 131.561C234.765 129.777 234.317 127.998 233.884 126.214C252.38 119.068 257.21 146.297 235.3 157.384C237.077 164.952 238.051 172.684 238.204 180.452C240.678 173.447 244.795 167.124 250.219 162.002C255.47 157.321 262.413 154.568 268.872 151.428C276.732 147.597 285.455 155.192 282.36 163.301C277.128 162.639 273.426 168.831 278.174 172.158C269.834 186.025 253.844 194.838 237.598 194.978C235.955 210.801 230.925 226.095 222.842 239.841C233.221 224.216 253.306 228.715 269.179 228.049C270.232 227.917 271.301 228.092 272.255 228.552C273.21 229.012 274.009 229.737 274.554 230.638C275.1 231.54 275.368 232.579 275.327 233.629C275.286 234.68 274.938 235.695 274.324 236.553C272.236 236.431 270.141 236.516 268.069 236.804C267.095 236.947 266.189 237.385 265.476 238.058C264.763 238.73 264.278 239.605 264.086 240.561C263.895 241.518 264.007 242.509 264.407 243.4C264.807 244.291 265.476 245.038 266.321 245.538C252.397 258.176 230.821 260.893 213.888 252.828C208.881 259.072 203.233 264.784 197.034 269.872L171.858 257.99C171.901 257.671 171.958 257.346 172.01 257.031C174.27 258.276 176.676 259.242 179.174 259.908C176.488 249.771 173.495 243.834 181.941 235.438H181.942Z" fill="#F2F2F2"/>
<path d="M204.599 318H168.64L162.609 288.48L160.653 318H127.25C127.263 294.818 128.482 271.652 130.904 248.594L131.318 247.197L131.972 244.964L132.386 243.562L139.298 220.06L139.844 218.194H181.468C183.864 220.422 186.073 222.838 188.075 225.418C188.753 226.274 189.461 227.201 190.187 228.199C190.691 228.906 191.213 229.648 191.735 230.426C196.373 237.263 199.84 244.81 201.995 252.764V252.77C202.361 254.13 202.685 255.523 202.967 256.946V256.952C203.219 258.218 203.441 259.501 203.615 260.814C203.747 261.77 203.861 262.739 203.945 263.719C204.446 269.149 204.27 274.62 203.423 280.009L204.599 318Z" fill="#2F2E41"/>
<path d="M37.0777 171.573C38.2068 170.26 37.5764 167.892 35.6695 166.285C33.7626 164.678 31.3014 164.44 30.1722 165.753C29.043 167.067 29.6735 169.434 31.5804 171.041C33.4873 172.648 35.9485 172.886 37.0777 171.573Z" fill="#E6E6E6"/>
<path d="M46.1289 164.63C47.3097 163.587 47.6725 162.082 46.9394 161.269C46.2063 160.455 44.6548 160.642 43.4741 161.685C42.2934 162.729 41.9305 164.234 42.6636 165.047C43.3967 165.86 44.9482 165.674 46.1289 164.63Z" fill="#FF6584"/>
<path d="M71.9141 162.23C73.0948 161.187 73.4577 159.682 72.7246 158.868C71.9915 158.055 70.44 158.242 69.2592 159.285C68.0785 160.328 67.7156 161.834 68.4488 162.647C69.1819 163.46 70.7334 163.273 71.9141 162.23Z" fill="#E6E6E6"/>
<path d="M60.3523 161.967C61.4815 160.654 60.851 158.286 58.9441 156.679C57.0372 155.072 54.576 154.834 53.4469 156.147C52.3177 157.461 52.9482 159.828 54.8551 161.435C56.762 163.042 59.2232 163.28 60.3523 161.967Z" fill="#FF6584"/>
<path d="M23.1436 158.472C24.3243 157.429 24.6872 155.924 23.9541 155.11C23.2209 154.297 21.6695 154.484 20.4887 155.527C19.308 156.571 18.9451 158.076 19.6783 158.889C20.4114 159.702 21.9629 159.516 23.1436 158.472Z" fill="#3F3D56"/>
<path d="M19.7605 147.751C20.8897 146.437 20.2592 144.07 18.3523 142.463C16.4454 140.856 13.9842 140.618 12.8551 141.931C11.7259 143.244 12.3564 145.612 14.2633 147.219C16.1702 148.826 18.6314 149.064 19.7605 147.751Z" fill="#3F3D56"/>
<path d="M142.292 125.231C143.009 125.159 143.686 124.871 144.231 124.406C144.777 123.941 145.165 123.321 145.343 122.63C145.521 121.939 145.48 121.21 145.225 120.543C144.971 119.876 144.516 119.303 143.921 118.9C143.782 118.569 143.682 118.33 143.543 117.998C143.969 116.186 144.931 114.54 146.308 113.273C147.684 112.005 149.411 111.174 151.268 110.885C153.124 110.595 155.026 110.862 156.729 111.649C158.432 112.437 159.858 113.711 160.825 115.306C166.366 124.247 173.169 133.347 172.087 144.246C184.114 104.95 171.345 60.1242 140.786 32.491C133.053 29.6361 126.223 23.5538 123.513 15.7278C127.23 16.3977 131.218 12.9021 128.006 9.59992C126.642 8.35779 125.269 7.12845 123.905 5.88624C135.235 -10.2563 154.578 9.68227 142.633 30.9803C148.37 36.2819 153.532 42.1629 158.034 48.5273C156.143 41.3467 156 33.8242 157.618 26.5783C159.341 19.794 163.555 13.6763 167.148 7.50368C171.516 -0.015832 183.034 1.47449 185.032 9.91446C180.315 12.2525 180.729 19.4365 186.544 19.5777C187.43 35.6925 179.119 51.8361 165.711 60.9207C173.257 74.9625 177.694 90.4356 178.725 106.309C178.542 87.6084 197.749 80.2555 210.551 70.9406C211.351 70.2501 212.337 69.8051 213.388 69.6599C214.439 69.5147 215.511 69.6756 216.471 70.1229C217.432 70.5702 218.24 71.2846 218.797 72.179C219.355 73.0734 219.637 74.109 219.611 75.1597C217.809 76.2116 216.117 77.4382 214.56 78.8213C213.832 79.4778 213.327 80.3412 213.113 81.2931C212.9 82.2451 212.989 83.2391 213.369 84.1388C213.749 85.0385 214.4 85.7999 215.234 86.3186C216.068 86.8374 217.044 87.0881 218.027 87.0363C213.585 105.214 197.204 119.38 178.605 122.033C177.965 129.98 176.493 137.84 174.212 145.486L146.622 149.52C146.477 149.231 146.342 148.93 146.207 148.64C148.785 148.425 151.326 147.899 153.774 147.073C145.837 140.141 140.009 136.864 142.292 125.232L142.292 125.231Z" fill="#F2F2F2"/>
<path d="M170.041 116.473C157.48 116.473 150.667 114.953 148.288 111.709C146.189 108.847 147.596 105.07 149.226 100.697C150.397 97.5544 151.725 93.9922 151.725 90.4666C151.725 73.3189 160.507 64.624 177.826 64.624C186.443 64.624 195.696 69.1562 202.576 76.7479C208.832 83.6495 211.948 91.9095 211.126 99.4098C210.452 105.561 207.56 109.606 202.025 112.141L201.702 112.289L201.61 111.948C201.132 110.182 200.323 108.522 199.225 107.052C199.118 109.359 198.531 111.619 197.5 113.69L197.441 113.808L197.313 113.844C191.049 115.611 183.615 116.09 177.838 116.309C175.026 116.417 172.427 116.472 170.041 116.473Z" fill="#2F2E41"/>
<path d="M173.465 140.364C172.983 138.963 172.171 137.696 171.096 136.668C170.021 135.64 168.714 134.88 167.283 134.452C165.852 134.025 164.338 133.941 162.868 134.208C161.398 134.475 160.013 135.086 158.829 135.989L117.513 160.446L104.585 129.213C105.677 127.627 106.233 125.739 106.175 123.82C106.116 121.901 105.445 120.05 104.258 118.531C103.071 117.013 101.429 115.906 99.5675 115.37C97.7058 114.833 95.7203 114.893 93.8955 115.543C92.0708 116.192 90.5007 117.397 89.4103 118.984C88.32 120.572 87.7655 122.461 87.8263 124.379C87.8871 126.298 88.5601 128.149 89.7489 129.666C90.9376 131.182 92.5809 132.287 94.4432 132.822C95.24 141.829 99.6685 182.084 115.074 180.621C128.023 179.391 160.182 158.187 170.17 150.834C171.768 149.659 172.948 148.012 173.54 146.131C174.132 144.249 174.106 142.23 173.465 140.364Z" fill="#FFB6B6"/>
<path d="M88.4722 153.55C89.6529 152.507 90.0158 151.002 89.2827 150.189C88.5496 149.375 86.9981 149.562 85.8173 150.605C84.6366 151.649 84.2738 153.154 85.0069 153.967C85.74 154.78 87.2915 154.594 88.4722 153.55Z" fill="#3F3D56"/>
<path d="M42.0618 149.375C43.2425 148.331 43.6054 146.826 42.8723 146.013C42.1392 145.2 40.5877 145.386 39.407 146.43C38.2262 147.473 37.8634 148.978 38.5965 149.791C39.3296 150.605 40.8811 150.418 42.0618 149.375Z" fill="#E6E6E6"/>
<path d="M163.966 121.246L183.777 120.236L192.978 134.631C192.978 134.631 210.291 137.497 209.091 157.696C207.891 177.895 188.027 195.619 188.027 195.619L188.876 206.138L187.401 210.31L187.59 212.653L189.602 215.133L189.809 217.699L188.027 221.759L190.451 225.646L139.488 220.757L137.624 214.036L140.343 210.426L138.824 205.719L141.107 201.19L142.297 186.807C142.297 186.807 129.274 167.436 144.225 152.845L150.225 142.746L156.939 134.636L163.966 121.246Z" fill="#936EE3"/>
<path d="M2.70989 102.416C3.78126 102.165 4.35426 100.725 3.98973 99.2004C3.62521 97.6755 2.46119 96.643 1.38983 96.894C0.318461 97.1451 -0.254541 98.5848 0.109984 100.11C0.47451 101.634 1.63853 102.667 2.70989 102.416Z" fill="#3F3D56"/>
<path d="M2.88494 83.8671C3.9563 83.616 4.52932 82.1764 4.1648 80.6515C3.80027 79.1267 2.63624 78.0941 1.56487 78.3452C0.49351 78.5963 -0.0794925 80.0359 0.285033 81.5608C0.649559 83.0856 1.81358 84.1182 2.88494 83.8671Z" fill="#E6E6E6"/>
<path d="M173.815 117.181C185.408 117.181 194.807 107.876 194.807 96.3978C194.807 84.9194 185.408 75.6143 173.815 75.6143C162.222 75.6143 152.823 84.9194 152.823 96.3978C152.823 107.876 162.222 117.181 173.815 117.181Z" fill="#FFB6B6"/>
<path d="M171.004 95.1384C169.195 95.1384 167.387 95.0879 165.581 94.9869L165.258 94.969L165.3 94.6516C165.566 92.6678 165.417 90.6509 164.86 88.727C163.915 90.9177 162.509 92.8836 160.736 94.4938L160.636 94.5846L160.501 94.5701C155.594 94.0386 150.731 93.1605 145.95 91.9426L145.767 91.8961L145.73 91.7128C145.373 89.9767 145.189 88.2103 145.178 86.4386C145.178 80.9042 147.205 76.2461 150.885 73.3224C154.891 70.1399 160.632 69.1612 167.058 70.5649H187.606C189.865 70.5674 192.031 71.457 193.629 73.0385C195.226 74.62 196.124 76.7643 196.127 79.001V91.8842L195.903 91.9422C187.775 94.057 179.408 95.1312 171.004 95.1384Z" fill="#2F2E41"/>
<path d="M11.391 72.9112C13.7264 72.0161 15.1097 69.9867 14.4808 68.3782C13.852 66.7697 11.449 66.1914 9.11372 67.0864C6.77841 67.9815 5.39505 70.0109 6.02392 71.6194C6.65279 73.2279 9.05574 73.8062 11.391 72.9112Z" fill="#FF6584"/>
<path d="M28.5163 63.997C29.5876 63.7459 30.1607 62.3062 29.7961 60.7814C29.4316 59.2566 28.2676 58.224 27.1962 58.4751C26.1249 58.7262 25.5519 60.1658 25.9164 61.6906C26.2809 63.2154 27.4449 64.248 28.5163 63.997Z" fill="#E6E6E6"/>
<path d="M13.0304 60.2738C14.1018 60.0228 14.6748 58.5831 14.3103 57.0583C13.9458 55.5335 12.7817 54.5009 11.7104 54.7519C10.639 55.003 10.066 56.4427 10.4305 57.9675C10.7951 59.4923 11.9591 60.5249 13.0304 60.2738Z" fill="#FF6584"/>
<path d="M13.9411 48.0733C16.2764 47.1783 17.6597 45.1488 17.0309 43.5403C16.402 41.9318 13.9991 41.3535 11.6638 42.2485C9.32844 43.1436 7.9451 45.1731 8.57397 46.7815C9.20284 48.39 11.6058 48.9683 13.9411 48.0733Z" fill="#E6E6E6"/>
<path d="M159.749 47.4595C161.312 46.6983 161.684 44.2776 160.579 42.0528C159.474 39.8279 157.31 38.6414 155.747 39.4025C154.184 40.1637 153.813 42.5844 154.918 44.8092C156.023 47.0341 158.186 48.2206 159.749 47.4595Z" fill="#3F3D56"/>
<path d="M29.4438 43.1933C30.5151 42.9422 31.0881 41.5025 30.7236 39.9777C30.3591 38.4529 29.1951 37.4203 28.1237 37.6714C27.0523 37.9224 26.4793 39.3621 26.8439 40.8869C27.2084 42.4117 28.3724 43.4443 29.4438 43.1933Z" fill="#3F3D56"/>
<path d="M43.3446 44.3389C45.68 43.4439 47.0633 41.4144 46.4344 39.8059C45.8056 38.1975 43.4026 37.6191 41.0673 38.5142C38.732 39.4092 37.3487 41.4387 37.9775 43.0472C38.6064 44.6556 41.0093 45.234 43.3446 44.3389Z" fill="#3F3D56"/>
<path d="M27.7696 72.0201C26.8498 72.3532 26.1009 73.034 25.6874 73.913C25.2738 74.7921 25.2294 75.7977 25.5637 76.7091L47.7307 136.931C48.0671 137.841 48.7547 138.583 49.6425 138.992C50.5304 139.402 51.546 139.446 52.4666 139.115L138.501 108.071C139.42 107.738 140.169 107.057 140.583 106.178C140.996 105.299 141.041 104.293 140.706 103.382L118.539 43.1605C118.203 42.2497 117.515 41.5083 116.628 41.0988C115.74 40.6893 114.724 40.6453 113.804 40.9763L27.7696 72.0201Z" fill="#CCCCCC"/>
<path d="M106.48 116.305L53.8187 135.307C52.8279 135.663 51.7348 135.616 50.7792 135.175C49.8237 134.734 49.0837 133.936 48.7216 132.956L28.6163 78.3357C28.2565 77.3547 28.3043 76.2724 28.7494 75.3263C29.1945 74.3802 30.0005 73.6475 30.9905 73.289L112.163 43.9994C113.154 43.6431 114.247 43.6905 115.202 44.1313C116.158 44.572 116.898 45.37 117.26 46.3502L126.975 72.7422C130.081 81.2103 129.668 90.5525 125.825 98.7192C121.983 106.886 115.026 113.21 106.48 116.305Z" fill="white"/>
<path d="M68.5876 76.8459L56.0734 81.3614C55.9165 81.418 55.7498 81.4435 55.583 81.4363C55.4161 81.4292 55.2523 81.3896 55.1008 81.3198C54.9494 81.2499 54.8134 81.1513 54.7005 81.0294C54.5876 80.9075 54.5 80.7648 54.4429 80.6094C54.3857 80.454 54.3599 80.289 54.3672 80.1238C54.3744 79.9586 54.4144 79.7964 54.4849 79.6464C54.5554 79.4965 54.6551 79.3619 54.7782 79.2501C54.9013 79.1383 55.0454 79.0516 55.2024 78.995L67.7166 74.4794C68.0335 74.3651 68.3834 74.3801 68.6892 74.5211C68.995 74.6621 69.2316 74.9176 69.3472 75.2314C69.4627 75.5452 69.4475 75.8916 69.3051 76.1944C69.1627 76.4972 68.9046 76.7315 68.5876 76.8459Z" fill="#936EE3"/>
<path d="M98.4216 71.5632L57.8547 86.201C57.6977 86.2579 57.5309 86.2835 57.3639 86.2765C57.1969 86.2695 57.0329 86.23 56.8813 86.1602C56.7298 86.0904 56.5936 85.9917 56.4805 85.8698C56.3675 85.7479 56.2799 85.6051 56.2226 85.4495C56.1654 85.294 56.1397 85.1289 56.147 84.9635C56.1542 84.7982 56.1944 84.6359 56.265 84.4859C56.3357 84.3359 56.4355 84.2012 56.5589 84.0894C56.6822 83.9777 56.8265 83.8911 56.9836 83.8346L97.5505 69.1967C97.7075 69.1401 97.8741 69.1146 98.041 69.1218C98.2079 69.1289 98.3717 69.1685 98.5231 69.2384C98.6745 69.3082 98.8106 69.4069 98.9235 69.5288C99.0364 69.6506 99.1239 69.7933 99.1811 69.9487C99.2383 70.1041 99.264 70.2691 99.2568 70.4344C99.2496 70.5996 99.2096 70.7618 99.1391 70.9117C99.0685 71.0616 98.9689 71.1963 98.8458 71.3081C98.7227 71.4199 98.5785 71.5065 98.4216 71.5632Z" fill="#936EE3"/>
<path d="M100.466 77.1183L59.8994 91.7562C59.7424 91.8128 59.5758 91.8383 59.4089 91.8311C59.242 91.824 59.0782 91.7843 58.9268 91.7145C58.7754 91.6447 58.6393 91.546 58.5264 91.4241C58.4135 91.3022 58.326 91.1595 58.2688 91.0042C58.2116 90.8488 58.1859 90.6838 58.1931 90.5185C58.2003 90.3533 58.2403 90.1911 58.3108 90.0412C58.3814 89.8913 58.481 89.7566 58.6041 89.6448C58.7272 89.533 58.8714 89.4464 59.0283 89.3897L99.5952 74.7519C99.912 74.638 100.262 74.6533 100.567 74.7944C100.873 74.9355 101.109 75.1908 101.224 75.5044C101.34 75.8179 101.325 76.164 101.183 76.4667C101.04 76.7693 100.783 77.0036 100.466 77.1183Z" fill="#936EE3"/>
<path d="M102.511 82.673L61.9443 97.3109C61.7873 97.3678 61.6205 97.3934 61.4535 97.3864C61.2865 97.3794 61.1225 97.3399 60.9709 97.2701C60.8194 97.2003 60.6832 97.1016 60.5701 96.9797C60.4571 96.8577 60.3695 96.7149 60.3122 96.5594C60.255 96.4039 60.2293 96.2388 60.2366 96.0734C60.2438 95.9081 60.284 95.7458 60.3546 95.5958C60.4253 95.4458 60.5251 95.3111 60.6485 95.1993C60.7718 95.0875 60.9161 95.0009 61.0732 94.9445L101.64 80.3066C101.797 80.25 101.964 80.2245 102.131 80.2316C102.297 80.2388 102.461 80.2784 102.613 80.3482C102.764 80.4181 102.9 80.5167 103.013 80.6386C103.126 80.7605 103.214 80.9032 103.271 81.0586C103.328 81.214 103.354 81.379 103.346 81.5442C103.339 81.7094 103.299 81.8716 103.229 82.0216C103.158 82.1715 103.058 82.3062 102.935 82.4179C102.812 82.5297 102.668 82.6164 102.511 82.673Z" fill="#936EE3"/>
<path d="M104.556 88.2277L63.989 102.866C63.672 102.98 63.3222 102.965 63.0164 102.824C62.7106 102.683 62.4739 102.427 62.3584 102.114C62.2429 101.8 62.258 101.453 62.4004 101.151C62.5429 100.848 62.801 100.614 63.1179 100.499L103.685 85.8613C103.842 85.8047 104.008 85.7792 104.175 85.7863C104.342 85.7935 104.506 85.8331 104.657 85.9029C104.809 85.9728 104.945 86.0714 105.058 86.1933C105.171 86.3152 105.258 86.4579 105.315 86.6133C105.373 86.7687 105.398 86.9337 105.391 87.0989C105.384 87.2641 105.344 87.4263 105.273 87.5762C105.203 87.7262 105.103 87.8608 104.98 87.9726C104.857 88.0844 104.713 88.1711 104.556 88.2277Z" fill="#936EE3"/>
<path d="M233.275 103.655L211.064 156.279C210.116 158.506 208.322 160.274 206.069 161.203C203.816 162.132 201.285 162.146 199.021 161.243C197.85 160.776 196.787 160.078 195.898 159.191C195.008 158.304 194.31 157.246 193.847 156.084C193.383 154.921 193.164 153.677 193.202 152.427C193.24 151.178 193.535 149.949 194.068 148.816L218.832 94.8532L232.483 61.4352C231.304 60.2703 230.515 58.7741 230.224 57.1499C229.933 55.5257 230.154 53.8521 230.857 52.3567C231.561 50.8612 232.712 49.6163 234.154 48.7912C235.597 47.966 237.261 47.6006 238.921 47.7445C240.581 47.8884 242.156 48.5347 243.431 49.5956C244.707 50.6565 245.622 52.0805 246.052 53.6743C246.482 55.268 246.406 56.9541 245.834 58.5035C245.263 60.053 244.223 61.3906 242.857 62.3348L233.275 103.655Z" fill="#FFB6B6"/>
<path d="M137.187 32.8877C138.69 32.3945 139.627 31.156 139.28 30.1214C138.934 29.0867 137.435 28.6477 135.933 29.1408C134.43 29.6339 133.494 30.8725 133.84 31.9071C134.186 32.9418 135.685 33.3808 137.187 32.8877Z" fill="#E6E6E6"/>
<path d="M158.2 31.98C159.702 31.4868 160.639 30.2483 160.292 29.2136C159.946 28.179 158.447 27.74 156.945 28.2331C155.443 28.7262 154.506 29.9647 154.852 30.9994C155.199 32.0341 156.697 32.4731 158.2 31.98Z" fill="#3F3D56"/>
<path d="M139.577 17.2876C141.079 16.7944 142.016 15.5559 141.67 14.5212C141.323 13.4866 139.825 13.0476 138.322 13.5407C136.82 14.0338 135.883 15.2724 136.23 16.307C136.576 17.3417 138.075 17.7807 139.577 17.2876Z" fill="#FF6584"/>
<path d="M153.416 18.7866C154.979 18.0254 155.35 15.6048 154.245 13.3799C153.14 11.1551 150.977 9.96852 149.414 10.7297C147.85 11.4909 147.479 13.9115 148.584 16.1364C149.689 18.3612 151.853 19.5478 153.416 18.7866Z" fill="#E6E6E6"/>
<path d="M128.203 18.4477C129.766 17.6866 130.137 15.2659 129.032 13.0411C127.927 10.8162 125.764 9.62964 124.201 10.3908C122.638 11.152 122.266 13.5727 123.371 15.7975C124.477 18.0224 126.64 19.2089 128.203 18.4477Z" fill="#FF6584"/>
<path d="M96.2721 10.8013C97.7743 10.3081 98.7112 9.0696 98.3647 8.03493C98.0183 7.00026 96.5196 6.56126 95.0174 7.05439C93.5151 7.54752 92.5782 8.78603 92.9247 9.8207C93.2712 10.8554 94.7698 11.2944 96.2721 10.8013Z" fill="#3F3D56"/>
<path d="M114.95 9.34861C116.452 8.85549 117.389 7.61697 117.043 6.5823C116.696 5.54763 115.198 5.10861 113.695 5.60174C112.193 6.09487 111.256 7.3334 111.603 8.36807C111.949 9.40274 113.448 9.84174 114.95 9.34861Z" fill="#E6E6E6"/>
</g>
<defs>
<clipPath id="clip0_0_259">
<rect width="283" height="318" fill="white"/>
</clipPath>
</defs>
</svg>
