<svg width="38" height="34" viewBox="0 0 38 34" fill="none" xmlns="http://www.w3.org/2000/svg">
<path d="M19 21.25C21.6234 21.25 23.75 19.3472 23.75 17C23.75 14.6528 21.6234 12.75 19 12.75C16.3766 12.75 14.25 14.6528 14.25 17C14.25 19.3472 16.3766 21.25 19 21.25Z" stroke="white" stroke-width="1.5" stroke-miterlimit="10" stroke-linecap="round" stroke-linejoin="round"/>
<path d="M3.16663 18.2469V15.7535C3.16663 14.2802 4.51246 13.0619 6.17496 13.0619C9.04079 13.0619 10.2125 11.2485 8.77163 9.02436C7.94829 7.74936 8.43913 6.09186 9.87996 5.35519L12.6191 3.95269C13.87 3.28686 15.485 3.68353 16.2291 4.8027L16.4033 5.07186C17.8283 7.29603 20.1716 7.29603 21.6125 5.07186L21.7866 4.8027C22.5308 3.68353 24.1458 3.28686 25.3966 3.95269L28.1358 5.35519C29.5766 6.09186 30.0675 7.74936 29.2441 9.02436C27.8033 11.2485 28.975 13.0619 31.8408 13.0619C33.4875 13.0619 34.8491 14.266 34.8491 15.7535V18.2469C34.8491 19.7202 33.5033 20.9385 31.8408 20.9385C28.975 20.9385 27.8033 22.7519 29.2441 24.976C30.0675 26.2652 29.5766 27.9085 28.1358 28.6452L25.3966 30.0477C24.1458 30.7135 22.5308 30.3169 21.7866 29.1977L21.6125 28.9285C20.1875 26.7044 17.8441 26.7044 16.4033 28.9285L16.2291 29.1977C15.485 30.3169 13.87 30.7135 12.6191 30.0477L9.87996 28.6452C8.43913 27.9085 7.94829 26.251 8.77163 24.976C10.2125 22.7519 9.04079 20.9385 6.17496 20.9385C4.51246 20.9385 3.16663 19.7202 3.16663 18.2469Z" stroke="white" stroke-width="1.5" stroke-miterlimit="10" stroke-linecap="round" stroke-linejoin="round"/>
</svg>
