<svg width="18" height="20" viewBox="0 0 18 20" fill="none" xmlns="http://www.w3.org/2000/svg">
<path d="M12 1V4.4C12 4.96005 12 5.24008 12.109 5.45399C12.2049 5.64215 12.3578 5.79513 12.546 5.89101C12.7599 6 13.0399 6 13.6 6H17M7 6H3C1.89543 6 1 6.89543 1 8V17C1 18.1046 1.89543 19 3 19H9C10.1046 19 11 18.1046 11 17V14M13 1H10.2C9.07989 1 8.51984 1 8.09202 1.21799C7.71569 1.40973 7.40973 1.71569 7.21799 2.09202C7 2.51984 7 3.0799 7 4.2V10.8C7 11.9201 7 12.4802 7.21799 12.908C7.40973 13.2843 7.71569 13.5903 8.09202 13.782C8.51984 14 9.0799 14 10.2 14H13.8C14.9201 14 15.4802 14 15.908 13.782C16.2843 13.5903 16.5903 13.2843 16.782 12.908C17 12.4802 17 11.9201 17 10.8V5L13 1Z" stroke="white" stroke-width="2" stroke-linejoin="round"/>
</svg>
