<svg width="366" height="248" viewBox="0 0 366 248" fill="none" xmlns="http://www.w3.org/2000/svg">
<path d="M57 56H53V62H57V56Z" fill="#AD63FF"/>
<path d="M68 55H65V60H68V55Z" fill="#AD63FF"/>
<path d="M75 55H70V60H75V55Z" fill="#AD63FF"/>
<path d="M75 72H70V78H75V72Z" fill="#AD63FF"/>
<path d="M80 65H78V69H80V65Z" fill="#AD63FF"/>
<path d="M80 74H78V79H80V74Z" fill="#AD63FF"/>
<path d="M75 91H70V98H75V91Z" fill="#AD63FF"/>
<path d="M80 100H78V107H80V100Z" fill="#AD63FF"/>
<path d="M75 138H70V142H75V138Z" fill="#AD63FF"/>
<path d="M68 100H65V107H68V100Z" fill="#AD63FF"/>
<path d="M57 66H53V71H57V66Z" fill="#AD63FF"/>
<path d="M57 158H53V163H57V158Z" fill="#AD63FF"/>
<path d="M50 175H47V182H50V175Z" fill="#AD63FF"/>
<path d="M50 186H47V193H50V186Z" fill="#AD63FF"/>
<path d="M57 132H51V133H57V132Z" fill="#AD63FF"/>
<path d="M75 177H69V179H75V177Z" fill="#AD63FF"/>
<path d="M53 83V84.2499H54.5998V86.7501H53V88H57V83H53Z" fill="#AD63FF"/>
<path d="M65 72V73.4999H66.1998V76.5001H65V78H68V72H65Z" fill="#AD63FF"/>
<path d="M78 81V82.7503H78.7999V86.2503H78V88H80V81H78Z" fill="#AD63FF"/>
<path d="M78 111V112.25H78.7999V114.75H78V116H80V111H78Z" fill="#AD63FF"/>
<path d="M78 121V122.25H78.7999V124.75H78V126H80V121H78Z" fill="#AD63FF"/>
<path d="M78 91V92.4998H78.7999V95.4998H78V97H80V91H78Z" fill="#AD63FF"/>
<path d="M70 65V66.0002H72.0001V67.9998H70V69H75V65H70Z" fill="#AD63FF"/>
<path d="M75 111H70V116H75V111Z" fill="#AD63FF"/>
<path d="M75 128H70V134H75V128Z" fill="#AD63FF"/>
<path d="M70 120V121.5H72.0001V124.5H70V126H75V120H70Z" fill="#AD63FF"/>
<path d="M65 81V82.7503H66.1998V86.2503H65V88H68V81H65Z" fill="#AD63FF"/>
<path d="M65 91V92.7503H66.1998V96.2497H65V98H68V91H65Z" fill="#AD63FF"/>
<path d="M68 121H65V126H68V121Z" fill="#AD63FF"/>
<path d="M65 111V112.25H66.1998V114.75H65V116H68V111H65Z" fill="#AD63FF"/>
<path d="M68 139H65V145H68V139Z" fill="#AD63FF"/>
<path d="M65 129V130.5H66.1998V133.5H65V135H68V129H65Z" fill="#AD63FF"/>
<path d="M68 158H65V164H68V158Z" fill="#AD63FF"/>
<path d="M75 157H70V163H75V157Z" fill="#AD63FF"/>
<path d="M65 148V149.5H66.1998V152.5H65V154H68V148H65Z" fill="#AD63FF"/>
<path d="M78 148V149.5H78.7999V152.5H78V154H80V148H78Z" fill="#AD63FF"/>
<path d="M116 65H112V69H116V65Z" fill="#AD63FF"/>
<path d="M116 74H112V79H116V74Z" fill="#AD63FF"/>
<path d="M116 100H112V107H116V100Z" fill="#AD63FF"/>
<path d="M112 81V82.7503H113.6V86.2503H112V88H116V81H112Z" fill="#AD63FF"/>
<path d="M112 111V112.25H113.6V114.75H112V116H116V111H112Z" fill="#AD63FF"/>
<path d="M112 121V122.25H113.6V124.75H112V126H116V121H112Z" fill="#AD63FF"/>
<path d="M112 91V92.4998H113.6V95.4998H112V97H116V91H112Z" fill="#AD63FF"/>
<path d="M112 148V149.5H113.6V152.5H112V154H116V148H112Z" fill="#AD63FF"/>
<path d="M68 177H65V182H68V177Z" fill="#AD63FF"/>
<path d="M75 165H70V172H75V165Z" fill="#AD63FF"/>
<path d="M68 202H65V208H68V202Z" fill="#AD63FF"/>
<path d="M75 184H70V189H75V184Z" fill="#AD63FF"/>
<path d="M65 169V170.25H66.1998V172.75H65V174H68V169H65Z" fill="#AD63FF"/>
<path d="M65 212V213.5H66.1998V216.5H65V218H68V212H65Z" fill="#AD63FF"/>
<path d="M105 55H101V60H105V55Z" fill="#AD63FF"/>
<path d="M105 100H101V107H105V100Z" fill="#AD63FF"/>
<path d="M101 72V73.4999H102.6V76.5001H101V78H105V72H101Z" fill="#AD63FF"/>
<path d="M101 81V82.7503H102.6V86.2503H101V88H105V81H101Z" fill="#AD63FF"/>
<path d="M101 91V92.7503H102.6V96.2497H101V98H105V91H101Z" fill="#AD63FF"/>
<path d="M105 121H101V126H105V121Z" fill="#AD63FF"/>
<path d="M101 111V112.25H102.6V114.75H101V116H105V111H101Z" fill="#AD63FF"/>
<path d="M105 139H101V145H105V139Z" fill="#AD63FF"/>
<path d="M101 129V130.5H102.6V133.5H101V135H105V129H101Z" fill="#AD63FF"/>
<path d="M105 158H101V164H105V158Z" fill="#AD63FF"/>
<path d="M101 148V149.5H102.6V152.5H101V154H105V148H101Z" fill="#AD63FF"/>
<path d="M105 177H101V182H105V177Z" fill="#AD63FF"/>
<path d="M105 202H101V208H105V202Z" fill="#AD63FF"/>
<path d="M101 169V170.25H102.6V172.75H101V174H105V169H101Z" fill="#AD63FF"/>
<path d="M101 212V213.5H102.6V216.5H101V218H105V212H101Z" fill="#AD63FF"/>
<path d="M121 55H118V60H121V55Z" fill="#AD63FF"/>
<path d="M121 100H118V107H121V100Z" fill="#AD63FF"/>
<path d="M118 72V73.4999H119.2V76.5001H118V78H121V72H118Z" fill="#AD63FF"/>
<path d="M118 81V82.7503H119.2V86.2503H118V88H121V81H118Z" fill="#AD63FF"/>
<path d="M118 91V92.7503H119.2V96.2497H118V98H121V91H118Z" fill="#AD63FF"/>
<path d="M121 121H118V126H121V121Z" fill="#AD63FF"/>
<path d="M118 111V112.25H119.2V114.75H118V116H121V111H118Z" fill="#AD63FF"/>
<path d="M121 139H118V145H121V139Z" fill="#AD63FF"/>
<path d="M118 129V130.5H119.2V133.5H118V135H121V129H118Z" fill="#AD63FF"/>
<path d="M121 158H118V164H121V158Z" fill="#AD63FF"/>
<path d="M118 148V149.5H119.2V152.5H118V154H121V148H118Z" fill="#AD63FF"/>
<path d="M121 177H118V182H121V177Z" fill="#AD63FF"/>
<path d="M121 202H118V208H121V202Z" fill="#AD63FF"/>
<path d="M118 169V170.25H119.2V172.75H118V174H121V169H118Z" fill="#AD63FF"/>
<path d="M118 212V213.5H119.2V216.5H118V218H121V212H118Z" fill="#AD63FF"/>
<path d="M70 202V203.5H72.0001V206.5H70V208H75V202H70Z" fill="#AD63FF"/>
<path d="M70 211V212.5H72.0001V215.5H70V217H75V211H70Z" fill="#AD63FF"/>
<path d="M53 100V101.75H54.5998V105.25H53V107H57V100H53Z" fill="#AD63FF"/>
<path d="M53 138V139.75H54.5998V143.25H53V145H57V138H53Z" fill="#AD63FF"/>
<path d="M53 147V148.5H54.5998V151.5H53V153H57V147H53Z" fill="#AD63FF"/>
<path d="M53 167V168.25H54.5998V170.75H53V172H57V167H53Z" fill="#AD63FF"/>
<path d="M47 194V195.25H48.1998V197.75H47V199H50V194H47Z" fill="#AD63FF"/>
<path d="M47 202V203.5H48.1998V206.5H47V208H50V202H47Z" fill="#AD63FF"/>
<path d="M90 56H88V62H90V56Z" fill="#AD63FF"/>
<path d="M90 66H88V71H90V66Z" fill="#AD63FF"/>
<path d="M90 132H87V133H90V132Z" fill="#AD63FF"/>
<path d="M88 83V84.2499H88.7999V86.7501H88V88H90V83H88Z" fill="#AD63FF"/>
<path d="M88 100V101.75H88.7999V105.25H88V107H90V100H88Z" fill="#AD63FF"/>
<path d="M88 138V139.75H88.7999V143.25H88V145H90V138H88Z" fill="#AD63FF"/>
<path d="M131 121H127V126H131V121Z" fill="#AD63FF"/>
<path d="M131 129H127V135H131V129Z" fill="#AD63FF"/>
<path d="M131 195H125V196H131V195Z" fill="#AD63FF"/>
<path d="M127 147V148.25H128.6V150.75H127V152H131V147H127Z" fill="#AD63FF"/>
<path d="M127 164V165.75H128.6V169.25H127V171H131V164H127Z" fill="#AD63FF"/>
<path d="M127 202V203.5H128.6V206.5H127V208H131V202H127Z" fill="#AD63FF"/>
<path d="M141 56H138V62H141V56Z" fill="#AD63FF"/>
<path d="M152 55H149V60H152V55Z" fill="#AD63FF"/>
<path d="M158 55H155V60H158V55Z" fill="#AD63FF"/>
<path d="M158 72H155V78H158V72Z" fill="#AD63FF"/>
<path d="M167 65H161V69H167V65Z" fill="#AD63FF"/>
<path d="M167 74H161V79H167V74Z" fill="#AD63FF"/>
<path d="M158 91H155V98H158V91Z" fill="#AD63FF"/>
<path d="M167 100H161V107H167V100Z" fill="#AD63FF"/>
<path d="M158 138H155V142H158V138Z" fill="#AD63FF"/>
<path d="M152 100H149V107H152V100Z" fill="#AD63FF"/>
<path d="M141 66H138V71H141V66Z" fill="#AD63FF"/>
<path d="M141 158H138V163H141V158Z" fill="#AD63FF"/>
<path d="M141 176H138V182H141V176Z" fill="#AD63FF"/>
<path d="M141 186H138V193H141V186Z" fill="#AD63FF"/>
<path d="M141 132H136V133H141V132Z" fill="#AD63FF"/>
<path d="M159 177H155V179H159V177Z" fill="#AD63FF"/>
<path d="M138 83V84.2499H139.2V86.7501H138V88H141V83H138Z" fill="#AD63FF"/>
<path d="M149 72V73.4999H150.2V76.5001H149V78H152V72H149Z" fill="#AD63FF"/>
<path d="M161 81V82.7503H163.4V86.2503H161V88H167V81H161Z" fill="#AD63FF"/>
<path d="M161 111V112.25H163.4V114.75H161V116H167V111H161Z" fill="#AD63FF"/>
<path d="M161 121V122.25H163.4V124.75H161V126H167V121H161Z" fill="#AD63FF"/>
<path d="M161 91V92.4998H163.4V95.4998H161V97H167V91H161Z" fill="#AD63FF"/>
<path d="M155 65V66.0002H156.2V67.9998H155V69H158V65H155Z" fill="#AD63FF"/>
<path d="M158 111H155V116H158V111Z" fill="#AD63FF"/>
<path d="M158 128H155V134H158V128Z" fill="#AD63FF"/>
<path d="M155 120V121.5H156.2V124.5H155V126H158V120H155Z" fill="#AD63FF"/>
<path d="M149 81V82.7503H150.2V86.2503H149V88H152V81H149Z" fill="#AD63FF"/>
<path d="M149 91V92.7503H150.2V96.2497H149V98H152V91H149Z" fill="#AD63FF"/>
<path d="M152 121H149V126H152V121Z" fill="#AD63FF"/>
<path d="M149 111V112.25H150.2V114.75H149V116H152V111H149Z" fill="#AD63FF"/>
<path d="M152 139H149V145H152V139Z" fill="#AD63FF"/>
<path d="M149 129V130.5H150.2V133.5H149V135H152V129H149Z" fill="#AD63FF"/>
<path d="M152 158H149V164H152V158Z" fill="#AD63FF"/>
<path d="M158 157H155V163H158V157Z" fill="#AD63FF"/>
<path d="M149 148V149.5H150.2V152.5H149V154H152V148H149Z" fill="#AD63FF"/>
<path d="M161 148V149.5H163.4V152.5H161V154H167V148H161Z" fill="#AD63FF"/>
<path d="M200 65H197V69H200V65Z" fill="#AD63FF"/>
<path d="M200 74H197V79H200V74Z" fill="#AD63FF"/>
<path d="M200 100H197V107H200V100Z" fill="#AD63FF"/>
<path d="M197 81V82.7503H198.2V86.2503H197V88H200V81H197Z" fill="#AD63FF"/>
<path d="M197 111V112.25H198.2V114.75H197V116H200V111H197Z" fill="#AD63FF"/>
<path d="M197 121V122.25H198.2V124.75H197V126H200V121H197Z" fill="#AD63FF"/>
<path d="M197 91V92.4998H198.2V95.4998H197V97H200V91H197Z" fill="#AD63FF"/>
<path d="M197 148V149.5H198.2V152.5H197V154H200V148H197Z" fill="#AD63FF"/>
<path d="M152 177H149V182H152V177Z" fill="#AD63FF"/>
<path d="M158 165H155V172H158V165Z" fill="#AD63FF"/>
<path d="M152 202H149V208H152V202Z" fill="#AD63FF"/>
<path d="M158 184H155V189H158V184Z" fill="#AD63FF"/>
<path d="M149 169V170.25H150.2V172.75H149V174H152V169H149Z" fill="#AD63FF"/>
<path d="M149 212V213.5H150.2V216.5H149V218H152V212H149Z" fill="#AD63FF"/>
<path d="M190 55H188V60H190V55Z" fill="#AD63FF"/>
<path d="M190 100H188V107H190V100Z" fill="#AD63FF"/>
<path d="M188 72V73.4999H188.8V76.5001H188V78H190V72H188Z" fill="#AD63FF"/>
<path d="M188 81V82.7503H188.8V86.2503H188V88H190V81H188Z" fill="#AD63FF"/>
<path d="M188 91V92.7503H188.8V96.2497H188V98H190V91H188Z" fill="#AD63FF"/>
<path d="M190 121H188V126H190V121Z" fill="#AD63FF"/>
<path d="M188 111V112.25H188.8V114.75H188V116H190V111H188Z" fill="#AD63FF"/>
<path d="M190 139H188V145H190V139Z" fill="#AD63FF"/>
<path d="M188 129V130.5H188.8V133.5H188V135H190V129H188Z" fill="#AD63FF"/>
<path d="M190 158H188V164H190V158Z" fill="#AD63FF"/>
<path d="M188 148V149.5H188.8V152.5H188V154H190V148H188Z" fill="#AD63FF"/>
<path d="M190 177H188V182H190V177Z" fill="#AD63FF"/>
<path d="M190 202H188V208H190V202Z" fill="#AD63FF"/>
<path d="M188 169V170.25H188.8V172.75H188V174H190V169H188Z" fill="#AD63FF"/>
<path d="M188 212V213.5H188.8V216.5H188V218H190V212H188Z" fill="#AD63FF"/>
<path d="M207 55H203V60H207V55Z" fill="#AD63FF"/>
<path d="M207 100H203V107H207V100Z" fill="#AD63FF"/>
<path d="M203 72V73.4999H204.6V76.5001H203V78H207V72H203Z" fill="#AD63FF"/>
<path d="M203 81V82.7503H204.6V86.2503H203V88H207V81H203Z" fill="#AD63FF"/>
<path d="M203 91V92.7503H204.6V96.2497H203V98H207V91H203Z" fill="#AD63FF"/>
<path d="M207 121H203V126H207V121Z" fill="#AD63FF"/>
<path d="M203 111V112.25H204.6V114.75H203V116H207V111H203Z" fill="#AD63FF"/>
<path d="M207 139H203V145H207V139Z" fill="#AD63FF"/>
<path d="M203 129V130.5H204.6V133.5H203V135H207V129H203Z" fill="#AD63FF"/>
<path d="M207 158H203V164H207V158Z" fill="#AD63FF"/>
<path d="M203 148V149.5H204.6V152.5H203V154H207V148H203Z" fill="#AD63FF"/>
<path d="M207 177H203V182H207V177Z" fill="#AD63FF"/>
<path d="M207 202H203V208H207V202Z" fill="#AD63FF"/>
<path d="M203 169V170.25H204.6V172.75H203V174H207V169H203Z" fill="#AD63FF"/>
<path d="M203 212V213.5H204.6V216.5H203V218H207V212H203Z" fill="#AD63FF"/>
<path d="M155 202V203.5H156.2V206.5H155V208H158V202H155Z" fill="#AD63FF"/>
<path d="M155 211V212.5H156.2V215.5H155V217H158V211H155Z" fill="#AD63FF"/>
<path d="M138 100V101.75H139.2V105.25H138V107H141V100H138Z" fill="#AD63FF"/>
<path d="M138 138V139.75H139.2V143.25H138V145H141V138H138Z" fill="#AD63FF"/>
<path d="M138 147V148.5H139.2V151.5H138V153H141V147H138Z" fill="#AD63FF"/>
<path d="M138 167V168.25H139.2V170.75H138V172H141V167H138Z" fill="#AD63FF"/>
<path d="M138 194V195.25H139.2V197.75H138V199H141V194H138Z" fill="#AD63FF"/>
<path d="M138 202V203.5H139.2V206.5H138V208H141V202H138Z" fill="#AD63FF"/>
<path d="M177 56H173V62H177V56Z" fill="#AD63FF"/>
<path d="M177 66H173V71H177V66Z" fill="#AD63FF"/>
<path d="M177 132H172V133H177V132Z" fill="#AD63FF"/>
<path d="M173 83V84.2499H174.6V86.7501H173V88H177V83H173Z" fill="#AD63FF"/>
<path d="M173 100V101.75H174.6V105.25H173V107H177V100H173Z" fill="#AD63FF"/>
<path d="M173 138V139.75H174.6V143.25H173V145H177V138H173Z" fill="#AD63FF"/>
<path d="M215 121H211V126H215V121Z" fill="#AD63FF"/>
<path d="M215 129H211V135H215V129Z" fill="#AD63FF"/>
<path d="M215 195H211V196H215V195Z" fill="#AD63FF"/>
<path d="M211 147V148.25H212.6V150.75H211V152H215V147H211Z" fill="#AD63FF"/>
<path d="M211 164V165.75H212.6V169.25H211V171H215V164H211Z" fill="#AD63FF"/>
<path d="M211 202V203.5H212.6V206.5H211V208H215V202H211Z" fill="#AD63FF"/>
<path d="M227 56H223V62H227V56Z" fill="#AD63FF"/>
<path d="M237 55H233V60H237V55Z" fill="#AD63FF"/>
<path d="M244 55H241V60H244V55Z" fill="#AD63FF"/>
<path d="M244 72H241V78H244V72Z" fill="#AD63FF"/>
<path d="M251 65H248V69H251V65Z" fill="#AD63FF"/>
<path d="M251 74H248V79H251V74Z" fill="#AD63FF"/>
<path d="M244 91H241V98H244V91Z" fill="#AD63FF"/>
<path d="M251 100H248V107H251V100Z" fill="#AD63FF"/>
<path d="M244 138H241V142H244V138Z" fill="#AD63FF"/>
<path d="M237 100H233V107H237V100Z" fill="#AD63FF"/>
<path d="M227 66H223V71H227V66Z" fill="#AD63FF"/>
<path d="M227 158H223V163H227V158Z" fill="#AD63FF"/>
<path d="M227 176H223V182H227V176Z" fill="#AD63FF"/>
<path d="M227 186H223V193H227V186Z" fill="#AD63FF"/>
<path d="M227 132H222V133H227V132Z" fill="#AD63FF"/>
<path d="M244 177H241V179H244V177Z" fill="#AD63FF"/>
<path d="M223 83V84.2499H224.6V86.7501H223V88H227V83H223Z" fill="#AD63FF"/>
<path d="M233 72V73.4999H234.6V76.5001H233V78H237V72H233Z" fill="#AD63FF"/>
<path d="M248 81V82.7503H249.2V86.2503H248V88H251V81H248Z" fill="#AD63FF"/>
<path d="M248 111V112.25H249.2V114.75H248V116H251V111H248Z" fill="#AD63FF"/>
<path d="M248 121V122.25H249.2V124.75H248V126H251V121H248Z" fill="#AD63FF"/>
<path d="M248 91V92.4998H249.2V95.4998H248V97H251V91H248Z" fill="#AD63FF"/>
<path d="M241 65V66.0002H242.2V67.9998H241V69H244V65H241Z" fill="#AD63FF"/>
<path d="M244 111H241V116H244V111Z" fill="#AD63FF"/>
<path d="M244 128H241V134H244V128Z" fill="#AD63FF"/>
<path d="M241 120V121.5H242.2V124.5H241V126H244V120H241Z" fill="#AD63FF"/>
<path d="M233 81V82.7503H234.6V86.2503H233V88H237V81H233Z" fill="#AD63FF"/>
<path d="M233 91V92.7503H234.6V96.2497H233V98H237V91H233Z" fill="#AD63FF"/>
<path d="M237 121H233V126H237V121Z" fill="#AD63FF"/>
<path d="M233 111V112.25H234.6V114.75H233V116H237V111H233Z" fill="#AD63FF"/>
<path d="M237 139H233V145H237V139Z" fill="#AD63FF"/>
<path d="M233 129V130.5H234.6V133.5H233V135H237V129H233Z" fill="#AD63FF"/>
<path d="M237 158H233V164H237V158Z" fill="#AD63FF"/>
<path d="M244 157H241V163H244V157Z" fill="#AD63FF"/>
<path d="M233 148V149.5H234.6V152.5H233V154H237V148H233Z" fill="#AD63FF"/>
<path d="M248 148V149.5H249.2V152.5H248V154H251V148H248Z" fill="#AD63FF"/>
<path d="M285 65H282V69H285V65Z" fill="#AD63FF"/>
<path d="M285 74H282V79H285V74Z" fill="#AD63FF"/>
<path d="M285 100H282V107H285V100Z" fill="#AD63FF"/>
<path d="M282 81V82.7503H283.2V86.2503H282V88H285V81H282Z" fill="#AD63FF"/>
<path d="M282 111V112.25H283.2V114.75H282V116H285V111H282Z" fill="#AD63FF"/>
<path d="M282 121V122.25H283.2V124.75H282V126H285V121H282Z" fill="#AD63FF"/>
<path d="M282 91V92.4998H283.2V95.4998H282V97H285V91H282Z" fill="#AD63FF"/>
<path d="M282 148V149.5H283.2V152.5H282V154H285V148H282Z" fill="#AD63FF"/>
<path d="M237 177H233V182H237V177Z" fill="#AD63FF"/>
<path d="M244 165H241V172H244V165Z" fill="#AD63FF"/>
<path d="M237 202H233V208H237V202Z" fill="#AD63FF"/>
<path d="M244 184H241V189H244V184Z" fill="#AD63FF"/>
<path d="M233 169V170.25H234.6V172.75H233V174H237V169H233Z" fill="#AD63FF"/>
<path d="M233 212V213.5H234.6V216.5H233V218H237V212H233Z" fill="#AD63FF"/>
<path d="M263 77H260V81H263V77Z" fill="#AD63FF"/>
<path d="M275 100H271V107H275V100Z" fill="#AD63FF"/>
<path d="M271 72V73.4999H272.6V76.5001H271V78H275V72H271Z" fill="#AD63FF"/>
<path d="M271 81V82.7503H272.6V86.2503H271V88H275V81H271Z" fill="#AD63FF"/>
<path d="M271 91V92.7503H272.6V96.2497H271V98H275V91H271Z" fill="#AD63FF"/>
<path d="M275 121H271V126H275V121Z" fill="#AD63FF"/>
<path d="M271 111V112.25H272.6V114.75H271V116H275V111H271Z" fill="#AD63FF"/>
<path d="M275 139H271V145H275V139Z" fill="#AD63FF"/>
<path d="M271 129V130.5H272.6V133.5H271V135H275V129H271Z" fill="#AD63FF"/>
<path d="M275 158H271V164H275V158Z" fill="#AD63FF"/>
<path d="M271 148V149.5H272.6V152.5H271V154H275V148H271Z" fill="#AD63FF"/>
<path d="M275 177H271V182H275V177Z" fill="#AD63FF"/>
<path d="M275 202H271V208H275V202Z" fill="#AD63FF"/>
<path d="M271 169V170.25H272.6V172.75H271V174H275V169H271Z" fill="#AD63FF"/>
<path d="M271 212V213.5H272.6V216.5H271V218H275V212H271Z" fill="#AD63FF"/>
<path d="M280 77H277V81H280V77Z" fill="#AD63FF"/>
<path d="M291 100H288V107H291V100Z" fill="#AD63FF"/>
<path d="M283 75V76.4999H284.2V79.5001H283V81H286V75H283Z" fill="#AD63FF"/>
<path d="M288 81V82.7503H289.2V86.2503H288V88H291V81H288Z" fill="#AD63FF"/>
<path d="M288 91V92.7503H289.2V96.2497H288V98H291V91H288Z" fill="#AD63FF"/>
<path d="M291 121H288V126H291V121Z" fill="#AD63FF"/>
<path d="M288 111V112.25H289.2V114.75H288V116H291V111H288Z" fill="#AD63FF"/>
<path d="M291 139H288V145H291V139Z" fill="#AD63FF"/>
<path d="M288 129V130.5H289.2V133.5H288V135H291V129H288Z" fill="#AD63FF"/>
<path d="M291 158H288V164H291V158Z" fill="#AD63FF"/>
<path d="M288 148V149.5H289.2V152.5H288V154H291V148H288Z" fill="#AD63FF"/>
<path d="M291 177H288V182H291V177Z" fill="#AD63FF"/>
<path d="M291 202H288V208H291V202Z" fill="#AD63FF"/>
<path d="M288 169V170.25H289.2V172.75H288V174H291V169H288Z" fill="#AD63FF"/>
<path d="M288 212V213.5H289.2V216.5H288V218H291V212H288Z" fill="#AD63FF"/>
<path d="M241 202V203.5H242.2V206.5H241V208H244V202H241Z" fill="#AD63FF"/>
<path d="M241 211V212.5H242.2V215.5H241V217H244V211H241Z" fill="#AD63FF"/>
<path d="M223 100V101.75H224.6V105.25H223V107H227V100H223Z" fill="#AD63FF"/>
<path d="M223 138V139.75H224.6V143.25H223V145H227V138H223Z" fill="#AD63FF"/>
<path d="M223 147V148.5H224.6V151.5H223V153H227V147H223Z" fill="#AD63FF"/>
<path d="M223 167V168.25H224.6V170.75H223V172H227V167H223Z" fill="#AD63FF"/>
<path d="M223 194V195.25H224.6V197.75H223V199H227V194H223Z" fill="#AD63FF"/>
<path d="M223 202V203.5H224.6V206.5H223V208H227V202H223Z" fill="#AD63FF"/>
<path d="M262 56H259V62H262V56Z" fill="#AD63FF"/>
<path d="M262 66H259V71H262V66Z" fill="#AD63FF"/>
<path d="M262 132H258V133H262V132Z" fill="#AD63FF"/>
<path d="M259 83V84.2499H260.2V86.7501H259V88H262V83H259Z" fill="#AD63FF"/>
<path d="M259 100V101.75H260.2V105.25H259V107H262V100H259Z" fill="#AD63FF"/>
<path d="M259 138V139.75H260.2V143.25H259V145H262V138H259Z" fill="#AD63FF"/>
<path d="M301 121H298V126H301V121Z" fill="#AD63FF"/>
<path d="M301 129H298V135H301V129Z" fill="#AD63FF"/>
<path d="M301 195H297V196H301V195Z" fill="#AD63FF"/>
<path d="M298 147V148.25H299.2V150.75H298V152H301V147H298Z" fill="#AD63FF"/>
<path d="M298 164V165.75H299.2V169.25H298V171H301V164H298Z" fill="#AD63FF"/>
<path d="M298 202V203.5H299.2V206.5H298V208H301V202H298Z" fill="#AD63FF"/>
<path d="M27.5 248C13.969 248 3 236.583 3 222.5C3 208.417 13.969 197 27.5 197C41.031 197 52 208.417 52 222.5C52 236.583 41.031 248 27.5 248Z" fill="#AD63FF"/>
<path d="M42.6253 186.651C39.6699 194.107 32.1488 198 32.1488 198C32.1488 198 29.4194 189.805 32.3747 182.349C35.3301 174.893 42.8511 171 42.8511 171C42.8511 171 45.5806 179.195 42.6253 186.651Z" fill="#3F3D56"/>
<path d="M40.0928 184.377C33.7415 189.335 32 197.977 32 197.977C32 197.977 40.5559 198.581 46.9072 193.623C53.2584 188.665 55 180.023 55 180.023C55 180.023 46.4441 179.419 40.0928 184.377Z" fill="#AD63FF"/>
<path d="M30.6773 182.822C33.5928 190.554 30.7791 199 30.7791 199C30.7791 199 23.2383 194.91 20.3227 187.178C17.4072 179.446 20.2209 171 20.2209 171C20.2209 171 27.7617 175.09 30.6773 182.822Z" fill="#3F3D56"/>
<path d="M27.2016 183.081C26.0265 191.365 30.3722 199 30.3722 199C30.3722 199 36.6232 193.203 37.7984 184.919C38.9735 176.635 34.6278 169 34.6278 169C34.6278 169 28.3768 174.797 27.2016 183.081Z" fill="#AD63FF"/>
<path d="M29.5 236C21.4919 236 15 229.732 15 222C15 214.268 21.4919 208 29.5 208C37.5081 208 44 214.268 44 222C44 229.732 37.5081 236 29.5 236Z" fill="#F2F2F2"/>
<path d="M34.5 221C32.567 221 31 218.985 31 216.5C31 214.015 32.567 212 34.5 212C36.433 212 38 214.015 38 216.5C38 218.985 36.433 221 34.5 221Z" fill="#3F3D56"/>
<path d="M6 240C2.68629 240 0 237.538 0 234.5C0 231.462 2.68629 229 6 229C9.31371 229 12 231.462 12 234.5C12 237.538 9.31371 240 6 240Z" fill="#AD63FF"/>
<path d="M320 78C334.912 78 347 66.5833 347 52.5C347 38.4167 334.912 27 320 27C305.088 27 293 38.4167 293 52.5C293 66.5833 305.088 78 320 78Z" fill="#AD63FF"/>
<path d="M294.86 22.5532C300.369 29.1806 309.974 31 309.974 31C309.974 31 310.648 22.0742 305.14 15.4468C299.631 8.8194 290.026 7 290.026 7C290.026 7 289.352 15.9258 294.86 22.5532Z" fill="#3F3D56"/>
<path d="M297.392 19.4824C305.676 22.6666 310 30.7654 310 30.7654C310 30.7654 300.893 33.7017 292.608 30.5176C284.324 27.3334 280 19.2346 280 19.2346C280 19.2346 289.107 16.2983 297.392 19.4824Z" fill="#AD63FF"/>
<path d="M306.137 14.3073C305.073 22.5915 310.574 30 310.574 30C310.574 30 317.8 23.977 318.863 15.6927C319.927 7.40846 314.426 0 314.426 0C314.426 0 307.2 6.023 306.137 14.3073Z" fill="#3F3D56"/>
<path d="M310.191 14.1642C313.755 21.62 310.953 30 310.953 30C310.953 30 302.373 26.2917 298.809 18.8358C295.245 11.38 298.047 3 298.047 3C298.047 3 306.627 6.70831 310.191 14.1642Z" fill="#AD63FF"/>
<path d="M309.5 66C316.956 66 323 60.1797 323 53C323 45.8203 316.956 40 309.5 40C302.044 40 296 45.8203 296 53C296 60.1797 302.044 66 309.5 66Z" fill="#F2F2F2"/>
<path d="M304.5 62C306.985 62 309 59.9853 309 57.5C309 55.0147 306.985 53 304.5 53C302.015 53 300 55.0147 300 57.5C300 59.9853 302.015 62 304.5 62Z" fill="#3F3D56"/>
<path d="M345 32L358 22L345 32Z" fill="#3F3D56"/>
<path d="M346 39C349.864 36.1709 353.864 33.5043 358 31L346 39Z" fill="#3F3D56"/>
<path d="M355 38C359.077 35.9944 362.796 33.2896 366 30L355 38Z" fill="#3F3D56"/>
<path d="M57 56H53V62H57V56Z" fill="#AD63FF"/>
<path d="M68 55H65V60H68V55Z" fill="#AD63FF"/>
<path d="M75 55H70V60H75V55Z" fill="#AD63FF"/>
<path d="M75 72H70V78H75V72Z" fill="#AD63FF"/>
<path d="M80 65H78V69H80V65Z" fill="#AD63FF"/>
<path d="M80 74H78V79H80V74Z" fill="#AD63FF"/>
<path d="M75 91H70V98H75V91Z" fill="#AD63FF"/>
<path d="M80 100H78V107H80V100Z" fill="#AD63FF"/>
<path d="M75 138H70V142H75V138Z" fill="#AD63FF"/>
<path d="M68 100H65V107H68V100Z" fill="#AD63FF"/>
<path d="M57 66H53V71H57V66Z" fill="#AD63FF"/>
<path d="M57 158H53V163H57V158Z" fill="#AD63FF"/>
<path d="M50 175H47V182H50V175Z" fill="#AD63FF"/>
<path d="M50 186H47V193H50V186Z" fill="#AD63FF"/>
<path d="M57 132H51V133H57V132Z" fill="#AD63FF"/>
<path d="M75 177H69V179H75V177Z" fill="#AD63FF"/>
<path d="M53 83V84.2499H54.5998V86.7501H53V88H57V83H53Z" fill="#AD63FF"/>
<path d="M65 72V73.4999H66.1998V76.5001H65V78H68V72H65Z" fill="#AD63FF"/>
<path d="M78 81V82.7503H78.7999V86.2503H78V88H80V81H78Z" fill="#AD63FF"/>
<path d="M78 111V112.25H78.7999V114.75H78V116H80V111H78Z" fill="#AD63FF"/>
<path d="M78 121V122.25H78.7999V124.75H78V126H80V121H78Z" fill="#AD63FF"/>
<path d="M78 91V92.4998H78.7999V95.4998H78V97H80V91H78Z" fill="#AD63FF"/>
<path d="M70 65V66.0002H72.0001V67.9998H70V69H75V65H70Z" fill="#AD63FF"/>
<path d="M75 111H70V116H75V111Z" fill="#AD63FF"/>
<path d="M75 128H70V134H75V128Z" fill="#AD63FF"/>
<path d="M70 120V121.5H72.0001V124.5H70V126H75V120H70Z" fill="#AD63FF"/>
<path d="M65 81V82.7503H66.1998V86.2503H65V88H68V81H65Z" fill="#AD63FF"/>
<path d="M65 91V92.7503H66.1998V96.2497H65V98H68V91H65Z" fill="#AD63FF"/>
<path d="M68 121H65V126H68V121Z" fill="#AD63FF"/>
<path d="M65 111V112.25H66.1998V114.75H65V116H68V111H65Z" fill="#AD63FF"/>
<path d="M68 139H65V145H68V139Z" fill="#AD63FF"/>
<path d="M65 129V130.5H66.1998V133.5H65V135H68V129H65Z" fill="#AD63FF"/>
<path d="M68 158H65V164H68V158Z" fill="#AD63FF"/>
<path d="M75 157H70V163H75V157Z" fill="#AD63FF"/>
<path d="M65 148V149.5H66.1998V152.5H65V154H68V148H65Z" fill="#AD63FF"/>
<path d="M78 148V149.5H78.7999V152.5H78V154H80V148H78Z" fill="#AD63FF"/>
<path d="M116 65H112V69H116V65Z" fill="#AD63FF"/>
<path d="M116 74H112V79H116V74Z" fill="#AD63FF"/>
<path d="M116 100H112V107H116V100Z" fill="#AD63FF"/>
<path d="M112 81V82.7503H113.6V86.2503H112V88H116V81H112Z" fill="#AD63FF"/>
<path d="M112 111V112.25H113.6V114.75H112V116H116V111H112Z" fill="#AD63FF"/>
<path d="M112 121V122.25H113.6V124.75H112V126H116V121H112Z" fill="#AD63FF"/>
<path d="M112 91V92.4998H113.6V95.4998H112V97H116V91H112Z" fill="#AD63FF"/>
<path d="M112 148V149.5H113.6V152.5H112V154H116V148H112Z" fill="#AD63FF"/>
<path d="M68 177H65V182H68V177Z" fill="#AD63FF"/>
<path d="M75 165H70V172H75V165Z" fill="#AD63FF"/>
<path d="M68 202H65V208H68V202Z" fill="#AD63FF"/>
<path d="M75 184H70V189H75V184Z" fill="#AD63FF"/>
<path d="M65 169V170.25H66.1998V172.75H65V174H68V169H65Z" fill="#AD63FF"/>
<path d="M65 212V213.5H66.1998V216.5H65V218H68V212H65Z" fill="#AD63FF"/>
<path d="M105 55H101V60H105V55Z" fill="#AD63FF"/>
<path d="M105 100H101V107H105V100Z" fill="#AD63FF"/>
<path d="M101 72V73.4999H102.6V76.5001H101V78H105V72H101Z" fill="#AD63FF"/>
<path d="M101 81V82.7503H102.6V86.2503H101V88H105V81H101Z" fill="#AD63FF"/>
<path d="M101 91V92.7503H102.6V96.2497H101V98H105V91H101Z" fill="#AD63FF"/>
<path d="M105 121H101V126H105V121Z" fill="#AD63FF"/>
<path d="M101 111V112.25H102.6V114.75H101V116H105V111H101Z" fill="#AD63FF"/>
<path d="M105 139H101V145H105V139Z" fill="#AD63FF"/>
<path d="M101 129V130.5H102.6V133.5H101V135H105V129H101Z" fill="#AD63FF"/>
<path d="M105 158H101V164H105V158Z" fill="#AD63FF"/>
<path d="M101 148V149.5H102.6V152.5H101V154H105V148H101Z" fill="#AD63FF"/>
<path d="M105 177H101V182H105V177Z" fill="#AD63FF"/>
<path d="M105 202H101V208H105V202Z" fill="#AD63FF"/>
<path d="M101 169V170.25H102.6V172.75H101V174H105V169H101Z" fill="#AD63FF"/>
<path d="M101 212V213.5H102.6V216.5H101V218H105V212H101Z" fill="#AD63FF"/>
<path d="M121 55H118V60H121V55Z" fill="#AD63FF"/>
<path d="M121 100H118V107H121V100Z" fill="#AD63FF"/>
<path d="M118 72V73.4999H119.2V76.5001H118V78H121V72H118Z" fill="#AD63FF"/>
<path d="M118 81V82.7503H119.2V86.2503H118V88H121V81H118Z" fill="#AD63FF"/>
<path d="M118 91V92.7503H119.2V96.2497H118V98H121V91H118Z" fill="#AD63FF"/>
<path d="M121 121H118V126H121V121Z" fill="#AD63FF"/>
<path d="M118 111V112.25H119.2V114.75H118V116H121V111H118Z" fill="#AD63FF"/>
<path d="M121 139H118V145H121V139Z" fill="#AD63FF"/>
<path d="M118 129V130.5H119.2V133.5H118V135H121V129H118Z" fill="#AD63FF"/>
<path d="M121 158H118V164H121V158Z" fill="#AD63FF"/>
<path d="M118 148V149.5H119.2V152.5H118V154H121V148H118Z" fill="#AD63FF"/>
<path d="M121 177H118V182H121V177Z" fill="#AD63FF"/>
<path d="M121 202H118V208H121V202Z" fill="#AD63FF"/>
<path d="M118 169V170.25H119.2V172.75H118V174H121V169H118Z" fill="#AD63FF"/>
<path d="M118 212V213.5H119.2V216.5H118V218H121V212H118Z" fill="#AD63FF"/>
<path d="M70 202V203.5H72.0001V206.5H70V208H75V202H70Z" fill="#AD63FF"/>
<path d="M70 211V212.5H72.0001V215.5H70V217H75V211H70Z" fill="#AD63FF"/>
<path d="M53 100V101.75H54.5998V105.25H53V107H57V100H53Z" fill="#AD63FF"/>
<path d="M53 138V139.75H54.5998V143.25H53V145H57V138H53Z" fill="#AD63FF"/>
<path d="M53 147V148.5H54.5998V151.5H53V153H57V147H53Z" fill="#AD63FF"/>
<path d="M53 167V168.25H54.5998V170.75H53V172H57V167H53Z" fill="#AD63FF"/>
<path d="M47 194V195.25H48.1998V197.75H47V199H50V194H47Z" fill="#AD63FF"/>
<path d="M47 202V203.5H48.1998V206.5H47V208H50V202H47Z" fill="#AD63FF"/>
<path d="M90 56H88V62H90V56Z" fill="#AD63FF"/>
<path d="M90 66H88V71H90V66Z" fill="#AD63FF"/>
<path d="M90 132H87V133H90V132Z" fill="#AD63FF"/>
<path d="M88 83V84.2499H88.7999V86.7501H88V88H90V83H88Z" fill="#AD63FF"/>
<path d="M88 100V101.75H88.7999V105.25H88V107H90V100H88Z" fill="#AD63FF"/>
<path d="M88 138V139.75H88.7999V143.25H88V145H90V138H88Z" fill="#AD63FF"/>
<path d="M131 121H127V126H131V121Z" fill="#AD63FF"/>
<path d="M131 129H127V135H131V129Z" fill="#AD63FF"/>
<path d="M131 195H125V196H131V195Z" fill="#AD63FF"/>
<path d="M127 147V148.25H128.6V150.75H127V152H131V147H127Z" fill="#AD63FF"/>
<path d="M127 164V165.75H128.6V169.25H127V171H131V164H127Z" fill="#AD63FF"/>
<path d="M127 202V203.5H128.6V206.5H127V208H131V202H127Z" fill="#AD63FF"/>
<path d="M141 56H138V62H141V56Z" fill="#AD63FF"/>
<path d="M152 55H149V60H152V55Z" fill="#AD63FF"/>
<path d="M158 55H155V60H158V55Z" fill="#AD63FF"/>
<path d="M158 72H155V78H158V72Z" fill="#AD63FF"/>
<path d="M167 65H161V69H167V65Z" fill="#AD63FF"/>
<path d="M167 74H161V79H167V74Z" fill="#AD63FF"/>
<path d="M158 91H155V98H158V91Z" fill="#AD63FF"/>
<path d="M167 100H161V107H167V100Z" fill="#AD63FF"/>
<path d="M158 138H155V142H158V138Z" fill="#AD63FF"/>
<path d="M152 100H149V107H152V100Z" fill="#AD63FF"/>
<path d="M141 66H138V71H141V66Z" fill="#AD63FF"/>
<path d="M141 158H138V163H141V158Z" fill="#AD63FF"/>
<path d="M141 176H138V182H141V176Z" fill="#AD63FF"/>
<path d="M141 186H138V193H141V186Z" fill="#AD63FF"/>
<path d="M141 132H136V133H141V132Z" fill="#AD63FF"/>
<path d="M159 177H155V179H159V177Z" fill="#AD63FF"/>
<path d="M138 83V84.2499H139.2V86.7501H138V88H141V83H138Z" fill="#AD63FF"/>
<path d="M149 72V73.4999H150.2V76.5001H149V78H152V72H149Z" fill="#AD63FF"/>
<path d="M161 81V82.7503H163.4V86.2503H161V88H167V81H161Z" fill="#AD63FF"/>
<path d="M161 111V112.25H163.4V114.75H161V116H167V111H161Z" fill="#AD63FF"/>
<path d="M161 121V122.25H163.4V124.75H161V126H167V121H161Z" fill="#AD63FF"/>
<path d="M161 91V92.4998H163.4V95.4998H161V97H167V91H161Z" fill="#AD63FF"/>
<path d="M155 65V66.0002H156.2V67.9998H155V69H158V65H155Z" fill="#AD63FF"/>
<path d="M158 111H155V116H158V111Z" fill="#AD63FF"/>
<path d="M158 128H155V134H158V128Z" fill="#AD63FF"/>
<path d="M155 120V121.5H156.2V124.5H155V126H158V120H155Z" fill="#AD63FF"/>
<path d="M149 81V82.7503H150.2V86.2503H149V88H152V81H149Z" fill="#AD63FF"/>
<path d="M149 91V92.7503H150.2V96.2497H149V98H152V91H149Z" fill="#AD63FF"/>
<path d="M152 121H149V126H152V121Z" fill="#AD63FF"/>
<path d="M149 111V112.25H150.2V114.75H149V116H152V111H149Z" fill="#AD63FF"/>
<path d="M152 139H149V145H152V139Z" fill="#AD63FF"/>
<path d="M149 129V130.5H150.2V133.5H149V135H152V129H149Z" fill="#AD63FF"/>
<path d="M152 158H149V164H152V158Z" fill="#AD63FF"/>
<path d="M158 157H155V163H158V157Z" fill="#AD63FF"/>
<path d="M149 148V149.5H150.2V152.5H149V154H152V148H149Z" fill="#AD63FF"/>
<path d="M161 148V149.5H163.4V152.5H161V154H167V148H161Z" fill="#AD63FF"/>
<path d="M200 65H197V69H200V65Z" fill="#AD63FF"/>
<path d="M200 74H197V79H200V74Z" fill="#AD63FF"/>
<path d="M200 100H197V107H200V100Z" fill="#AD63FF"/>
<path d="M197 81V82.7503H198.2V86.2503H197V88H200V81H197Z" fill="#AD63FF"/>
<path d="M197 111V112.25H198.2V114.75H197V116H200V111H197Z" fill="#AD63FF"/>
<path d="M197 121V122.25H198.2V124.75H197V126H200V121H197Z" fill="#AD63FF"/>
<path d="M197 91V92.4998H198.2V95.4998H197V97H200V91H197Z" fill="#AD63FF"/>
<path d="M197 148V149.5H198.2V152.5H197V154H200V148H197Z" fill="#AD63FF"/>
<path d="M152 177H149V182H152V177Z" fill="#AD63FF"/>
<path d="M158 165H155V172H158V165Z" fill="#AD63FF"/>
<path d="M152 202H149V208H152V202Z" fill="#AD63FF"/>
<path d="M158 184H155V189H158V184Z" fill="#AD63FF"/>
<path d="M149 169V170.25H150.2V172.75H149V174H152V169H149Z" fill="#AD63FF"/>
<path d="M149 212V213.5H150.2V216.5H149V218H152V212H149Z" fill="#AD63FF"/>
<path d="M190 55H188V60H190V55Z" fill="#AD63FF"/>
<path d="M190 100H188V107H190V100Z" fill="#AD63FF"/>
<path d="M188 72V73.4999H188.8V76.5001H188V78H190V72H188Z" fill="#AD63FF"/>
<path d="M188 81V82.7503H188.8V86.2503H188V88H190V81H188Z" fill="#AD63FF"/>
<path d="M188 91V92.7503H188.8V96.2497H188V98H190V91H188Z" fill="#AD63FF"/>
<path d="M190 121H188V126H190V121Z" fill="#AD63FF"/>
<path d="M188 111V112.25H188.8V114.75H188V116H190V111H188Z" fill="#AD63FF"/>
<path d="M190 139H188V145H190V139Z" fill="#AD63FF"/>
<path d="M188 129V130.5H188.8V133.5H188V135H190V129H188Z" fill="#AD63FF"/>
<path d="M190 158H188V164H190V158Z" fill="#AD63FF"/>
<path d="M188 148V149.5H188.8V152.5H188V154H190V148H188Z" fill="#AD63FF"/>
<path d="M190 177H188V182H190V177Z" fill="#AD63FF"/>
<path d="M190 202H188V208H190V202Z" fill="#AD63FF"/>
<path d="M188 169V170.25H188.8V172.75H188V174H190V169H188Z" fill="#AD63FF"/>
<path d="M188 212V213.5H188.8V216.5H188V218H190V212H188Z" fill="#AD63FF"/>
<path d="M207 55H203V60H207V55Z" fill="#AD63FF"/>
<path d="M207 100H203V107H207V100Z" fill="#AD63FF"/>
<path d="M203 72V73.4999H204.6V76.5001H203V78H207V72H203Z" fill="#AD63FF"/>
<path d="M203 81V82.7503H204.6V86.2503H203V88H207V81H203Z" fill="#AD63FF"/>
<path d="M203 91V92.7503H204.6V96.2497H203V98H207V91H203Z" fill="#AD63FF"/>
<path d="M207 121H203V126H207V121Z" fill="#AD63FF"/>
<path d="M203 111V112.25H204.6V114.75H203V116H207V111H203Z" fill="#AD63FF"/>
<path d="M207 139H203V145H207V139Z" fill="#AD63FF"/>
<path d="M203 129V130.5H204.6V133.5H203V135H207V129H203Z" fill="#AD63FF"/>
<path d="M207 158H203V164H207V158Z" fill="#AD63FF"/>
<path d="M203 148V149.5H204.6V152.5H203V154H207V148H203Z" fill="#AD63FF"/>
<path d="M207 177H203V182H207V177Z" fill="#AD63FF"/>
<path d="M207 202H203V208H207V202Z" fill="#AD63FF"/>
<path d="M203 169V170.25H204.6V172.75H203V174H207V169H203Z" fill="#AD63FF"/>
<path d="M203 212V213.5H204.6V216.5H203V218H207V212H203Z" fill="#AD63FF"/>
<path d="M155 202V203.5H156.2V206.5H155V208H158V202H155Z" fill="#AD63FF"/>
<path d="M155 211V212.5H156.2V215.5H155V217H158V211H155Z" fill="#AD63FF"/>
<path d="M138 100V101.75H139.2V105.25H138V107H141V100H138Z" fill="#AD63FF"/>
<path d="M138 138V139.75H139.2V143.25H138V145H141V138H138Z" fill="#AD63FF"/>
<path d="M138 147V148.5H139.2V151.5H138V153H141V147H138Z" fill="#AD63FF"/>
<path d="M138 167V168.25H139.2V170.75H138V172H141V167H138Z" fill="#AD63FF"/>
<path d="M138 194V195.25H139.2V197.75H138V199H141V194H138Z" fill="#AD63FF"/>
<path d="M138 202V203.5H139.2V206.5H138V208H141V202H138Z" fill="#AD63FF"/>
<path d="M177 56H173V62H177V56Z" fill="#AD63FF"/>
<path d="M177 66H173V71H177V66Z" fill="#AD63FF"/>
<path d="M177 132H172V133H177V132Z" fill="#AD63FF"/>
<path d="M173 83V84.2499H174.6V86.7501H173V88H177V83H173Z" fill="#AD63FF"/>
<path d="M173 100V101.75H174.6V105.25H173V107H177V100H173Z" fill="#AD63FF"/>
<path d="M173 138V139.75H174.6V143.25H173V145H177V138H173Z" fill="#AD63FF"/>
<path d="M215 121H211V126H215V121Z" fill="#AD63FF"/>
<path d="M215 129H211V135H215V129Z" fill="#AD63FF"/>
<path d="M215 195H211V196H215V195Z" fill="#AD63FF"/>
<path d="M211 147V148.25H212.6V150.75H211V152H215V147H211Z" fill="#AD63FF"/>
<path d="M211 164V165.75H212.6V169.25H211V171H215V164H211Z" fill="#AD63FF"/>
<path d="M211 202V203.5H212.6V206.5H211V208H215V202H211Z" fill="#AD63FF"/>
<path d="M227 56H223V62H227V56Z" fill="#AD63FF"/>
<path d="M237 55H233V60H237V55Z" fill="#AD63FF"/>
<path d="M244 55H241V60H244V55Z" fill="#AD63FF"/>
<path d="M244 72H241V78H244V72Z" fill="#AD63FF"/>
<path d="M251 65H248V69H251V65Z" fill="#AD63FF"/>
<path d="M251 74H248V79H251V74Z" fill="#AD63FF"/>
<path d="M244 91H241V98H244V91Z" fill="#AD63FF"/>
<path d="M251 100H248V107H251V100Z" fill="#AD63FF"/>
<path d="M244 138H241V142H244V138Z" fill="#AD63FF"/>
<path d="M237 100H233V107H237V100Z" fill="#AD63FF"/>
<path d="M227 66H223V71H227V66Z" fill="#AD63FF"/>
<path d="M227 158H223V163H227V158Z" fill="#AD63FF"/>
<path d="M227 176H223V182H227V176Z" fill="#AD63FF"/>
<path d="M227 186H223V193H227V186Z" fill="#AD63FF"/>
<path d="M227 132H222V133H227V132Z" fill="#AD63FF"/>
<path d="M244 177H241V179H244V177Z" fill="#AD63FF"/>
<path d="M223 83V84.2499H224.6V86.7501H223V88H227V83H223Z" fill="#AD63FF"/>
<path d="M233 72V73.4999H234.6V76.5001H233V78H237V72H233Z" fill="#AD63FF"/>
<path d="M248 81V82.7503H249.2V86.2503H248V88H251V81H248Z" fill="#AD63FF"/>
<path d="M248 111V112.25H249.2V114.75H248V116H251V111H248Z" fill="#AD63FF"/>
<path d="M248 121V122.25H249.2V124.75H248V126H251V121H248Z" fill="#AD63FF"/>
<path d="M248 91V92.4998H249.2V95.4998H248V97H251V91H248Z" fill="#AD63FF"/>
<path d="M241 65V66.0002H242.2V67.9998H241V69H244V65H241Z" fill="#AD63FF"/>
<path d="M244 111H241V116H244V111Z" fill="#AD63FF"/>
<path d="M244 128H241V134H244V128Z" fill="#AD63FF"/>
<path d="M241 120V121.5H242.2V124.5H241V126H244V120H241Z" fill="#AD63FF"/>
<path d="M233 81V82.7503H234.6V86.2503H233V88H237V81H233Z" fill="#AD63FF"/>
<path d="M233 91V92.7503H234.6V96.2497H233V98H237V91H233Z" fill="#AD63FF"/>
<path d="M237 121H233V126H237V121Z" fill="#AD63FF"/>
<path d="M233 111V112.25H234.6V114.75H233V116H237V111H233Z" fill="#AD63FF"/>
<path d="M237 139H233V145H237V139Z" fill="#AD63FF"/>
<path d="M233 129V130.5H234.6V133.5H233V135H237V129H233Z" fill="#AD63FF"/>
<path d="M237 158H233V164H237V158Z" fill="#AD63FF"/>
<path d="M244 157H241V163H244V157Z" fill="#AD63FF"/>
<path d="M233 148V149.5H234.6V152.5H233V154H237V148H233Z" fill="#AD63FF"/>
<path d="M248 148V149.5H249.2V152.5H248V154H251V148H248Z" fill="#AD63FF"/>
<path d="M285 65H282V69H285V65Z" fill="#AD63FF"/>
<path d="M285 74H282V79H285V74Z" fill="#AD63FF"/>
<path d="M285 100H282V107H285V100Z" fill="#AD63FF"/>
<path d="M282 81V82.7503H283.2V86.2503H282V88H285V81H282Z" fill="#AD63FF"/>
<path d="M282 111V112.25H283.2V114.75H282V116H285V111H282Z" fill="#AD63FF"/>
<path d="M282 121V122.25H283.2V124.75H282V126H285V121H282Z" fill="#AD63FF"/>
<path d="M282 91V92.4998H283.2V95.4998H282V97H285V91H282Z" fill="#AD63FF"/>
<path d="M282 148V149.5H283.2V152.5H282V154H285V148H282Z" fill="#AD63FF"/>
<path d="M237 177H233V182H237V177Z" fill="#AD63FF"/>
<path d="M244 165H241V172H244V165Z" fill="#AD63FF"/>
<path d="M237 202H233V208H237V202Z" fill="#AD63FF"/>
<path d="M244 184H241V189H244V184Z" fill="#AD63FF"/>
<path d="M233 169V170.25H234.6V172.75H233V174H237V169H233Z" fill="#AD63FF"/>
<path d="M233 212V213.5H234.6V216.5H233V218H237V212H233Z" fill="#AD63FF"/>
<path d="M263 77H260V81H263V77Z" fill="#AD63FF"/>
<path d="M275 100H271V107H275V100Z" fill="#AD63FF"/>
<path d="M271 72V73.4999H272.6V76.5001H271V78H275V72H271Z" fill="#AD63FF"/>
<path d="M271 81V82.7503H272.6V86.2503H271V88H275V81H271Z" fill="#AD63FF"/>
<path d="M271 91V92.7503H272.6V96.2497H271V98H275V91H271Z" fill="#AD63FF"/>
<path d="M275 121H271V126H275V121Z" fill="#AD63FF"/>
<path d="M271 111V112.25H272.6V114.75H271V116H275V111H271Z" fill="#AD63FF"/>
<path d="M275 139H271V145H275V139Z" fill="#AD63FF"/>
<path d="M271 129V130.5H272.6V133.5H271V135H275V129H271Z" fill="#AD63FF"/>
<path d="M275 158H271V164H275V158Z" fill="#AD63FF"/>
<path d="M271 148V149.5H272.6V152.5H271V154H275V148H271Z" fill="#AD63FF"/>
<path d="M275 177H271V182H275V177Z" fill="#AD63FF"/>
<path d="M275 202H271V208H275V202Z" fill="#AD63FF"/>
<path d="M271 169V170.25H272.6V172.75H271V174H275V169H271Z" fill="#AD63FF"/>
<path d="M271 212V213.5H272.6V216.5H271V218H275V212H271Z" fill="#AD63FF"/>
<path d="M280 77H277V81H280V77Z" fill="#AD63FF"/>
<path d="M291 100H288V107H291V100Z" fill="#AD63FF"/>
<path d="M283 75V76.4999H284.2V79.5001H283V81H286V75H283Z" fill="#AD63FF"/>
<path d="M288 81V82.7503H289.2V86.2503H288V88H291V81H288Z" fill="#AD63FF"/>
<path d="M288 91V92.7503H289.2V96.2497H288V98H291V91H288Z" fill="#AD63FF"/>
<path d="M291 121H288V126H291V121Z" fill="#AD63FF"/>
<path d="M288 111V112.25H289.2V114.75H288V116H291V111H288Z" fill="#AD63FF"/>
<path d="M291 139H288V145H291V139Z" fill="#AD63FF"/>
<path d="M288 129V130.5H289.2V133.5H288V135H291V129H288Z" fill="#AD63FF"/>
<path d="M291 158H288V164H291V158Z" fill="#AD63FF"/>
<path d="M288 148V149.5H289.2V152.5H288V154H291V148H288Z" fill="#AD63FF"/>
<path d="M291 177H288V182H291V177Z" fill="#AD63FF"/>
<path d="M291 202H288V208H291V202Z" fill="#AD63FF"/>
<path d="M288 169V170.25H289.2V172.75H288V174H291V169H288Z" fill="#AD63FF"/>
<path d="M288 212V213.5H289.2V216.5H288V218H291V212H288Z" fill="#AD63FF"/>
<path d="M241 202V203.5H242.2V206.5H241V208H244V202H241Z" fill="#AD63FF"/>
<path d="M241 211V212.5H242.2V215.5H241V217H244V211H241Z" fill="#AD63FF"/>
<path d="M223 100V101.75H224.6V105.25H223V107H227V100H223Z" fill="#AD63FF"/>
<path d="M223 138V139.75H224.6V143.25H223V145H227V138H223Z" fill="#AD63FF"/>
<path d="M223 147V148.5H224.6V151.5H223V153H227V147H223Z" fill="#AD63FF"/>
<path d="M223 167V168.25H224.6V170.75H223V172H227V167H223Z" fill="#AD63FF"/>
<path d="M223 194V195.25H224.6V197.75H223V199H227V194H223Z" fill="#AD63FF"/>
<path d="M223 202V203.5H224.6V206.5H223V208H227V202H223Z" fill="#AD63FF"/>
<path d="M262 56H259V62H262V56Z" fill="#AD63FF"/>
<path d="M262 66H259V71H262V66Z" fill="#AD63FF"/>
<path d="M262 132H258V133H262V132Z" fill="#AD63FF"/>
<path d="M259 83V84.2499H260.2V86.7501H259V88H262V83H259Z" fill="#AD63FF"/>
<path d="M259 100V101.75H260.2V105.25H259V107H262V100H259Z" fill="#AD63FF"/>
<path d="M259 138V139.75H260.2V143.25H259V145H262V138H259Z" fill="#AD63FF"/>
<path d="M301 121H298V126H301V121Z" fill="#AD63FF"/>
<path d="M301 129H298V135H301V129Z" fill="#AD63FF"/>
<path d="M301 195H297V196H301V195Z" fill="#AD63FF"/>
<path d="M298 147V148.25H299.2V150.75H298V152H301V147H298Z" fill="#AD63FF"/>
<path d="M298 164V165.75H299.2V169.25H298V171H301V164H298Z" fill="#AD63FF"/>
<path d="M298 202V203.5H299.2V206.5H298V208H301V202H298Z" fill="#AD63FF"/>
<path d="M27.5 248C13.969 248 3 236.583 3 222.5C3 208.417 13.969 197 27.5 197C41.031 197 52 208.417 52 222.5C52 236.583 41.031 248 27.5 248Z" fill="#AD63FF"/>
<path d="M42.6253 186.651C39.6699 194.107 32.1488 198 32.1488 198C32.1488 198 29.4194 189.805 32.3747 182.349C35.3301 174.893 42.8511 171 42.8511 171C42.8511 171 45.5806 179.195 42.6253 186.651Z" fill="#3F3D56"/>
<path d="M40.0928 184.377C33.7415 189.335 32 197.977 32 197.977C32 197.977 40.5559 198.581 46.9072 193.623C53.2584 188.665 55 180.023 55 180.023C55 180.023 46.4441 179.419 40.0928 184.377Z" fill="#AD63FF"/>
<path d="M30.6773 182.822C33.5928 190.554 30.7791 199 30.7791 199C30.7791 199 23.2383 194.91 20.3227 187.178C17.4072 179.446 20.2209 171 20.2209 171C20.2209 171 27.7617 175.09 30.6773 182.822Z" fill="#3F3D56"/>
<path d="M27.2016 183.081C26.0265 191.365 30.3722 199 30.3722 199C30.3722 199 36.6232 193.203 37.7984 184.919C38.9735 176.635 34.6278 169 34.6278 169C34.6278 169 28.3768 174.797 27.2016 183.081Z" fill="#AD63FF"/>
<path d="M29.5 236C21.4919 236 15 229.732 15 222C15 214.268 21.4919 208 29.5 208C37.5081 208 44 214.268 44 222C44 229.732 37.5081 236 29.5 236Z" fill="#F2F2F2"/>
<path d="M35.5 222C33.567 222 32 219.985 32 217.5C32 215.015 33.567 213 35.5 213C37.433 213 39 215.015 39 217.5C39 219.985 37.433 222 35.5 222Z" fill="#3F3D56"/>
<path d="M6 240C2.68629 240 0 237.538 0 234.5C0 231.462 2.68629 229 6 229C9.31371 229 12 231.462 12 234.5C12 237.538 9.31371 240 6 240Z" fill="#AD63FF"/>
<path d="M320 78C334.912 78 347 66.5833 347 52.5C347 38.4167 334.912 27 320 27C305.088 27 293 38.4167 293 52.5C293 66.5833 305.088 78 320 78Z" fill="#AD63FF"/>
<path d="M294.86 22.5532C300.369 29.1806 309.974 31 309.974 31C309.974 31 310.648 22.0742 305.14 15.4468C299.631 8.8194 290.026 7 290.026 7C290.026 7 289.352 15.9258 294.86 22.5532Z" fill="#3F3D56"/>
<path d="M297.392 19.4824C305.676 22.6666 310 30.7654 310 30.7654C310 30.7654 300.893 33.7017 292.608 30.5176C284.324 27.3334 280 19.2346 280 19.2346C280 19.2346 289.107 16.2983 297.392 19.4824Z" fill="#AD63FF"/>
<path d="M306.137 14.3073C305.073 22.5915 310.574 30 310.574 30C310.574 30 317.8 23.977 318.863 15.6927C319.927 7.40846 314.426 0 314.426 0C314.426 0 307.2 6.023 306.137 14.3073Z" fill="#3F3D56"/>
<path d="M310.191 14.1642C313.755 21.62 310.953 30 310.953 30C310.953 30 302.373 26.2917 298.809 18.8358C295.245 11.38 298.047 3 298.047 3C298.047 3 306.627 6.70831 310.191 14.1642Z" fill="#AD63FF"/>
<path d="M309.5 66C316.956 66 323 60.1797 323 53C323 45.8203 316.956 40 309.5 40C302.044 40 296 45.8203 296 53C296 60.1797 302.044 66 309.5 66Z" fill="#F2F2F2"/>
<path d="M304.5 62C306.985 62 309 59.9853 309 57.5C309 55.0147 306.985 53 304.5 53C302.015 53 300 55.0147 300 57.5C300 59.9853 302.015 62 304.5 62Z" fill="#3F3D56"/>
<path d="M345 32L358 22L345 32Z" fill="#3F3D56"/>
<path d="M346 39C349.864 36.1709 353.864 33.5043 358 31L346 39Z" fill="#3F3D56"/>
<path d="M355 38C359.077 35.9944 362.796 33.2896 366 30L355 38Z" fill="#3F3D56"/>
</svg>
