<svg width="300" height="281" viewBox="0 0 300 281" fill="none" xmlns="http://www.w3.org/2000/svg">
<g clip-path="url(#clip0_0_1378)">
<path d="M202.423 268.694C202.082 268.908 201.741 269.119 201.396 269.33C200.709 269.751 200.016 270.166 199.323 270.573C198.974 270.777 198.622 270.981 198.274 271.181V271.192L198.253 271.195L198.246 271.199L197.715 271.33L196.953 269.313L196.601 268.383L196.104 267.067L195.194 264.659L190.399 251.982L197.853 250.141L198.132 251.284H198.136L198.274 251.85L200.878 262.428L201.409 264.59L201.427 264.656L201.747 265.948L202.023 267.067L202.33 268.318L202.423 268.694Z" fill="#FFB7B7"/>
<path d="M170.941 271.863L166.245 269.614L172.696 249.957L179.626 253.276L170.941 271.863Z" fill="#FFB7B7"/>
<path d="M172.441 268.653L167.36 266.215L166.563 265.831L165.29 268.961L156.405 270.92C155.966 271.016 155.569 271.251 155.272 271.589C154.975 271.928 154.794 272.352 154.756 272.801C154.717 273.25 154.823 273.699 155.058 274.084C155.292 274.468 155.644 274.767 156.06 274.937L164.742 278.485L167.498 276.001L166.822 279.335L170.092 280.671L173.676 269.248L172.441 268.653Z" fill="#2F2E41"/>
<path d="M300 234.156C300 234.225 299.987 234.294 299.96 234.359C299.934 234.423 299.895 234.481 299.846 234.53C299.797 234.58 299.738 234.619 299.674 234.645C299.61 234.672 299.541 234.685 299.472 234.685H0.528365C0.388235 234.685 0.253841 234.629 0.154754 234.53C0.0556661 234.431 0 234.296 0 234.156C0 234.016 0.0556661 233.881 0.154754 233.782C0.253841 233.682 0.388235 233.627 0.528365 233.627H299.472C299.541 233.627 299.61 233.64 299.674 233.667C299.738 233.693 299.797 233.732 299.846 233.781C299.895 233.83 299.934 233.889 299.96 233.953C299.987 234.017 300 234.086 300 234.156Z" fill="#CCCCCC"/>
<path d="M277.321 214.973L290.779 217.08C295.335 211.556 298.475 205.002 299.927 197.987C290.087 206.054 275.121 201.767 263.189 206.171C259.477 207.573 256.129 209.794 253.391 212.668C250.653 215.543 248.596 218.998 247.373 222.776L240.796 229.863C246.75 232.223 253.143 233.263 259.537 232.911C265.931 232.558 272.172 230.822 277.831 227.821C280.989 226.106 283.919 224 286.551 221.552C281.842 218.582 277.321 214.973 277.321 214.973Z" fill="#F2F2F2"/>
<path d="M272.543 193.417L285.527 189.292C287.145 182.313 287.037 175.044 285.213 168.117C279.997 179.733 264.693 182.58 255.974 191.851C253.277 194.764 251.269 198.247 250.099 202.043C248.928 205.838 248.626 209.849 249.214 213.777L246.483 223.058C252.863 222.511 259.048 220.586 264.614 217.415C270.18 214.244 274.993 209.902 278.721 204.689C280.784 201.744 282.468 198.55 283.734 195.183C278.197 194.628 272.543 193.417 272.543 193.417Z" fill="#F2F2F2"/>
<path d="M123.876 211.597C176.598 211.597 219.337 168.795 219.337 115.996C219.337 63.1969 176.598 20.3947 123.876 20.3947C71.1545 20.3947 28.4153 63.1969 28.4153 115.996C28.4153 168.795 71.1545 211.597 123.876 211.597Z" fill="#E6E6E6"/>
<path d="M159.371 198.822C158.807 199.139 158.391 199.668 158.215 200.292C158.039 200.916 158.117 201.584 158.433 202.15L172.526 227.372C172.842 227.938 173.37 228.355 173.994 228.531C174.617 228.707 175.284 228.628 175.849 228.312C176.414 227.995 176.831 227.466 177.007 226.842C177.183 226.218 177.104 225.55 176.788 224.984L162.695 199.762C162.378 199.196 161.85 198.78 161.227 198.604C160.604 198.428 159.937 198.506 159.371 198.822Z" fill="#E6E6E6"/>
<path d="M175.38 233.83C179.549 233.83 182.929 230.446 182.929 226.271C182.929 222.096 179.549 218.712 175.38 218.712C171.212 218.712 167.832 222.096 167.832 226.271C167.832 230.446 171.212 233.83 175.38 233.83Z" fill="#E6E6E6"/>
<path d="M85.0574 199.761L70.9639 224.984C70.6478 225.55 70.5691 226.218 70.7452 226.842C70.9212 227.466 71.3376 227.995 71.9027 228.312C72.4678 228.628 73.1354 228.707 73.7586 228.531C74.3818 228.355 74.9096 227.938 75.226 227.372L89.3195 202.15C89.4762 201.87 89.5762 201.561 89.6139 201.242C89.6515 200.923 89.6261 200.6 89.5389 200.291C89.4518 199.982 89.3047 199.693 89.1061 199.441C88.9075 199.188 88.6612 198.978 88.3813 198.821C88.1014 198.664 87.7934 198.564 87.4748 198.526C87.1563 198.489 86.8335 198.514 86.5248 198.602C86.2162 198.689 85.9277 198.836 85.6759 199.035C85.4242 199.234 85.214 199.481 85.0574 199.761Z" fill="#E6E6E6"/>
<path d="M73.7036 233.83C77.8723 233.83 81.2516 230.446 81.2516 226.271C81.2516 222.096 77.8723 218.712 73.7036 218.712C69.5349 218.712 66.1555 222.096 66.1555 226.271C66.1555 230.446 69.5349 233.83 73.7036 233.83Z" fill="#E6E6E6"/>
<path d="M246.89 224.173C246.417 224.933 245.934 225.689 245.448 226.439C244.544 227.835 243.616 229.209 242.664 230.564C242.664 230.567 242.661 230.567 242.657 230.57C242.102 231.086 241.488 231.534 240.829 231.907C240.802 231.928 240.771 231.942 240.743 231.959C240.258 232.228 239.741 232.436 239.205 232.578C239.011 232.626 238.815 232.674 238.622 232.723C237.925 232.888 237.235 233.03 236.549 233.154C235.328 233.372 234.12 233.527 232.92 233.624C232.823 233.635 232.727 233.641 232.63 233.648C227.694 234.011 222.889 233.427 217.874 232.47C215.397 232.001 212.869 231.438 210.251 230.854C209.395 230.66 208.537 230.47 207.667 230.28C207.602 230.266 207.533 230.249 207.464 230.235C206.222 229.963 204.96 229.693 203.666 229.427C202.038 229.092 200.358 228.767 198.613 228.46L198.737 230.923C198.84 232.818 199.233 234.685 199.903 236.46C200.648 238.643 201.238 240.371 199.992 243.967L199.392 245.708C199.703 246.572 199.81 247.497 199.704 248.41C199.598 249.323 199.283 250.199 198.782 250.969L198.661 251.152L203.666 263.833L203.99 264.655H201.427L198.275 264.659H192.932L185.222 249.169L184.853 248.43V248.392L185.65 218.625C185.66 218.363 185.681 218.097 185.716 217.834C185.856 216.641 186.233 215.487 186.823 214.441C187.414 213.395 188.206 212.477 189.155 211.74C190.064 211.029 191.105 210.506 192.217 210.201C193.33 209.896 194.492 209.816 195.636 209.965L198.275 210.307L203.666 211.005L207.464 211.499L207.54 211.509L218.74 212.96L219.543 209.678L219.692 209.623L224.407 207.892L240.715 201.906L240.757 201.892L241.83 201.498L241.957 201.705C241.995 201.767 242.033 201.83 242.068 201.892C243.128 203.795 243.991 205.803 244.644 207.882C245.742 211.279 246.646 214.735 247.352 218.235C247.383 218.387 247.411 218.525 247.435 218.649L247.445 218.687C247.455 218.746 247.462 218.784 247.466 218.794C247.842 220.363 247.58 222.276 246.89 224.173Z" fill="#2F2E41"/>
<path d="M203.666 263.833L203.99 264.655H203.666V263.833Z" fill="#2F2E41"/>
<path d="M201.897 264.831L196.573 266.678L195.737 266.967L197.032 270.088L192.094 277.741C191.849 278.119 191.732 278.566 191.759 279.015C191.786 279.465 191.956 279.894 192.244 280.24C192.532 280.586 192.923 280.831 193.36 280.939C193.796 281.046 194.256 281.011 194.671 280.839L203.333 277.242L203.547 273.535L205.408 276.38L208.671 275.026L203.191 264.383L201.897 264.831Z" fill="#2F2E41"/>
<path d="M206.017 115.996C206.026 128.832 203.032 141.491 197.275 152.959C191.517 164.427 183.157 174.384 172.863 182.032C172.175 182.548 171.473 183.05 170.767 183.54C157.002 193.122 140.64 198.258 123.876 198.258C107.112 198.258 90.7497 193.122 76.9848 183.54C76.2788 183.05 75.5773 182.548 74.8891 182.032C64.6026 174.378 56.247 164.419 50.4903 152.953C44.7336 141.486 41.7354 128.83 41.7354 115.996C41.7354 103.162 44.7336 90.5057 50.4903 79.0394C56.247 67.573 64.6026 57.6145 74.8891 49.9599C75.5773 49.4441 76.2788 48.9417 76.9848 48.4525C90.7497 38.8702 107.112 33.7344 123.876 33.7344C140.64 33.7344 157.002 38.8702 170.767 48.4525C171.473 48.9417 172.175 49.4441 172.863 49.9599C183.157 57.6078 191.517 67.5649 197.275 79.0328C203.032 90.5007 206.026 103.16 206.017 115.996Z" fill="white"/>
<path d="M247.578 213.203C247.526 212.982 247.461 212.757 247.392 212.54C246.844 210.891 246.206 209.275 245.481 207.697C244.667 205.9 243.691 203.976 242.528 201.893C241.966 200.884 241.361 199.836 240.714 198.746C240.39 198.2 240.053 197.644 239.703 197.078C239.69 197.052 239.675 197.026 239.658 197.002L239.558 196.836L223.422 198.998L217.414 199.803L217.055 202.802L216.969 203.544C216.965 203.544 216.965 203.544 216.969 203.548L216.727 205.572V205.576L216.406 208.249L216.379 208.246L207.462 207.089L198.273 205.897L193.337 205.258C192.193 205.109 191.031 205.189 189.918 205.493C188.806 205.798 187.765 206.322 186.856 207.033C185.907 207.77 185.115 208.688 184.525 209.734C183.934 210.78 183.558 211.934 183.417 213.127C183.386 213.369 183.365 213.618 183.355 213.863L178.698 224.914C175.912 231.522 174.137 238.515 173.434 245.654L170.02 256.587L170.506 256.632L177.743 257.306L179.654 257.485L183.862 251.333C184.341 250.632 184.797 249.91 185.221 249.171C185.919 247.963 186.54 246.712 187.08 245.426L196.183 223.732C196.887 223.853 197.583 223.968 198.273 224.078C201.464 224.596 204.527 225.018 207.462 225.345C217.007 226.413 225.271 226.496 232.629 225.591C234.695 225.338 236.692 225.007 238.62 224.596C239.327 224.447 240.025 224.287 240.714 224.116C240.876 224.078 241.035 224.04 241.193 223.998C242.619 223.63 243.929 222.91 245.005 221.903C246.081 220.896 246.887 219.636 247.35 218.236C247.904 216.614 247.983 214.868 247.578 213.203Z" fill="#2F2E41"/>
<path d="M123.876 191.143C165.318 191.143 198.913 157.499 198.913 115.996C198.913 74.4934 165.318 40.8489 123.876 40.8489C82.4344 40.8489 48.8394 74.4934 48.8394 115.996C48.8394 157.499 82.4344 191.143 123.876 191.143Z" fill="#936EE3"/>
<path d="M60.6899 92.8382L50.8153 88.823C50.2153 88.579 49.5432 88.5837 48.9467 88.8359C48.3502 89.0882 47.8781 89.5674 47.6344 90.1682C47.3907 90.769 47.3952 91.4421 47.647 92.0396C47.8988 92.637 48.3772 93.1098 48.9771 93.354L58.8517 97.3693C59.4516 97.6127 60.1234 97.6077 60.7195 97.3553C61.3156 97.1029 61.7873 96.6238 62.031 96.0233C62.2746 95.4228 62.2702 94.7501 62.0187 94.1528C61.7672 93.5556 61.2893 93.0828 60.6899 92.8382Z" fill="white"/>
<path opacity="0.2" d="M124.072 41.059C122.934 41.059 121.804 41.0888 120.679 41.1389C139.644 42.8079 157.266 51.6342 169.976 65.8296C182.685 80.025 189.532 98.5279 189.128 117.59C188.724 136.652 181.1 154.847 167.8 168.49C154.5 182.132 136.52 190.202 117.501 191.063C119.667 191.251 121.857 191.353 124.072 191.353C143.973 191.353 163.059 183.436 177.131 169.343C191.203 155.25 199.108 136.136 199.108 116.206C199.108 96.2759 191.203 77.1619 177.131 63.0691C163.059 48.9762 143.973 41.059 124.072 41.059Z" fill="black"/>
<path d="M124.098 180.916C123.451 180.917 122.83 181.175 122.372 181.634C121.915 182.092 121.657 182.713 121.656 183.362V194.033C121.656 194.682 121.913 195.304 122.371 195.763C122.829 196.221 123.45 196.479 124.098 196.479C124.746 196.479 125.367 196.221 125.825 195.763C126.283 195.304 126.54 194.682 126.54 194.033V183.362C126.539 182.713 126.281 182.092 125.824 181.634C125.366 181.175 124.745 180.917 124.098 180.916Z" fill="white"/>
<path d="M84.515 170.262C83.9798 169.897 83.3218 169.76 82.6857 169.881C82.0496 170.002 81.4874 170.371 81.1229 170.907L75.1244 179.724C74.8962 180.059 74.7551 180.445 74.714 180.848C74.6729 181.251 74.7331 181.658 74.8891 182.032C75.5773 182.548 76.2788 183.05 76.9848 183.539C77.4084 183.567 77.8319 183.484 78.2134 183.297C78.595 183.111 78.9214 182.828 79.1604 182.477L85.1589 173.659C85.3394 173.394 85.4659 173.095 85.5312 172.781C85.5965 172.467 85.5994 172.143 85.5396 171.827C85.4798 171.512 85.3585 171.211 85.1828 170.942C85.007 170.674 84.7801 170.443 84.515 170.262Z" fill="white"/>
<path d="M172.628 179.724L166.629 170.907C166.449 170.641 166.218 170.414 165.95 170.238C165.682 170.062 165.381 169.941 165.066 169.881C164.751 169.821 164.428 169.824 164.114 169.889C163.8 169.955 163.502 170.081 163.237 170.262C162.972 170.443 162.745 170.674 162.569 170.942C162.394 171.211 162.272 171.512 162.212 171.827C162.153 172.143 162.156 172.467 162.221 172.781C162.286 173.095 162.413 173.394 162.593 173.659L168.592 182.477C168.831 182.828 169.157 183.111 169.539 183.297C169.92 183.484 170.344 183.567 170.767 183.539C171.473 183.05 172.175 182.548 172.863 182.032C173.019 181.658 173.079 181.251 173.038 180.848C172.997 180.445 172.856 180.059 172.628 179.724Z" fill="white"/>
<path d="M198.775 138.638L188.9 134.623C188.3 134.379 187.628 134.383 187.032 134.636C186.435 134.888 185.963 135.367 185.719 135.968C185.476 136.569 185.48 137.242 185.732 137.839C185.984 138.437 186.462 138.91 187.062 139.154L196.937 143.169C197.537 143.412 198.208 143.407 198.805 143.155C199.401 142.903 199.872 142.424 200.116 141.823C200.36 141.223 200.355 140.55 200.104 139.952C199.852 139.355 199.374 138.882 198.775 138.638Z" fill="white"/>
<path d="M62.0308 135.966C61.9101 135.668 61.7322 135.398 61.5072 135.169C61.2821 134.941 61.0143 134.759 60.7191 134.634C60.4238 134.51 60.107 134.444 59.7865 134.442C59.4661 134.44 59.1485 134.502 58.8517 134.623L48.977 138.638C48.3776 138.882 47.8997 139.355 47.6482 139.953C47.3968 140.55 47.3924 141.223 47.636 141.823C47.8796 142.424 48.3513 142.903 48.9474 143.155C49.5436 143.407 50.2154 143.412 50.8152 143.169L60.6899 139.154C61.289 138.908 61.7664 138.434 62.0178 137.837C62.2691 137.239 62.2737 136.566 62.0308 135.966Z" fill="white"/>
<path d="M127.267 114.783C127.492 116.119 127.179 117.491 126.396 118.597C125.613 119.703 124.423 120.452 123.089 120.681L79.7551 128.063C79.0941 128.176 78.4174 128.157 77.7636 128.007C77.1099 127.858 76.4919 127.581 75.9449 127.193C75.398 126.804 74.9328 126.312 74.576 125.743C74.2191 125.175 73.9776 124.541 73.8651 123.879C73.7527 123.217 73.7716 122.54 73.9207 121.885C74.0697 121.23 74.3461 120.611 74.734 120.064C75.122 119.516 75.6138 119.05 76.1815 118.693C76.7492 118.335 77.3816 118.093 78.0427 117.981L121.377 110.599C122.711 110.373 124.081 110.687 125.185 111.471C126.29 112.255 127.038 113.446 127.267 114.783Z" fill="#3F3D56"/>
<path d="M172.874 162.864C172.252 163.491 171.406 163.845 170.524 163.848C169.641 163.852 168.792 163.504 168.165 162.882L121.517 116.532C120.891 115.909 120.537 115.062 120.534 114.178C120.531 113.294 120.879 112.445 121.5 111.818C122.122 111.19 122.967 110.835 123.85 110.832C124.732 110.828 125.58 111.175 126.207 111.797L172.856 158.148C173.482 158.771 173.835 159.618 173.839 160.502C173.842 161.386 173.495 162.235 172.874 162.864Z" fill="#3F3D56"/>
<path d="M169.46 158.612C169.757 159.079 170.153 159.475 170.62 159.771C171.087 160.068 171.613 160.259 172.161 160.33C172.709 160.401 173.266 160.351 173.793 160.183C174.32 160.015 174.803 159.733 175.21 159.358L187.054 165.714L186.419 158.75L175.269 153.782C174.594 153.14 173.707 152.768 172.777 152.737C171.847 152.706 170.938 153.018 170.222 153.613C169.506 154.209 169.033 155.046 168.892 155.968C168.752 156.889 168.954 157.83 169.46 158.612Z" fill="#FFB7B7"/>
<path d="M178.09 161.043L182.731 154.626L205.091 165.212L232.915 159.984C234.291 159.725 235.706 159.773 237.061 160.124C238.415 160.475 239.676 161.121 240.754 162.015C241.832 162.909 242.7 164.029 243.296 165.297C243.893 166.564 244.204 167.948 244.206 169.349C244.208 171.881 243.208 174.309 241.424 176.102C239.64 177.896 237.218 178.907 234.691 178.914L202.804 178.973L178.09 161.043Z" fill="#3F3D56"/>
<path d="M246.25 218.208C245.934 218.207 245.623 218.13 245.343 217.982L217.249 203.281L216.925 201.95L216.313 197.738L216.321 197.699L218.993 185.363C218.944 185.257 218.842 185.083 218.726 184.887C217.533 182.863 213.903 176.703 220.831 168.221L232.995 154.019L243.435 153.569L243.554 153.719C246.345 157.228 248.228 161.373 249.034 165.786C249.84 170.199 249.546 174.743 248.176 179.015L247.089 198.676L248.255 202.647C248.936 204.98 248.824 207.474 247.934 209.737L248.202 216.166C248.212 216.43 248.169 216.692 248.076 216.939C247.983 217.186 247.841 217.411 247.659 217.602C247.477 217.792 247.258 217.944 247.016 218.048C246.774 218.152 246.514 218.207 246.25 218.208Z" fill="#3F3D56"/>
<path d="M221.881 234.423C222.357 234.141 222.765 233.758 223.077 233.302C223.39 232.845 223.598 232.325 223.688 231.779C223.778 231.233 223.748 230.673 223.598 230.14C223.449 229.607 223.185 229.113 222.825 228.694L229.579 217.06L222.608 217.454L217.262 228.441C216.598 229.094 216.196 229.968 216.133 230.898C216.07 231.828 216.349 232.749 216.918 233.486C217.488 234.223 218.307 234.726 219.222 234.899C220.136 235.071 221.082 234.902 221.881 234.423Z" fill="#FFB7B7"/>
<path d="M224.606 225.87L218.365 221.001L229.706 198.99L225.457 170.96C225.247 169.574 225.344 168.159 225.741 166.816C226.139 165.472 226.826 164.232 227.756 163.185C228.686 162.137 229.834 161.307 231.12 160.754C232.405 160.201 233.797 159.938 235.196 159.985C237.722 160.071 240.11 161.157 241.838 163.005C243.565 164.852 244.49 167.311 244.41 169.841L243.36 201.757L224.606 225.87Z" fill="#3F3D56"/>
<path d="M226.299 148.117V137.772C226.296 134.095 227.752 130.568 230.347 127.966C232.941 125.365 236.461 123.902 240.132 123.9C243.804 123.897 247.326 125.355 249.923 127.954C252.521 130.552 253.982 134.077 253.984 137.754V137.772C256.424 142.863 254.897 145.284 253.984 148.117C253.983 148.611 253.787 149.084 253.439 149.433C253.09 149.781 252.618 149.978 252.125 149.979H228.158C227.665 149.978 227.193 149.782 226.844 149.433C226.496 149.084 226.299 148.611 226.299 148.117Z" fill="#2F2E41"/>
<path d="M235.603 149.306C241.325 149.306 245.964 144.66 245.964 138.929C245.964 133.198 241.325 128.552 235.603 128.552C229.88 128.552 225.241 133.198 225.241 138.929C225.241 144.66 229.88 149.306 235.603 149.306Z" fill="#FFB7B7"/>
<path d="M246.447 141.65C246.353 141.635 246.259 141.615 246.165 141.6C244.549 141.313 242.932 141.031 241.321 140.739L241.173 137.081L239.22 140.358C234.767 141.838 230.6 141.001 226.681 139.155C225.388 138.54 224.133 137.848 222.924 137.081C223.253 135.058 224.03 133.134 225.197 131.45C226.365 129.766 227.893 128.365 229.671 127.349C229.819 127.265 229.963 127.191 230.111 127.116L230.113 127.116L230.114 127.115L230.115 127.113L230.116 127.112C230.368 126.993 230.625 126.879 230.882 126.775C232.894 125.987 235.088 125.788 237.209 126.2C239.33 126.612 241.291 127.618 242.863 129.101C246.026 132.126 247.45 137.121 246.447 141.65Z" fill="#2F2E41"/>
<path d="M123.876 121.777C127.064 121.777 129.648 119.189 129.648 115.996C129.648 112.803 127.064 110.215 123.876 110.215C120.688 110.215 118.104 112.803 118.104 115.996C118.104 119.189 120.688 121.777 123.876 121.777Z" fill="#CCCCCC"/>
<path d="M200.116 90.1658C199.995 89.8685 199.817 89.598 199.592 89.3696C199.367 89.1411 199.099 88.9594 198.804 88.8347C198.509 88.71 198.192 88.6448 197.872 88.6427C197.551 88.6407 197.234 88.702 196.937 88.823L187.062 92.8382C186.463 93.0827 185.985 93.5556 185.733 94.1528C185.482 94.7501 185.477 95.4229 185.721 96.0233C185.965 96.6238 186.436 97.1029 187.033 97.3553C187.629 97.6077 188.3 97.6127 188.9 97.3693L198.775 93.354C199.374 93.1083 199.852 92.6348 200.103 92.0373C200.354 91.4397 200.359 90.7668 200.116 90.1658Z" fill="white"/>
<path d="M85.1589 58.3329L79.1604 49.5153C78.9214 49.164 78.595 48.8811 78.2134 48.6948C77.8319 48.5084 77.4084 48.4249 76.9848 48.4526C76.2788 48.9417 75.5773 49.4442 74.8891 49.96C74.7331 50.3338 74.6729 50.7407 74.714 51.1438C74.7551 51.5468 74.8962 51.9332 75.1244 52.2677L81.1229 61.0853C81.4873 61.6213 82.0495 61.9903 82.6856 62.1112C83.3218 62.2322 83.9799 62.095 84.5151 61.73C85.0503 61.365 85.4188 60.8021 85.5395 60.165C85.6602 59.5279 85.5233 58.8689 85.1589 58.3329Z" fill="white"/>
<path d="M172.863 49.96C172.175 49.4442 171.473 48.9417 170.767 48.4526C170.344 48.4249 169.92 48.5084 169.539 48.6948C169.157 48.8811 168.831 49.164 168.592 49.5153L162.593 58.3329C162.229 58.8689 162.092 59.5279 162.213 60.165C162.333 60.8021 162.702 61.365 163.237 61.73C163.772 62.095 164.43 62.2322 165.066 62.1112C165.703 61.9903 166.265 61.6213 166.629 61.0853L172.628 52.2677C172.856 51.9332 172.997 51.5468 173.038 51.1438C173.079 50.7407 173.019 50.3338 172.863 49.96Z" fill="white"/>
<path d="M124.098 35.5129C123.451 35.5141 122.83 35.7721 122.372 36.2305C121.915 36.6889 121.657 37.3103 121.656 37.9586V48.6303C121.656 49.279 121.913 49.901 122.371 50.3597C122.829 50.8183 123.45 51.076 124.098 51.076C124.746 51.076 125.367 50.8183 125.825 50.3597C126.283 49.901 126.54 49.279 126.54 48.6303V37.9586C126.539 37.3103 126.281 36.6889 125.824 36.2305C125.366 35.7721 124.745 35.5141 124.098 35.5129Z" fill="white"/>
<path d="M84.1182 15.7608C75.2582 29.7108 61.7398 38.9687 45.0682 45.0506C44.7387 45.2977 44.3639 45.4774 43.9652 45.5794C43.5664 45.6815 43.1514 45.7038 42.744 45.6453C42.3366 45.5867 41.9447 45.4484 41.5907 45.2381C41.2367 45.0279 40.9275 44.7498 40.6807 44.4199C31.6249 32.3108 33.6697 15.0044 45.6215 5.75165C48.5111 3.51853 51.8147 1.88248 55.3408 0.938479C58.8668 -0.00551933 62.545 -0.238665 66.1618 0.252583C69.7785 0.743831 73.2618 1.94968 76.4094 3.80013C79.5571 5.65059 82.3063 8.10878 84.4975 11.032L84.748 11.3669C84.9947 11.6968 85.1742 12.0722 85.276 12.4716C85.3779 12.8709 85.4002 13.2865 85.3418 13.6945C85.2833 14.1025 85.1451 14.495 84.9352 14.8495C84.7253 15.2041 84.4476 15.5137 84.1182 15.7608Z" fill="#E6E6E6"/>
<path d="M163.254 11.032C165.446 8.10877 168.195 5.65058 171.343 3.80013C174.49 1.94968 177.973 0.743832 181.59 0.252584C185.207 -0.238663 188.885 -0.0055242 192.411 0.938474C195.937 1.88247 199.241 3.51852 202.13 5.75164C214.082 15.0044 216.127 32.3108 207.071 44.4199C206.825 44.7498 206.515 45.0278 206.161 45.2381C205.807 45.4483 205.415 45.5867 205.008 45.6453C204.601 45.7038 204.186 45.6815 203.787 45.5794C203.388 45.4774 203.013 45.2977 202.684 45.0506C187.207 39.1165 174.515 28.8475 163.634 15.7608C162.968 15.2618 162.528 14.5185 162.41 13.6945C162.292 12.8705 162.506 12.0332 163.004 11.3669L163.254 11.032Z" fill="#E6E6E6"/>
<path d="M180.708 40.4042C184.877 40.4042 188.257 37.0199 188.257 32.8451C188.257 28.6702 184.877 25.2859 180.708 25.2859C176.54 25.2859 173.16 28.6702 173.16 32.8451C173.16 37.0199 176.54 40.4042 180.708 40.4042Z" fill="#E6E6E6"/>
<path d="M68.8195 39.5148C72.9882 39.5148 76.3676 36.1305 76.3676 31.9557C76.3676 27.7808 72.9882 24.3965 68.8195 24.3965C64.6509 24.3965 61.2715 27.7808 61.2715 31.9557C61.2715 36.1305 64.6509 39.5148 68.8195 39.5148Z" fill="#E6E6E6"/>
<path d="M123.432 22.6179C127.601 22.6179 130.98 19.2335 130.98 15.0587C130.98 10.8839 127.601 7.49951 123.432 7.49951C119.263 7.49951 115.884 10.8839 115.884 15.0587C115.884 19.2335 119.263 22.6179 123.432 22.6179Z" fill="#E6E6E6"/>
</g>
<defs>
<clipPath id="clip0_0_1378">
<rect width="300" height="281" fill="white"/>
</clipPath>
</defs>
</svg>
