<svg width="342" height="263" viewBox="0 0 342 263" fill="none" xmlns="http://www.w3.org/2000/svg">
<g clip-path="url(#clip0_275_2510)">
<path opacity="0.1" d="M3.68115 126.092C9.08154 147.85 20.5041 166.66 38.5552 175.777C76.0812 194.726 160.712 184.953 223.875 173.735C256.548 167.933 285.266 151.921 306.128 129.388L3.68115 126.092Z" fill="#AD63FF"/>
<path opacity="0.1" d="M334.905 23.6716H300.249C298.604 23.6716 297.255 22.401 297.255 20.8484C297.255 19.2959 298.604 18.022 300.249 18.022H306.243C304.595 18.022 303.249 16.7514 303.249 15.1956C303.249 13.6398 304.595 12.3725 306.243 12.3725H301.965C300.317 12.3725 298.968 11.1019 298.968 9.5461C298.968 7.99029 300.317 6.72296 301.965 6.72296H320.053C316.04 4.96295 311.348 3.71182 305.941 3.05384C256.617 -2.91982 239.007 1.03129 232.795 5.0926C225.052 10.2178 216.452 13.7741 207.444 15.5749C177.013 21.4967 120.102 28.621 68.5201 13.306C42.883 5.67927 23.8277 18.5504 12.4082 40.0659H340.924C340.495 33.8135 339.211 28.0376 336.855 22.9844C336.296 23.4337 335.61 23.6755 334.905 23.6716Z" fill="#AD63FF"/>
<path opacity="0.1" d="M0.742903 80.6748C-0.588243 93.3293 -0.135747 106.119 2.08601 118.637L306.361 129.135C314.737 120.079 321.853 109.842 327.502 98.7254L0.742903 80.6748ZM121.087 107.756H115.096C116.744 107.756 118.093 109.029 118.093 110.582C118.093 112.135 116.744 113.405 115.096 113.405H80.4399C78.7952 113.405 77.4459 112.135 77.4459 110.582C77.4459 109.029 78.7952 107.756 80.4399 107.756H86.4341C84.7863 107.756 83.4401 106.485 83.4401 104.932C83.4401 103.38 84.7863 102.106 86.4341 102.106H82.153C80.5052 102.106 79.1559 100.836 79.1559 99.2829C79.1559 97.7304 80.5052 96.4566 82.153 96.4566H116.809C118.457 96.4566 119.803 97.7271 119.803 99.2829C119.803 100.839 118.457 102.106 116.809 102.106H121.087C122.735 102.106 124.081 103.377 124.081 104.932C124.081 106.488 122.735 107.756 121.087 107.756Z" fill="#AD63FF"/>
<path opacity="0.1" d="M340.937 40.2598L8.74264 47.8768C4.7009 57.6751 2.02091 68.7538 0.786621 80.2344H335.117C337.292 73.5175 338.907 66.6171 339.942 59.6102C340.94 52.8651 341.338 46.3404 340.937 40.2598ZM68.234 65.2338H62.2429C63.8907 65.2338 65.24 66.5076 65.24 68.0602C65.24 69.6127 63.8907 70.8865 62.2429 70.8865H27.5865C25.9418 70.8865 24.5925 69.6127 24.5925 68.0602C24.5925 66.5076 25.9418 65.2338 27.5865 65.2338H33.5807C31.9329 65.2338 30.5867 63.9632 30.5867 62.4106C30.5867 60.858 31.9329 59.5842 33.5807 59.5842H29.2996C27.6518 59.5842 26.3025 58.3137 26.3025 56.7611C26.3025 55.2085 27.6518 53.9347 29.2996 53.9347H63.956C65.6038 53.9347 66.95 55.2053 66.95 56.7611C66.95 58.3169 65.6038 59.5842 63.956 59.5842H68.234C69.8818 59.5842 71.228 60.858 71.228 62.4106C71.228 63.9632 69.8818 65.2338 68.234 65.2338Z" fill="#AD63FF"/>
<path opacity="0.1" d="M169.467 253.169C246.217 253.169 308.435 247.202 308.435 239.841C308.435 232.48 246.217 226.513 169.467 226.513C92.7174 226.513 30.4995 232.48 30.4995 239.841C30.4995 247.202 92.7174 253.169 169.467 253.169Z" fill="#AD63FF"/>
<path opacity="0.1" d="M280.292 204.823C280.292 204.823 272.777 207.254 271.639 205.147C271.35 204.612 271.207 203.675 271.157 202.577C272.712 202.33 277.444 201.65 280.006 202.162C280.143 203.666 280.292 204.823 280.292 204.823Z" fill="black"/>
<path opacity="0.1" d="M265.729 245.672C264.824 245.708 259.682 245.672 259.682 245.672C259.607 245.59 259.536 245.503 259.471 245.413C260.786 244.946 263.627 244.246 265.729 245.672Z" fill="black"/>
<path opacity="0.1" d="M280.438 245.672C279.533 245.708 274.391 245.672 274.391 245.672C274.316 245.59 274.245 245.503 274.179 245.413C275.488 244.946 278.33 244.246 280.438 245.672Z" fill="black"/>
<path opacity="0.1" d="M260.627 150.661C259.834 158.589 260.095 174.322 260.26 181.311C259.079 182.033 257.925 182.734 256.937 183.32C256.134 183.764 255.248 184.017 254.341 184.062C254.011 181.949 258.575 160.242 260.627 150.661Z" fill="black"/>
<path opacity="0.1" d="M261.597 146.162C261.575 146.276 261.199 148 260.627 150.661C260.851 148.389 261.162 146.759 261.597 146.162Z" fill="black"/>
<path opacity="0.1" d="M256.203 129.34C255.096 127.259 255.239 124.961 256.492 124.089C256.446 124.112 256.396 124.131 256.349 124.157C254.975 124.954 254.795 127.343 255.933 129.495C257.07 131.648 259.122 132.737 260.497 131.952C260.542 131.925 260.586 131.895 260.627 131.861C259.256 132.51 257.31 131.421 256.203 129.34Z" fill="black"/>
<path d="M252.562 139.323C254.108 139.323 255.36 138.437 255.36 137.345C255.36 136.253 254.108 135.368 252.562 135.368C251.017 135.368 249.764 136.253 249.764 137.345C249.764 138.437 251.017 139.323 252.562 139.323Z" fill="#575A89"/>
<path d="M176 249C233.438 249 280 204.228 280 149C280 93.7715 233.438 49 176 49C118.562 49 72 93.7715 72 149C72 204.228 118.562 249 176 249Z" fill="#AD63FF"/>
<path d="M224.652 204.966C224.652 220.751 200.849 206.315 175.33 206.315C149.811 206.315 124 220.155 124 204.37C124 195.369 132.227 182.851 144.028 173.759C152.92 166.907 163.839 162 174.808 162C186.087 162 197.137 167.312 205.951 174.605C217.075 183.801 224.652 196.157 224.652 204.966Z" fill="#444053"/>
<path d="M205.92 174.605C192.355 172.476 167.821 169.88 144 173.759C152.892 166.907 163.811 162 174.779 162C186.056 162 197.105 167.312 205.92 174.605Z" fill="#F6F8FB"/>
<path opacity="0.05" d="M118.615 76.7822C118.615 76.7822 89.7224 96.0386 89.9587 126.16C90.195 156.281 118.615 76.7822 118.615 76.7822Z" fill="black"/>
<path d="M257.232 22.4396C257.232 22.4396 231.054 20.7963 234.141 39.9198C234.141 39.9198 233.519 43.2972 236.467 44.8336C236.467 44.8336 236.513 43.4172 239.15 43.8969C240.09 44.0607 241.044 44.1086 241.995 44.0395C243.279 43.9485 244.499 43.4226 245.471 42.542C245.471 42.542 252.83 39.3753 255.693 26.8348C255.693 26.8348 257.81 24.0992 257.726 23.3991L253.308 25.3633C253.308 25.3633 254.816 28.6856 253.619 31.4471C253.619 31.4471 253.476 25.4864 252.628 25.6128C252.457 25.642 250.333 26.7635 250.333 26.7635C250.333 26.7635 252.929 32.5524 250.955 36.7563C250.955 36.7563 251.698 29.6255 249.506 27.1816L246.397 29.0745C246.397 29.0745 249.431 35.0514 247.373 39.9295C247.373 39.9295 247.902 32.4487 245.744 29.5348L242.924 31.8264C242.924 31.8264 245.775 37.719 244.037 41.7641C244.037 41.7641 243.81 33.0548 242.315 32.3968C242.315 32.3968 239.849 34.6657 239.473 35.596C239.473 35.596 241.426 39.8712 240.216 42.1271C240.216 42.1271 239.473 36.3252 238.864 36.2928C238.864 36.2928 236.408 40.137 236.15 42.7754C236.15 42.7754 236.259 38.8534 238.267 35.9266C238.267 35.9266 235.892 36.3512 234.508 37.9588C234.508 37.9588 234.891 35.2394 238.861 35.0028C238.861 35.0028 240.891 32.0857 241.435 31.9106C241.435 31.9106 237.471 31.5638 235.068 32.6756C235.068 32.6756 237.182 30.1117 242.159 31.2753L244.958 28.9092C244.958 28.9092 239.741 28.1637 237.527 28.987C237.527 28.987 240.073 26.7181 245.707 28.3712L248.738 26.4815C248.738 26.4815 244.289 25.4832 241.637 25.8333C241.637 25.8333 244.435 24.2612 249.624 25.9661L251.801 24.9516C251.801 24.9516 248.539 24.2839 247.585 24.1802C246.63 24.0765 246.58 23.7977 246.58 23.7977C248.652 23.4467 250.776 23.7037 252.715 24.54C252.715 24.54 257.31 22.7411 257.232 22.4396Z" fill="#AD63FF"/>
<path d="M230.383 13.937C230.383 13.937 218.568 13.1915 219.949 21.8328C219.949 21.8328 219.672 23.3594 220.999 24.053C220.999 24.053 221.018 23.4048 222.212 23.6317C222.636 23.7045 223.067 23.7262 223.496 23.6965C224.077 23.6533 224.628 23.4157 225.069 23.0191C225.069 23.0191 228.393 21.5864 229.686 15.9207C229.686 15.9207 230.644 14.6858 230.619 14.3681L228.623 15.2562C228.623 15.2562 229.307 16.7569 228.769 18.0048C228.769 18.0048 228.704 15.3113 228.321 15.3762C228.244 15.3762 227.283 15.8948 227.283 15.8948C227.283 15.8948 228.458 18.5105 227.572 20.4099C227.572 20.4099 227.908 17.188 226.919 16.0828L225.514 16.9385C225.514 16.9385 226.885 19.6417 225.955 21.8457C225.955 21.8457 226.192 18.4651 225.218 17.1491L223.944 18.1831C223.944 18.1831 225.231 20.8442 224.447 22.6723C224.447 22.6723 224.345 18.7374 223.667 18.4392C223.667 18.4392 222.554 19.4634 222.383 19.8848C222.383 19.8848 223.266 21.8295 222.719 22.8376C222.719 22.8376 222.383 20.2154 222.097 20.2057C222.097 20.2057 220.987 21.9397 220.872 23.1228C220.925 22.0218 221.255 20.9546 221.826 20.0274C221.187 20.1536 220.597 20.4725 220.129 20.9447C220.129 20.9447 220.3 19.7162 222.1 19.6093C222.1 19.6093 223.017 18.2933 223.263 18.2123C223.263 18.2123 221.472 18.0567 220.387 18.5591C220.387 18.5591 221.341 17.3987 223.592 17.9108L224.836 16.8445C224.836 16.8445 222.479 16.5203 221.478 16.8769C221.478 16.8769 222.629 15.8526 225.175 16.6014L226.543 15.7457C226.543 15.7457 224.534 15.2951 223.334 15.4572C223.334 15.4572 224.6 14.7474 226.944 15.5188L227.923 15.0585C227.923 15.0585 226.45 14.7571 226.021 14.7117C225.592 14.6663 225.564 14.5399 225.564 14.5399C226.497 14.3781 227.455 14.4903 228.331 14.864C228.331 14.864 230.417 14.0732 230.383 13.937Z" fill="#AD63FF"/>
<path opacity="0.1" d="M333.627 236.616C338.251 236.616 342 235.955 342 235.141C342 234.326 338.251 233.666 333.627 233.666C329.003 233.666 325.255 234.326 325.255 235.141C325.255 235.955 329.003 236.616 333.627 236.616Z" fill="#AD63FF"/>
<path opacity="0.1" d="M14.5408 261.149C19.1649 261.149 22.9135 260.489 22.9135 259.674C22.9135 258.86 19.1649 258.199 14.5408 258.199C9.91677 258.199 6.16821 258.86 6.16821 259.674C6.16821 260.489 9.91677 261.149 14.5408 261.149Z" fill="#AD63FF"/>
<path opacity="0.1" d="M63.1446 263C67.7687 263 71.5172 262.34 71.5172 261.526C71.5172 260.711 67.7687 260.051 63.1446 260.051C58.5205 260.051 54.772 260.711 54.772 261.526C54.772 262.34 58.5205 263 63.1446 263Z" fill="#AD63FF"/>
<path d="M315.303 253.149C322.207 253.149 327.804 252.163 327.804 250.945C327.804 249.728 322.207 248.741 315.303 248.741C308.398 248.741 302.801 249.728 302.801 250.945C302.801 252.163 308.398 253.149 315.303 253.149Z" fill="#AD63FF"/>
<path d="M320.47 247.344C321.04 246.859 321.457 246.204 321.664 245.468C321.816 244.725 321.511 243.831 320.831 243.558C320.066 243.254 319.248 243.808 318.629 244.366C318.011 244.923 317.299 245.558 316.487 245.442C316.905 245.048 317.217 244.548 317.393 243.99C317.57 243.433 317.605 242.837 317.495 242.262C317.459 242.023 317.362 241.799 317.215 241.614C316.789 241.14 316.021 241.341 315.511 241.714C313.894 242.9 313.443 245.189 313.434 247.25C313.272 246.508 313.409 245.733 313.406 244.981C313.403 244.229 313.201 243.361 312.585 242.962C312.203 242.749 311.775 242.644 311.342 242.657C310.614 242.628 309.806 242.703 309.308 243.257C308.687 243.947 308.851 245.101 309.389 245.85C309.927 246.599 310.742 247.085 311.491 247.607C312.094 247.981 312.608 248.491 312.996 249.101C313.041 249.187 313.079 249.277 313.108 249.37H317.662C318.682 248.83 319.626 248.148 320.47 247.344Z" fill="#AD63FF"/>
<path d="M18.449 220.167C18.449 220.167 20.1558 222.494 17.6593 226.001C15.1627 229.508 13.1045 232.484 13.9284 234.675C13.9284 234.675 17.6935 228.147 20.7683 228.053C23.8431 227.959 21.8191 224.092 18.449 220.167Z" fill="#AD63FF"/>
<path opacity="0.1" d="M18.449 220.167C18.5972 220.392 18.7144 220.637 18.7972 220.896C21.7881 224.559 23.3799 227.978 20.5071 228.063C17.8272 228.144 14.6 233.135 13.8445 234.396C13.8709 234.494 13.902 234.59 13.9378 234.685C13.9378 234.685 17.7028 228.157 20.7776 228.063C23.8525 227.969 21.8192 224.092 18.449 220.167Z" fill="black"/>
<path d="M21.6234 223.132C21.6234 223.952 21.5332 224.617 21.4244 224.617C21.3156 224.617 21.2285 223.969 21.2285 223.132C21.2285 222.296 21.3373 222.698 21.4493 222.698C21.5612 222.698 21.6234 222.312 21.6234 223.132Z" fill="#FFD037"/>
<path d="M22.6991 224.111C22.0089 224.503 21.4089 224.74 21.356 224.639C21.3031 224.539 21.8224 224.144 22.5126 223.751C23.2028 223.359 22.9292 223.644 22.982 223.751C23.0349 223.858 23.4017 223.719 22.6991 224.111Z" fill="#FFD037"/>
<path d="M9.42668 220.167C9.42668 220.167 7.71982 222.494 10.2133 226.001C12.7067 229.508 14.768 232.484 13.9441 234.675C13.9441 234.675 10.176 228.147 7.10423 228.053C4.0325 227.959 6.05337 224.092 9.42668 220.167Z" fill="#AD63FF"/>
<path opacity="0.1" d="M9.42654 220.167C9.27696 220.391 9.15965 220.637 9.07833 220.896C6.08744 224.559 4.49251 227.978 7.36836 228.063C10.0452 228.144 13.2755 233.135 14.0279 234.396C14.0026 234.494 13.9725 234.59 13.9378 234.685C13.9378 234.685 10.1696 228.157 7.09788 228.063C4.02615 227.969 6.05324 224.092 9.42654 220.167Z" fill="black"/>
<path d="M6.2522 223.132C6.2522 223.952 6.33925 224.617 6.44807 224.617C6.55688 224.617 6.64394 223.969 6.64394 223.132C6.64394 222.296 6.53512 222.698 6.4263 222.698C6.31749 222.698 6.2522 222.312 6.2522 223.132Z" fill="#FFD037"/>
<path d="M5.16111 224.111C5.85131 224.503 6.45447 224.74 6.50732 224.639C6.56017 224.539 6.04097 224.144 5.35076 223.751C4.66055 223.359 4.93104 223.644 4.8813 223.751C4.83155 223.858 4.4709 223.719 5.16111 224.111Z" fill="#FFD037"/>
<path d="M6.79639 234.38C6.79639 234.38 11.5719 234.227 13.0145 233.158C14.457 232.088 20.3611 230.814 20.7186 232.509C21.0762 234.205 27.8943 241.034 22.5032 241.079C17.1122 241.125 9.97693 240.201 8.54056 239.29C7.10418 238.379 6.79639 234.38 6.79639 234.38Z" fill="#A8A8A8"/>
<path opacity="0.2" d="M22.5934 240.499C17.2023 240.544 10.0671 239.621 8.63072 238.71C7.53634 238.016 7.10107 235.524 6.95495 234.373H6.79639C6.79639 234.373 7.10729 238.389 8.53434 239.3C9.96139 240.211 17.1059 241.134 22.497 241.089C24.0515 241.089 24.5894 240.496 24.5614 239.643C24.3438 240.165 23.7531 240.489 22.5934 240.499Z" fill="black"/>
<path d="M139.429 128.245C141.254 128.138 149.844 127.464 155.3 124.219C156.177 123.682 157.167 123.378 158.182 123.334C159.917 123.282 161.913 124.038 160.635 128.264C158.565 135.178 146.542 142.957 139.08 142.526C131.905 142.111 123.392 139.096 117.771 128.497C117.233 127.478 116.967 126.326 117.003 125.162C117.069 123.023 117.815 120.342 121.667 123.331C126.871 127.366 136.746 128.131 138.726 128.245C138.96 128.258 139.195 128.258 139.429 128.245Z" fill="#444053"/>
<path d="M212.429 128.245C214.254 128.138 222.844 127.464 228.3 124.219C229.177 123.682 230.167 123.378 231.182 123.334C232.917 123.282 234.913 124.038 233.635 128.264C231.565 135.178 219.542 142.957 212.08 142.526C204.905 142.111 196.392 139.096 190.771 128.497C190.233 127.478 189.967 126.326 190.003 125.162C190.069 123.023 190.815 120.342 194.667 123.331C199.871 127.366 209.746 128.131 211.726 128.245C211.96 128.258 212.195 128.258 212.429 128.245Z" fill="#444053"/>
</g>
<defs>
<clipPath id="clip0_275_2510">
<rect width="342" height="263" fill="white"/>
</clipPath>
</defs>
</svg>
