<svg width="28" height="28" viewBox="0 0 28 28" fill="none" xmlns="http://www.w3.org/2000/svg">
<path d="M18.8883 2.3335H9.11165C4.86498 2.3335 2.33331 4.86516 2.33331 9.11183V18.8768C2.33331 23.1352 4.86498 25.6668 9.11165 25.6668H18.8766C23.1233 25.6668 25.655 23.1352 25.655 18.8885V9.11183C25.6666 4.86516 23.135 2.3335 18.8883 2.3335ZM18.6666 14.8752H14.875V18.6668C14.875 19.1452 14.4783 19.5418 14 19.5418C13.5216 19.5418 13.125 19.1452 13.125 18.6668V14.8752H9.33331C8.85498 14.8752 8.45831 14.4785 8.45831 14.0002C8.45831 13.5218 8.85498 13.1252 9.33331 13.1252H13.125V9.3335C13.125 8.85516 13.5216 8.4585 14 8.4585C14.4783 8.4585 14.875 8.85516 14.875 9.3335V13.1252H18.6666C19.145 13.1252 19.5416 13.5218 19.5416 14.0002C19.5416 14.4785 19.145 14.8752 18.6666 14.8752Z" fill="white"/>
</svg>
