<svg width="29" height="28" viewBox="0 0 29 28" fill="none" xmlns="http://www.w3.org/2000/svg">
<path d="M23.88 7.95663L17.16 3.25497C15.3283 1.97163 12.5167 2.04163 10.755 3.40663L4.91 7.9683C3.74334 8.8783 2.82167 10.745 2.82167 12.215V20.265C2.82167 23.24 5.23667 25.6666 8.21167 25.6666H20.7883C23.7633 25.6666 26.1783 23.2516 26.1783 20.2766V12.3666C26.1783 10.7916 25.1633 8.85497 23.88 7.95663ZM15.375 21C15.375 21.4783 14.9783 21.875 14.5 21.875C14.0217 21.875 13.625 21.4783 13.625 21V17.5C13.625 17.0216 14.0217 16.625 14.5 16.625C14.9783 16.625 15.375 17.0216 15.375 17.5V21Z" fill="white"/>
</svg>
