<svg width="36" height="36" viewBox="0 0 36 36" fill="none" xmlns="http://www.w3.org/2000/svg">
<path d="M4.155 15C3.51 15 3 14.49 3 13.845V10.38C3 6.315 6.315 3 10.38 3H13.845C14.49 3 15 3.51 15 4.155C15 4.8 14.49 5.31 13.845 5.31H10.38C7.575 5.31 5.31 7.59 5.31 10.38V13.845C5.31 14.49 4.785 15 4.155 15Z" fill="white"/>
<path d="M31.845 15C31.215 15 30.69 14.49 30.69 13.845V10.38C30.69 7.575 28.41 5.31 25.62 5.31H22.155C21.51 5.31 21 4.785 21 4.155C21 3.525 21.51 3 22.155 3H25.62C29.685 3 33 6.315 33 10.38V13.845C33 14.49 32.49 15 31.845 15Z" fill="white"/>
<path d="M25.62 33H23.535C22.905 33 22.38 32.49 22.38 31.845C22.38 31.215 22.89 30.69 23.535 30.69H25.62C28.425 30.69 30.69 28.41 30.69 25.62V23.55C30.69 22.92 31.2 22.395 31.845 22.395C32.475 22.395 33 22.905 33 23.55V25.62C33 29.685 29.685 33 25.62 33Z" fill="white"/>
<path d="M13.845 33H10.38C6.315 33 3 29.685 3 25.62V22.155C3 21.51 3.51 21 4.155 21C4.8 21 5.31 21.51 5.31 22.155V25.62C5.31 28.425 7.59 30.69 10.38 30.69H13.845C14.475 30.69 15 31.2 15 31.845C15 32.49 14.49 33 13.845 33Z" fill="white"/>
<path d="M27.69 16.8452H25.65H10.35H8.31C7.665 16.8452 7.155 17.3702 7.155 18.0002C7.155 18.6302 7.665 19.1552 8.31 19.1552H10.35H25.65H27.69C28.335 19.1552 28.845 18.6302 28.845 18.0002C28.845 17.3702 28.335 16.8452 27.69 16.8452Z" fill="white"/>
<path d="M10.35 20.9102V21.4052C10.35 23.8952 12.36 25.9052 14.85 25.9052H21.15C23.64 25.9052 25.65 23.8952 25.65 21.4052V20.9102C25.65 20.7302 25.515 20.5952 25.335 20.5952H10.665C10.485 20.5952 10.35 20.7302 10.35 20.9102Z" fill="white"/>
<path d="M10.35 15.0902V14.5952C10.35 12.1052 12.36 10.0952 14.85 10.0952H21.15C23.64 10.0952 25.65 12.1052 25.65 14.5952V15.0902C25.65 15.2702 25.515 15.4052 25.335 15.4052H10.665C10.485 15.4052 10.35 15.2702 10.35 15.0902Z" fill="white"/>
</svg>
