<svg width="130" height="90" viewBox="0 0 130 90" fill="none" xmlns="http://www.w3.org/2000/svg">
<path d="M149 -10C149 0.49659 141.006 10.2319 127.562 17.4019C114.162 24.549 95.5798 29 75 29C54.4202 29 35.8384 24.549 22.4376 17.4019C8.99384 10.2319 1 0.49659 1 -10C1 -20.4966 8.99384 -30.2319 22.4376 -37.4019C35.8384 -44.549 54.4202 -49 75 -49C95.5798 -49 114.162 -44.549 127.562 -37.4019C141.006 -30.2319 149 -20.4966 149 -10Z" stroke="#151419" stroke-width="2"/>
<path d="M149 10C149 20.4966 141.006 30.2319 127.562 37.4019C114.162 44.549 95.5798 49 75 49C54.4202 49 35.8384 44.549 22.4376 37.4019C8.99384 30.2319 1 20.4966 1 10C1 -0.49659 8.99384 -10.2319 22.4376 -17.4019C35.8384 -24.549 54.4202 -29 75 -29C95.5798 -29 114.162 -24.549 127.562 -17.4019C141.006 -10.2319 149 -0.49659 149 10Z" stroke="#151419" stroke-width="2"/>
<path d="M149 30C149 40.4966 141.006 50.2319 127.562 57.4019C114.162 64.549 95.5798 69 75 69C54.4202 69 35.8384 64.549 22.4376 57.4019C8.99384 50.2319 1 40.4966 1 30C1 19.5034 8.99384 9.76808 22.4376 2.59808C35.8384 -4.549 54.4202 -9 75 -9C95.5798 -9 114.162 -4.549 127.562 2.59808C141.006 9.76808 149 19.5034 149 30Z" stroke="#151419" stroke-width="2"/>
<path d="M149 50C149 60.4966 141.006 70.2319 127.562 77.4019C114.162 84.549 95.5798 89 75 89C54.4202 89 35.8384 84.549 22.4376 77.4019C8.99384 70.2319 1 60.4966 1 50C1 39.5034 8.99384 29.7681 22.4376 22.5981C35.8384 15.451 54.4202 11 75 11C95.5798 11 114.162 15.451 127.562 22.5981C141.006 29.7681 149 39.5034 149 50Z" stroke="#151419" stroke-width="2"/>
</svg>
