<svg width="163" height="131" viewBox="0 0 163 131" fill="none" xmlns="http://www.w3.org/2000/svg">
<path d="M161.859 79.0378C152.769 84.2861 140.341 82.2309 127.409 74.1733C114.52 66.1414 101.374 52.2745 91.084 34.4519C80.7941 16.6293 75.3579 -1.68858 74.847 -16.8675C74.3345 -32.0951 78.7687 -43.8857 87.859 -49.134C96.9493 -54.3823 109.377 -52.3271 122.309 -44.2694C135.198 -36.2376 148.344 -22.3707 158.634 -4.5481C168.924 13.2745 174.36 31.5924 174.871 46.7713C175.383 61.999 170.949 73.7895 161.859 79.0378Z" stroke="#151419" stroke-width="2"/>
<path d="M144.859 89.0378C135.769 94.2861 123.341 92.2309 110.409 84.1733C97.5195 76.1414 84.3739 62.2745 74.084 44.4519C63.7941 26.6293 58.3579 8.31142 57.847 -6.86753C57.3345 -22.0951 61.7687 -33.8857 70.859 -39.134C79.9493 -44.3823 92.3773 -42.3271 105.309 -34.2694C118.198 -26.2376 131.344 -12.3707 141.634 5.4519C151.924 23.2745 157.36 41.5924 157.871 56.7713C158.383 71.999 153.949 83.7895 144.859 89.0378Z" stroke="#151419" stroke-width="2"/>
<path d="M126.859 99.0378C117.769 104.286 105.341 102.231 92.4094 94.1733C79.5195 86.1414 66.3739 72.2745 56.084 54.4519C45.7941 36.6293 40.3579 18.3114 39.847 3.13247C39.3345 -12.0951 43.7687 -23.8857 52.859 -29.134C61.9493 -34.3823 74.3773 -32.3271 87.3085 -24.2694C100.198 -16.2376 113.344 -2.3707 123.634 15.4519C133.924 33.2745 139.36 51.5924 139.871 66.7713C140.383 81.999 135.949 93.7895 126.859 99.0378Z" stroke="#151419" stroke-width="2"/>
<path d="M109.859 109.038C100.769 114.286 88.3407 112.231 75.4094 104.173C62.5195 96.1414 49.3739 82.2745 39.084 64.4519C28.7941 46.6293 23.3579 28.3114 22.847 13.1325C22.3345 -2.09515 26.7687 -13.8857 35.859 -19.134C44.9493 -24.3823 57.3773 -22.3271 70.3085 -14.2694C83.1985 -6.23758 96.3441 7.6293 106.634 25.4519C116.924 43.2745 122.36 61.5924 122.871 76.7713C123.383 91.999 118.949 103.789 109.859 109.038Z" stroke="#151419" stroke-width="2"/>
</svg>
