<svg width="100" height="147" viewBox="0 0 100 147" fill="none" xmlns="http://www.w3.org/2000/svg">
<path d="M130.995 12.9808C134.861 19.6776 133.352 28.904 127.288 38.5958C121.251 48.2453 110.829 58.1096 97.4304 65.8455C84.0315 73.5814 70.2779 77.6746 58.9025 78.0783C47.4773 78.4839 38.7325 75.1776 34.866 68.4808C30.9996 61.7839 32.5087 52.5575 38.5725 42.8658C44.6099 33.2162 55.0315 23.3519 68.4304 15.616C81.8294 7.88013 95.5829 3.78697 106.958 3.38319C118.384 2.97765 127.128 6.2839 130.995 12.9808Z" stroke="#151419" stroke-width="2"/>
<path d="M132.994 30.9808C136.861 37.6776 135.352 46.904 129.288 56.5958C123.251 66.2453 112.829 76.1096 99.43 83.8455C86.0311 91.5814 72.2775 95.6746 60.9021 96.0783C49.4769 96.4839 40.7321 93.1776 36.8656 86.4808C32.9992 79.7839 34.5083 70.5575 40.5721 60.8658C46.6095 51.2162 57.0311 41.3519 70.43 33.616C83.829 25.8801 97.5825 21.787 108.958 21.3832C120.383 20.9776 129.128 24.2839 132.994 30.9808Z" stroke="#151419" stroke-width="2"/>
<path d="M133.994 47.9808C137.861 54.6776 136.352 63.904 130.288 73.5958C124.251 83.2453 113.829 93.1096 100.43 100.845C87.0311 108.581 73.2775 112.675 61.9021 113.078C50.4769 113.484 41.7321 110.178 37.8656 103.481C33.9992 96.7839 35.5083 87.5575 41.5721 77.8658C47.6095 68.2162 58.0311 58.3519 71.43 50.616C84.829 42.8801 98.5825 38.787 109.958 38.3832C121.383 37.9776 130.128 41.2839 133.994 47.9808Z" stroke="#151419" stroke-width="2"/>
<path d="M135.994 64.9808C139.861 71.6776 138.352 80.904 132.288 90.5958C126.251 100.245 115.829 110.11 102.43 117.845C89.0311 125.581 75.2775 129.675 63.9021 130.078C52.4769 130.484 43.7321 127.178 39.8656 120.481C35.9992 113.784 37.5083 104.558 43.5721 94.8658C49.6095 85.2162 60.0311 75.3519 73.43 67.616C86.829 59.8801 100.583 55.787 111.958 55.3832C123.383 54.9776 132.128 58.2839 135.994 64.9808Z" stroke="#151419" stroke-width="2"/>
</svg>
