<svg width="136" height="137" viewBox="0 0 136 137" fill="none" xmlns="http://www.w3.org/2000/svg">
<path d="M90 19.6604C85.3158 25.3739 94.1361 35.0009 85.2467 37L85.979 36.4815C91.3449 31.8082 80.1294 21.9171 85.4954 17.2438C86.3291 16.5583 87.0448 15.8051 87.6274 15" fill="#2F2E41"/>
<path d="M128.912 102.702C129.049 102.127 129.026 101.535 128.846 100.968C128.665 100.4 128.331 99.8716 127.867 99.4187C127.402 98.9657 126.819 98.5995 126.159 98.3459C125.498 98.0922 124.776 97.9573 124.043 97.9506L113.716 74L108 79.8163L118.918 102.195C118.986 103.179 119.503 104.109 120.372 104.809C121.241 105.509 122.402 105.93 123.633 105.992C124.865 106.054 126.083 105.754 127.056 105.147C128.028 104.541 128.689 103.671 128.912 102.702Z" fill="#FFB8B8"/>
<path d="M84.0012 46.0959C84.0012 46.0959 83.6819 37.6627 93.3337 42.4937C102.985 47.3247 124 92.5793 124 92.5793L113.542 97L89.8019 55.5869L84.0012 46.0959Z" fill="#AD63FF"/>
<path d="M80.8468 33L66.445 34.0404L64.1249 39.6575C64.1249 39.6575 52.0725 44.8778 54.7412 47.2494C57.41 49.6211 54.1445 65.6037 54.1445 65.6037L54.882 78.5771C54.882 78.5771 54.0897 87.5654 51.7187 89.6363C49.3477 91.7072 43.1447 96.7854 47.5276 94.3559C62.8957 85.8372 89.7574 93.0252 89.7574 93.0252L85.92 74.4879C85.92 74.4879 94.6361 44.1379 91.1964 41.5748C87.7567 39.0116 84.5112 38.6876 84.5112 38.6876L80.8468 33Z" fill="#AD63FF"/>
<path d="M5.82627 91.927C6.52649 91.8196 7.18961 91.5871 7.76891 91.2458C8.34822 90.9045 8.82961 90.4627 9.1792 89.9517C9.52879 89.4406 9.73806 88.8726 9.79228 88.2877C9.8465 87.7028 9.74434 87.1152 9.493 86.5663L33 70.1414L24.3869 68L2.87055 84.2934C1.77896 84.7023 0.907398 85.4267 0.421014 86.3294C-0.0653701 87.2321 -0.132777 88.2505 0.231553 89.1914C0.595884 90.1323 1.36664 90.9305 2.39779 91.4347C3.42893 91.9389 4.64881 92.114 5.82627 91.927Z" fill="#FFB8B8"/>
<path d="M67.0175 49.5378C67.0175 49.5378 71.7599 41.8355 60.4067 43.1512C49.0534 44.4669 6 79.4877 6 79.4877L13.205 87L56.7172 56.4269L67.0175 49.5378Z" fill="#AD63FF"/>
<path d="M48.3373 36.4582L3.01664 82.2275C2.23262 83.0219 1.88007 84.0289 2.03624 85.0278C2.19241 86.0267 2.84456 86.9361 3.84978 87.5567C14.3744 107.701 45.8613 122.639 82.9011 136.198C83.9085 136.816 85.1861 137.095 86.4536 136.971C87.721 136.848 88.8747 136.334 89.6615 135.541L134.982 89.7715C135.767 88.9774 136.12 87.9702 135.964 86.9711C135.808 85.9719 135.155 85.0625 134.149 84.4423C103.066 70.6066 76.3495 54.5767 55.0977 35.8014C54.09 35.1834 52.8125 34.9055 51.5453 35.0286C50.2781 35.1517 49.1245 35.6658 48.3373 36.4582Z" fill="#E6E6E6"/>
<path d="M132.419 88.6558L118.554 102.514C110.085 110.929 97.6913 116.387 84.0812 117.696C70.4711 119.004 56.7503 116.058 45.9158 109.499L7.06047 85.8356C6.48487 85.4849 6.11106 84.9704 6.02104 84.405C5.93102 83.8395 6.13215 83.2693 6.58031 82.8194L50.5948 38.8242C51.0453 38.3757 51.7055 38.0851 52.4304 38.0159C53.1553 37.9468 53.8857 38.1048 54.4615 38.4553C74.1166 58.2578 100.427 73.6679 131.943 85.6421C132.517 85.9929 132.89 86.5072 132.979 87.0722C133.069 87.6371 132.867 88.2067 132.419 88.6558Z" fill="white"/>
<path d="M47.6876 61.7987L38.6313 70.5726C38.3909 70.805 38.0384 70.9557 37.6512 70.9917C37.264 71.0277 36.8737 70.9459 36.5662 70.7644C36.2587 70.5828 36.059 70.3164 36.0111 70.0236C35.9632 69.7308 36.071 69.4356 36.3108 69.2029L45.3671 60.429C45.486 60.3136 45.6337 60.2171 45.802 60.1449C45.9702 60.0727 46.1555 60.0264 46.3475 60.0084C46.5394 59.9905 46.7341 60.0013 46.9205 60.0403C47.1069 60.0793 47.2813 60.1457 47.4338 60.2356C47.5862 60.3256 47.7138 60.4375 47.809 60.5647C47.9043 60.692 47.9655 60.8322 47.989 60.9774C48.0126 61.1226 47.9981 61.2698 47.9464 61.4107C47.8947 61.5516 47.8067 61.6835 47.6876 61.7987Z" fill="#CCCCCC"/>
<path d="M64.6846 53.9253L44.6512 74.5419C44.5314 74.6651 44.3826 74.7683 44.2132 74.8453C44.0438 74.9224 43.8571 74.9719 43.6639 74.9911C43.4707 75.0102 43.2746 74.9986 43.087 74.9568C42.8994 74.9151 42.7238 74.8441 42.5703 74.7479C42.4169 74.6516 42.2885 74.5321 42.1925 74.396C42.0966 74.2599 42.0349 74.11 42.0111 73.9547C41.9873 73.7995 42.0018 73.6421 42.0537 73.4913C42.1057 73.3406 42.1941 73.1996 42.3139 73.0763L62.3472 52.4597C62.4669 52.3361 62.6157 52.2327 62.7852 52.1554C62.9546 52.0781 63.1414 52.0283 63.3349 52.0091C63.5283 51.9898 63.7245 52.0013 63.9124 52.043C64.1002 52.0847 64.276 52.1558 64.4297 52.2521C64.5833 52.3485 64.7118 52.4682 64.8078 52.6045C64.9038 52.7407 64.9653 52.8908 64.989 53.0463C65.0127 53.2017 64.998 53.3593 64.9458 53.5101C64.8935 53.6609 64.8048 53.802 64.6846 53.9253Z" fill="#CCCCCC"/>
<path d="M31 88C36.5229 88 41 84.6421 41 80.5C41 76.3579 36.5229 73 31 73C25.4772 73 21 76.3579 21 80.5C21 84.6421 25.4772 88 31 88Z" fill="#AD63FF"/>
<path d="M65.7836 69.7909L41.5212 94.6478C41.268 94.854 40.9288 94.9784 40.5682 94.9974C40.2076 95.0165 39.8509 94.9287 39.566 94.7509C39.2812 94.5731 39.0881 94.3176 39.0236 94.0333C38.9591 93.7489 39.0278 93.4556 39.2164 93.2091L63.4788 68.3522C63.732 68.146 64.0712 68.0216 64.4318 68.0026C64.7924 67.9835 65.1491 68.0713 65.434 68.2491C65.7188 68.4269 65.9119 68.6823 65.9764 68.9667C66.0409 69.251 65.9722 69.5444 65.7836 69.7909Z" fill="#CCCCCC"/>
<path d="M81.7812 64.7502L47.5487 98.6558C47.2927 98.8573 46.9498 98.9789 46.5853 98.9975C46.2208 99.0161 45.8602 98.9303 45.5722 98.7566C45.2842 98.5828 45.0891 98.3332 45.0239 98.0553C44.9587 97.7774 45.0281 97.4907 45.2188 97.2498L79.4513 63.3442C79.7073 63.1427 80.0502 63.0211 80.4147 63.0025C80.7792 62.9839 81.1398 63.0697 81.4278 63.2435C81.7158 63.4172 81.9109 63.6669 81.9761 63.9447C82.0413 64.2226 81.9719 64.5093 81.7812 64.7502Z" fill="#CCCCCC"/>
<path d="M80.7836 79.7246L56.5212 103.661C56.268 103.859 55.9288 103.979 55.5682 103.998C55.2076 104.016 54.8509 103.931 54.566 103.76C54.2812 103.589 54.0881 103.343 54.0236 103.069C53.9591 102.795 54.0278 102.513 54.2164 102.275L78.4788 78.3392C78.732 78.1406 79.0712 78.0208 79.4318 78.0025C79.7924 77.9841 80.1491 78.0687 80.434 78.2399C80.7188 78.4111 80.9119 78.6571 80.9764 78.9309C81.0409 79.2047 80.9722 79.4872 80.7836 79.7246Z" fill="#CCCCCC"/>
<path d="M112.784 82.7246L88.5212 106.661C88.268 106.859 87.9288 106.979 87.5682 106.998C87.2076 107.016 86.8509 106.931 86.566 106.76C86.2812 106.589 86.0881 106.343 86.0236 106.069C85.9591 105.795 86.0278 105.513 86.2164 105.275L110.479 81.3392C110.732 81.1406 111.071 81.0208 111.432 81.0025C111.792 80.9841 112.149 81.0687 112.434 81.2399C112.719 81.4111 112.912 81.6571 112.976 81.9309C113.041 82.2047 112.972 82.4872 112.784 82.7246Z" fill="#AD63FF"/>
<path d="M96.7812 74.7016L62.5487 107.665C62.2927 107.861 61.9498 107.98 61.5853 107.998C61.2208 108.016 60.8601 107.932 60.5722 107.763C60.2842 107.594 60.0891 107.352 60.0239 107.082C59.9587 106.811 60.0281 106.533 60.2188 106.298L94.4514 73.3347C94.7073 73.1387 95.0502 73.0205 95.4147 73.0024C95.7793 72.9844 96.1399 73.0677 96.4278 73.2367C96.7158 73.4056 96.9109 73.6483 96.9761 73.9185C97.0413 74.1887 96.9719 74.4674 96.7812 74.7016Z" fill="#CCCCCC"/>
<path d="M57 18.998C56.9991 20.7982 57.5809 22.5711 58.6942 24.161C59.8076 25.7509 61.4185 27.1091 63.3855 28.1166C65.3525 29.124 67.6155 29.7498 69.9758 29.9391C72.3362 30.1283 74.7217 29.8752 76.9229 29.2019C79.1241 28.5286 81.0738 27.4558 82.6008 26.0776C84.1278 24.6994 85.1854 23.0579 85.6807 21.2973C86.1761 19.5367 86.094 17.7108 85.4418 15.9799C84.7896 14.249 83.5871 12.6659 81.94 11.3697L81.8704 11.317C81.7544 11.2246 81.6384 11.1322 81.5166 11.0442C81.5158 11.0442 81.515 11.0441 81.5143 11.0439C81.5136 11.0437 81.513 11.0434 81.5124 11.043C81.5119 11.0425 81.5115 11.042 81.5112 11.0415C81.5109 11.041 81.5108 11.0404 81.5108 11.0398C81.36 10.9342 81.2092 10.8287 81.0526 10.7275C78.9573 9.3342 76.3771 8.42847 73.6207 8.11873C70.8643 7.80898 68.0486 8.10835 65.5108 8.98099C62.9729 9.85364 60.8205 11.2626 59.311 13.0391C57.8016 14.8156 56.9993 16.8845 57 18.998Z" fill="#2F2E41"/>
<path d="M75 31C81.6274 31 87 26.7467 87 21.5C87 16.2533 81.6274 12 75 12C68.3726 12 63 16.2533 63 21.5C63 26.7467 68.3726 31 75 31Z" fill="#FFB8B8"/>
<path d="M62.3658 23.6341C61.1983 19.4274 62.8859 14.7144 66.5651 11.906C68.4156 10.5214 70.7172 9.58237 73.2052 9.19677C75.6933 8.81117 78.267 8.99469 80.6305 9.72622C80.9309 9.82318 81.2313 9.92928 81.5261 10.04L81.6632 10.0917V10.1077C81.6898 10.1225 81.7164 10.1379 81.743 10.1536C81.7986 10.1953 81.8664 10.2253 81.9403 10.2407C82.9774 10.219 84.0085 10.3728 84.9661 10.6919C85.9237 11.0111 86.7862 11.4884 87.4969 12.0927C89.3482 13.6987 90.22 16.2942 89.9527 19.4009L89.9443 19.4981L89.8408 19.5497C88.4392 20.2598 86.9848 20.901 85.4856 21.4696C80.242 23.4409 75.4549 23.8062 70.854 22.5848L70.7696 22.5625L68.8385 19.9749C68.4421 21.7595 68.6538 27.6793 66.379 28L62.4152 23.8125L62.3658 23.6341Z" fill="#2F2E41"/>
<path d="M37.3606 32.3504C41.3902 30.6901 36.2077 24.664 37.2491 21.1406C38.2905 17.6173 45.7897 16.4841 46.2674 12.8842C46.7452 9.28428 47.869 5.57134 50.8447 2.83969C52.7462 1.09417 55.548 -0.194434 58.4326 0.0242031C59.4086 0.098176 60.3532 0.339209 61.202 0.730884C62.0509 1.12256 62.784 1.65568 63.3514 2.29393C63.9189 2.93218 64.3074 3.66055 64.4904 4.42946C64.6735 5.19837 64.6468 5.98975 64.4122 6.74968C65.2335 5.82064 67.359 6.02199 67.8851 7.07874C68.3529 8.01819 67.3196 9.15613 66.1035 9.23925C64.5123 10.808 62.6902 12.4728 60.1974 12.7892C59.8002 12.8621 59.3875 12.8619 58.9904 12.7887C58.5933 12.7155 58.2223 12.5713 57.9052 12.3669C57.3188 11.9173 57.2732 11.0184 57.9688 10.6824C54.8361 11.6759 52.9993 14.3799 52.5345 17.0452C52.0697 19.7105 52.7128 22.4073 53.1366 25.0769C53.5603 27.7466 53.7429 30.555 52.4317 33.0341C50.8825 35.9632 47.3157 38.0625 43.4232 38.7358C39.5306 39.409 35.3852 38.751 31.8618 37.2686C28.3384 35.786 25.4002 33.5228 23 30.9854C27.1345 33.3291 32.8546 34.2072 37.3606 32.3504Z" fill="#2F2E41"/>
<path d="M69 21.4485C65.0965 26.9024 72.4468 36.0918 65.0389 38L65.6492 37.5051C70.1208 33.0442 60.7745 23.6027 65.2461 19.1419C65.9409 18.4875 66.5373 17.7685 67.0228 17" fill="#2F2E41"/>
<path d="M63 24C63 24 66.5358 13.9942 81.6925 11.6848C81.7096 11.6805 81.7666 11.6633 81.8406 11.6374C81.8861 11.6158 81.9431 11.5942 82 11.5726C81.8292 11.4992 81.6641 11.4345 81.4933 11.3697L81.4911 11.3694L81.4892 11.3684L81.488 11.367L81.4876 11.3654C81.3395 11.2618 81.1915 11.1582 81.0378 11.0589L80.605 11.0719C80.605 11.0719 65.3971 9.24599 63 24Z" fill="#FD6584"/>
</svg>
