<svg width="257" height="308" viewBox="0 0 257 308" fill="none" xmlns="http://www.w3.org/2000/svg">
<path d="M244.7 281.026L256.008 277.272C257.417 270.92 257.324 264.305 255.736 258C251.192 268.571 237.863 271.161 230.269 279.599C227.92 282.25 226.17 285.42 225.151 288.874C224.131 292.328 223.867 295.978 224.379 299.554L222 308C227.557 307.503 232.944 305.752 237.792 302.866C242.639 299.98 246.832 296.029 250.079 291.285C251.876 288.604 253.343 285.697 254.446 282.633C249.624 282.128 244.7 281.026 244.7 281.026Z" fill="#F2F2F2"/>
<path d="M232.421 265.548L240.922 256.981C239.48 250.691 236.584 244.862 232.486 240C232.923 251.487 222.124 259.956 218.93 270.961C217.959 274.402 217.745 278.025 218.303 281.564C218.861 285.102 220.178 288.464 222.155 291.401L223.621 300C228.371 296.987 232.437 292.938 235.538 288.133C238.639 283.327 240.703 277.879 241.585 272.164C242.05 268.953 242.125 265.694 241.807 262.463C237.286 264.247 232.421 265.548 232.421 265.548Z" fill="#F2F2F2"/>
<path d="M69 237C107.108 237 138 205.212 138 166C138 126.788 107.108 95 69 95C30.8923 95 0 126.788 0 166C0 205.212 30.8923 237 69 237Z" fill="#AD63FF"/>
<path d="M69 191C74.5228 191 79 186.523 79 181C79 175.477 74.5228 171 69 171C63.4772 171 59 175.477 59 181C59 186.523 63.4772 191 69 191Z" fill="#3F3D56"/>
<path d="M68.5 185C70.9853 185 73 182.985 73 180.5C73 178.015 70.9853 176 68.5 176C66.0147 176 64 178.015 64 180.5C64 182.985 66.0147 185 68.5 185Z" fill="#AD63FF"/>
<path d="M87.3177 203H50.6827C47.0551 202.996 43.5773 201.526 41.0122 198.912C38.4471 196.298 37.0042 192.755 37 189.058V171.942C37.0041 168.246 38.447 164.702 41.0121 162.088C43.5772 159.475 47.0551 158.004 50.6827 158H87.3177C90.9452 158.004 94.423 159.475 96.988 162.088C99.553 164.702 100.996 168.246 101 171.942V189.058C100.996 192.755 99.553 196.298 96.9879 198.912C94.4229 201.526 90.9452 202.996 87.3177 203ZM50.6827 159.46C47.4349 159.464 44.3212 160.78 42.0247 163.12C39.7281 165.46 38.4363 168.633 38.4326 171.942V189.058C38.4364 192.368 39.7282 195.54 42.0247 197.88C44.3213 200.22 47.4349 201.537 50.6826 201.54H87.3176C90.5653 201.537 93.679 200.22 95.9755 197.88C98.2719 195.54 99.5637 192.368 99.5673 189.058V171.942C99.5637 168.633 98.272 165.46 95.9755 163.12C93.679 160.78 90.5654 159.464 87.3176 159.46L50.6827 159.46Z" fill="white"/>
<path d="M48.6939 194.19H80.999C82.6758 194.19 84.3362 193.85 85.8854 193.189C87.4345 192.528 88.8421 191.56 90.0278 190.339C91.2135 189.118 92.154 187.669 92.7957 186.074C93.4374 184.479 93.7676 182.769 93.7676 181.043V166.664C93.7651 165.07 93.4797 163.489 92.9254 162C94.5014 163.222 95.7802 164.804 96.6609 166.622C97.5415 168.44 97.9999 170.443 98 172.474V186.853C98 188.58 97.6697 190.289 97.0281 191.884C96.3864 193.479 95.4458 194.929 94.2602 196.149C93.0745 197.37 91.6669 198.339 90.1177 198.999C88.5686 199.66 86.9082 200 85.2314 200H52.9263C50.3373 199.999 47.81 199.186 45.6798 197.671C43.5497 196.156 41.9176 194.01 41 191.517C43.2113 193.251 45.9143 194.19 48.6939 194.19Z" fill="#3F3D56"/>
<path d="M146.998 299L139.546 298.999L136 268L147 268.001L146.998 299Z" fill="#A0616A"/>
<path d="M147 308L123 307.999V307.671C123 304.998 123.984 302.433 125.736 300.543C127.488 298.652 129.864 297.59 132.341 297.59L136.726 294L144.905 297.59L147 297.59L147 308Z" fill="#2F2E41"/>
<path d="M203.001 299L211.132 298.999L215 268L203 268.001L203.001 299Z" fill="#A0616A"/>
<path d="M203 308L227 307.999V307.671C227 304.998 226.016 302.433 224.264 300.543C222.512 298.652 220.136 297.59 217.659 297.59L213.274 294L205.095 297.59L203 297.59L203 308Z" fill="#2F2E41"/>
<path d="M135.015 244.699C135.132 242.896 136.061 232.924 136.061 232.924L138.285 211.778L142.206 155.724L142.462 152.054L163.001 147.97L177.039 141L193.724 146.524L206.716 151.57C206.716 151.57 206.738 153.73 206.838 156.34C206.972 159.756 207.205 163.944 207.761 165.032C208.69 166.956 208.457 177.285 208.457 177.285C208.457 177.285 209.38 198.299 210.542 200.603C211.705 202.907 211.938 207.705 211.588 208.667C211.238 209.629 212.75 234.866 212.75 234.866C212.75 234.866 216.633 279.525 214.197 286.258C211.761 292.992 202.556 288.581 202.556 288.581C202.556 288.581 203.001 286.784 200.331 285.937C197.662 285.09 189.53 221.766 189.53 221.766C189.53 221.766 188.018 208.782 186.627 205.061C185.237 201.34 183.958 190.885 183.958 190.885C183.958 190.885 175.37 173.581 175.259 169.733C175.259 169.733 174.136 166.133 173.074 170.096C172.011 174.059 168.88 183.552 168.88 183.552L165.827 195.211L162.234 212.631L159.909 227.296C159.909 227.296 156.428 246.761 155.871 247.602C155.315 248.443 155.871 266.225 155.871 266.225C155.871 266.225 153.18 281.369 149.375 284.013C145.571 286.657 135.492 284.055 135.492 284.055C135.492 284.055 134.898 246.502 135.015 244.699Z" fill="#2F2E41"/>
<path d="M144.175 101.12L148.729 115.338L143.11 122.27L145.585 124.91L143.759 128.64L139 167.744L165.093 178L173.879 166.583L180.808 178L211 170.354L203.3 120.489V117.228L201.126 110.933V97.6075L206.867 57.9404L189.732 51.7201L181.54 45L178.888 54.451L167.6 52.3702L167.306 45.2697L158.669 53.7269L151.397 55.8765L142.689 57.9404L141.579 60.8149L143.797 60.2403L143.438 97.6368L144.175 101.12Z" fill="#2F2E41"/>
<path d="M136.278 153.229L140.805 109.353L142 91.2942L129.329 89C129.329 89 129.831 101.912 128.172 109.197C126.534 116.386 127.954 152.266 128.055 153.226C127.125 154.059 126.469 155.155 126.174 156.37C125.88 157.585 125.96 158.86 126.405 160.028C126.85 161.196 127.639 162.201 128.667 162.91C129.695 163.619 130.913 163.999 132.162 164C133.41 164.001 134.629 163.622 135.658 162.913C136.686 162.205 137.476 161.201 137.922 160.033C138.368 158.866 138.45 157.591 138.156 156.376C137.863 155.161 137.208 154.064 136.278 153.229Z" fill="#A0616A"/>
<path d="M123.932 118.609L127.379 119.341L139.204 121.862L139.86 122L141.256 116.29L142.875 114.514L145.958 97.8931L146.12 97.028L150.778 86.7854L154 56L142.018 58.2146C141.956 58.278 141.9 58.3472 141.844 58.4164C140.123 60.4234 138.896 63.2148 136.889 66.0234C130.36 75.1645 125.35 97.374 125.546 109.543C125.552 109.739 125.356 109.952 125.12 110.171C124.009 111.223 123.284 112.636 123.068 114.173C122.851 115.71 123.157 117.276 123.932 118.609Z" fill="#2F2E41"/>
<path d="M212.722 153.229L208.195 109.353L207 91.2942L219.671 89C219.671 89 219.169 101.912 220.828 109.197C222.467 116.386 221.046 152.266 220.945 153.226C221.875 154.059 222.531 155.155 222.826 156.37C223.12 157.585 223.04 158.86 222.595 160.028C222.15 161.196 221.361 162.201 220.333 162.91C219.305 163.619 218.087 163.999 216.838 164C215.59 164.001 214.371 163.622 213.342 162.913C212.314 162.205 211.524 161.201 211.078 160.033C210.632 158.866 210.55 157.591 210.844 156.376C211.137 155.161 211.792 154.064 212.722 153.229Z" fill="#A0616A"/>
<path d="M225.06 118.609L221.586 119.341L209.666 121.862L209.005 122L207.598 116.29L205.966 114.514L202.858 97.893L202.695 97.028L198 86.7854L199.073 56L206.83 58.2146C206.892 58.278 206.949 58.3472 207.005 58.4164C208.74 60.4234 209.977 63.2148 211.999 66.0234C218.581 75.1645 223.631 97.3739 223.433 109.543C223.428 109.739 223.625 109.952 223.863 110.171C224.983 111.222 225.713 112.636 225.932 114.173C226.15 115.71 225.842 117.276 225.06 118.609Z" fill="#2F2E41"/>
<path d="M161.886 60.474L167.406 45.2712L181.505 45L186.184 60.474L203 159.122C203 159.122 151.481 174.188 152.004 156.078C152.553 137.037 155.033 111.745 155.033 111.745L161.886 60.474Z" fill="#AD63FF"/>
<path d="M174 41C183.389 41 191 33.3888 191 24C191 14.6112 183.389 7 174 7C164.611 7 157 14.6112 157 24C157 33.3888 164.611 41 174 41Z" fill="#A0616A"/>
<path d="M156.074 11.4435C158.786 8.39076 162.179 2.80279 172.454 0.456258C185.151 -2.44327 191.15 9.41785 187.948 9.61227C197.311 12.5442 191.297 32.5805 188.612 30.9001C188.589 30.8835 188.567 30.8656 188.546 30.8466C187.102 29.7473 185.891 28.3551 184.985 26.7552C184.079 25.1553 183.499 23.3812 183.278 21.5413L182.769 16.8C182.696 20.6577 178.883 21.168 174.988 19.7472C175.218 18.9014 175.658 18.1323 176.263 17.5159C176.869 16.8994 177.619 16.4568 178.441 16.2318C175.725 18.7774 172.276 20.3295 168.624 20.6489C168.815 19.683 169.204 18.7706 169.765 17.973C170.325 17.1754 171.044 16.5111 171.874 16.0247L171.72 15.8684C170.199 17.195 168.452 18.2176 166.57 18.8841C164.422 19.5206 161.849 19.1763 160.378 17.4381C159.982 16.9584 159.683 16.4015 159.498 15.8003C159.816 18.8554 157.835 22.3428 156.296 21.7441C155.015 21.4867 154.269 13.4757 156.074 11.4435Z" fill="#2F2E41"/>
<path d="M69.043 128C62.2928 128 56.3595 131.114 53 135.788C56.5914 133.125 60.9273 131.707 65.369 131.744C75.8219 131.744 84.326 139.205 84.326 148.377V156H88V144.633C88 135.461 79.4959 128 69.043 128Z" fill="#3F3D56"/>
<path d="M91 160H47V146.603C47 135.794 56.8692 127 69 127C81.1308 127 91 135.794 91 146.603V160ZM48.4212 158.529H89.5788V146.603C89.5788 136.605 80.3473 128.471 69 128.471C57.6527 128.471 48.4212 136.605 48.4212 146.603V158.529Z" fill="white"/>
<path d="M80.1994 155H57.8006C56.7929 154.999 55.8269 154.577 55.1143 153.828C54.4018 153.078 54.0011 152.062 54 151.002V145.617C54 138.108 60.7291 132 69 132C77.2709 132 84 138.109 84 145.617V151.002C83.9989 152.062 83.5982 153.078 82.8857 153.828C82.1731 154.577 81.2071 154.999 80.1994 155ZM69 133.486C61.5078 133.486 55.4125 138.927 55.4125 145.617V151.002C55.4132 151.668 55.6649 152.307 56.1126 152.778C56.5604 153.249 57.1674 153.514 57.8006 153.514H80.1994C80.8326 153.514 81.4396 153.249 81.8874 152.778C82.3351 152.307 82.5868 151.668 82.5875 151.002V145.617C82.5875 138.927 76.4922 133.486 69 133.486Z" fill="white"/>
</svg>
