<svg width="48" height="48" viewBox="0 0 48 48" fill="none" xmlns="http://www.w3.org/2000/svg">
<rect width="48" height="48" rx="24" fill="#936EE3"/>
<path d="M24.0001 23.4517C20.7801 23.4517 18.1667 26.065 18.1667 29.285C18.1667 30.1483 18.3534 30.965 18.7034 31.6883C18.7967 31.8983 18.9017 32.0967 19.0184 32.2833C20.0217 33.975 21.8767 35.1183 24.0001 35.1183C26.1234 35.1183 27.9784 33.975 28.9817 32.2833C29.0984 32.0967 29.2034 31.8983 29.2968 31.6883C29.6467 30.965 29.8334 30.1483 29.8334 29.285C29.8334 26.065 27.2201 23.4517 24.0001 23.4517ZM26.4151 28.7833L23.9301 31.0817C23.7667 31.2333 23.5451 31.315 23.3351 31.315C23.1134 31.315 22.8917 31.2333 22.7167 31.0583L21.5617 29.9033C21.2234 29.565 21.2234 29.005 21.5617 28.6667C21.9001 28.3283 22.4601 28.3283 22.7984 28.6667L23.3584 29.2267L25.2251 27.5C25.5867 27.1733 26.1351 27.1967 26.4617 27.5467C26.7884 27.8967 26.7651 28.445 26.4151 28.7833Z" fill="white"/>
<path d="M33.5666 29.915C33.1466 30.2883 32.6916 30.6033 32.2016 30.86C31.7816 31.07 31.3616 30.6617 31.4316 30.195C31.4783 29.8567 31.5016 29.5067 31.5016 29.145C31.5016 24.9683 28.095 21.5617 23.9183 21.5617C19.7416 21.5617 16.335 24.9683 16.335 29.145C16.335 29.6817 16.3933 30.195 16.4983 30.6967C16.58 31.105 16.265 31.5133 15.8566 31.4083C11.2483 30.2883 11.225 23.195 16.3816 22.8333H16.44C12.695 12.415 28.4916 8.25001 30.3 19.1933C35.3516 19.835 37.3933 26.5667 33.5666 29.915Z" fill="white"/>
</svg>
