<svg width="127" height="119" viewBox="0 0 127 119" fill="none" xmlns="http://www.w3.org/2000/svg">
<path d="M109.125 37.1875C109.125 38.2921 110.02 39.1875 111.125 39.1875C112.23 39.1875 113.125 38.2921 113.125 37.1875H109.125ZM87.3125 12.875C86.2079 12.875 85.3125 13.7704 85.3125 14.875C85.3125 15.9796 86.2079 16.875 87.3125 16.875V12.875ZM17.875 81.8125C17.875 80.7079 16.9796 79.8125 15.875 79.8125C14.7704 79.8125 13.875 80.7079 13.875 81.8125H17.875ZM39.6875 106.125C40.7921 106.125 41.6875 105.23 41.6875 104.125C41.6875 103.02 40.7921 102.125 39.6875 102.125V106.125ZM39.6875 16.875C40.7921 16.875 41.6875 15.9796 41.6875 14.875C41.6875 13.7704 40.7921 12.875 39.6875 12.875V16.875ZM13.875 37.1875C13.875 38.2921 14.7704 39.1875 15.875 39.1875C16.9796 39.1875 17.875 38.2921 17.875 37.1875H13.875ZM87.3125 102.125C86.2079 102.125 85.3125 103.02 85.3125 104.125C85.3125 105.23 86.2079 106.125 87.3125 106.125V102.125ZM113.125 81.8125C113.125 80.7079 112.23 79.8125 111.125 79.8125C110.02 79.8125 109.125 80.7079 109.125 81.8125H113.125ZM113.125 37.1875C113.125 23.6395 101.444 12.875 87.3125 12.875V16.875C99.4838 16.875 109.125 26.0898 109.125 37.1875H113.125ZM13.875 81.8125C13.875 95.3605 25.5562 106.125 39.6875 106.125V102.125C27.5162 102.125 17.875 92.9102 17.875 81.8125H13.875ZM39.6875 12.875C25.5562 12.875 13.875 23.6395 13.875 37.1875H17.875C17.875 26.0898 27.5162 16.875 39.6875 16.875V12.875ZM87.3125 106.125C101.444 106.125 113.125 95.3605 113.125 81.8125H109.125C109.125 92.9102 99.4838 102.125 87.3125 102.125V106.125Z" fill="white"/>
<path fill-rule="evenodd" clip-rule="evenodd" d="M38.8057 50.0314C38.8057 51.4555 40.0378 52.61 41.5576 52.61C43.0774 52.61 44.3095 51.4555 44.3095 50.0314V42.2452C44.3095 40.8211 43.0774 39.6667 41.5576 39.6667C40.0378 39.6667 38.8057 40.8211 38.8057 42.2452V50.0314ZM69.8859 42.3969V61.8119C69.8859 65.6592 66.5456 68.7891 62.4396 68.7891H60.0654C58.4562 68.7891 57.1517 67.5668 57.1517 66.0589C57.1517 64.551 58.4562 63.3287 60.0654 63.3287H62.4396C63.3322 63.3287 64.0584 62.6482 64.0584 61.8119V42.3969C64.0584 40.889 65.3629 39.6667 66.9722 39.6667C68.5814 39.6667 69.8859 40.889 69.8859 42.3969ZM83.5854 76.0376C84.6773 77.1453 84.6042 78.8726 83.4221 79.8957C78.1357 84.471 71.2591 86.9907 64.0585 86.9907C56.8579 86.9907 49.9813 84.471 44.695 79.8957C43.5128 78.8726 43.4398 77.1453 44.5317 76.0376C45.6237 74.93 47.4668 74.8615 48.6492 75.8845C52.8555 79.5252 58.328 81.5302 64.0585 81.5302C69.7891 81.5302 75.2616 79.5252 79.4679 75.8845C80.65 74.8615 82.4933 74.9299 83.5854 76.0376ZM89.9589 50.0314V42.2452C89.9589 40.8212 88.7268 39.6667 87.207 39.6667C85.6872 39.6667 84.4551 40.8212 84.4551 42.2452V50.0314C84.4551 51.4555 85.6872 52.61 87.207 52.61C88.7268 52.61 89.9589 51.4555 89.9589 50.0314Z" fill="white"/>
</svg>
