<svg width="109" height="96" viewBox="0 0 109 96" fill="none" xmlns="http://www.w3.org/2000/svg">
<path d="M66.0945 1.4151C58.4249 -0.262369 50.3544 -0.502069 42.5014 0.98441C41.8945 1.09929 41.5087 1.6238 41.6398 2.15594C41.7708 2.68808 42.369 3.02634 42.9759 2.91146C50.4965 1.4879 58.2435 1.72262 65.6124 3.34203C83.2347 7.21474 97.903 18.8322 103.49 34.0077C105.65 39.8765 106.568 46.1257 106.752 52.675C106.767 53.2192 107.283 53.6496 107.903 53.6362C108.524 53.6228 109.015 53.1707 109 52.6265C108.813 45.9873 107.885 39.5774 105.671 33.5148C99.8689 17.6272 84.5381 5.44898 66.0945 1.4151Z" fill="#F2F2F2"/>
<path d="M36.7963 4.39745C37.3949 4.25267 37.7462 3.70988 37.5811 3.18508C37.416 2.66029 36.7969 2.35222 36.1984 2.49699C27.9858 4.48355 16.433 11.3478 9.29331 20.5179C9.29053 20.5214 9.28778 20.525 9.28505 20.5286C3.01592 28.8125 -0.913943 39.2227 0.183263 49.3242C0.184307 49.3339 0.185513 49.3435 0.18688 49.353C0.449835 51.1976 0.891275 53.0387 1.33323 54.8819C2.26408 58.7641 3.19722 62.6559 2.46989 66.6095C2.37101 67.147 2.78776 67.653 3.40071 67.7397C4.01367 67.8264 4.59072 67.4609 4.68959 66.9235C5.44989 62.7907 4.50583 58.7595 3.56159 54.7276C3.1249 52.8629 2.68817 50.9981 2.41997 49.1229C1.38802 39.5777 5.10502 29.6199 11.1544 21.6241C18.0225 12.8059 29.1442 6.24843 36.7963 4.39745Z" fill="#F2F2F2"/>
<path d="M51.5487 6.59977C65.663 5.84405 79.7744 10.8947 89.2514 20.5709C89.6559 20.9839 89.6019 21.6063 89.1309 21.9609C88.6599 22.3156 87.9501 22.2683 87.5456 21.8553C78.5334 12.6536 65.1052 7.84716 51.6789 8.56792C51.6742 8.56818 51.6694 8.5684 51.6646 8.56861C34.6855 9.28898 18.7845 19.3885 12.9358 33.5405C12.7243 34.0523 12.0796 34.3169 11.4958 34.1314C10.9121 33.9459 10.6104 33.3807 10.8219 32.8688C16.9833 17.9603 33.6804 7.36053 51.5487 6.59977Z" fill="#F2F2F2"/>
<path d="M92.6763 24.8773C92.3301 24.4253 91.6317 24.305 91.1162 24.6085C90.6008 24.912 90.4636 25.5245 90.8097 25.9764C96.0635 32.8356 98.2357 40.2998 99.0945 49.1575C99.1471 49.7 99.6913 50.1023 100.31 50.0562C100.929 50.0101 101.387 49.533 101.335 48.9906C100.457 39.9392 98.2171 32.1114 92.6763 24.8773Z" fill="#F2F2F2"/>
<path d="M100.583 53.1756C101.203 53.1416 101.737 53.5546 101.775 54.0979C102.199 60.0418 102.203 66.7667 101.453 71.7364C101.372 72.2761 100.807 72.6558 100.191 72.5844C99.5756 72.5129 99.1427 72.0175 99.2241 71.4779C99.9469 66.6879 99.9508 60.1056 99.5314 54.2209C99.4927 53.6775 99.9636 53.2095 100.583 53.1756Z" fill="#F2F2F2"/>
<path d="M11.2381 38.3149C11.3838 37.7857 11.0127 37.2531 10.4092 37.1253C9.80565 36.9975 9.19826 37.323 9.05254 37.8522C8.2274 40.8487 7.79905 43.927 7.78207 47.0081C7.76458 50.1839 8.43992 53.2838 9.11551 56.3849C9.66817 58.9216 10.221 61.4592 10.3949 64.0398C10.6233 67.4296 9.81014 70.8244 8.40494 74.0554C8.18372 74.564 8.47467 75.1337 9.05479 75.3276C9.63492 75.5216 10.2845 75.2665 10.5058 74.7578C11.9911 71.3426 12.8914 67.6638 12.6394 63.9235C12.4667 61.3606 11.9139 58.8378 11.3613 56.3159C10.6871 53.2387 10.0131 50.1629 10.0304 47.0177C10.0466 44.0899 10.4537 41.1637 11.2381 38.3149Z" fill="#F2F2F2"/>
<path d="M40.7367 16.41C40.9681 16.9152 40.6886 17.4892 40.1124 17.6921C28.4576 21.796 19.7055 31.057 17.9201 41.9777C17.1742 46.5403 17.98 51.0597 18.7857 55.5779C19.2394 58.1224 19.6931 60.6665 19.8695 63.2177C20.2519 68.7495 19.5333 74.8259 15.4274 80.3544C15.0886 80.8106 14.3921 80.9396 13.8718 80.6425C13.3515 80.3454 13.2044 79.7348 13.5432 79.2786C17.2842 74.2415 17.9923 68.6466 17.6252 63.337C17.4462 60.7484 16.9954 58.1749 16.5449 55.603C15.7365 50.9885 14.9291 46.3792 15.6944 41.698C17.6008 30.0375 26.9219 20.2123 39.2745 15.8627C39.8507 15.6598 40.5053 15.9049 40.7367 16.41Z" fill="#F2F2F2"/>
<path d="M80.2027 22.0221C71.0081 14.4711 57.6818 11.8357 45.5705 14.1649C44.9641 14.2816 44.5802 14.8072 44.7133 15.339C44.8463 15.8707 45.4458 16.2072 46.0522 16.0906C57.5208 13.885 70.069 16.401 78.6657 23.4609C85.9115 29.4115 90.1191 38.07 91.2205 47.5168C91.2836 48.0584 91.8355 48.4525 92.4532 48.3972C93.0708 48.3418 93.5203 47.8579 93.4572 47.3163C92.3135 37.5071 87.9283 28.3667 80.2027 22.0221Z" fill="#F2F2F2"/>
<path d="M93.222 52.0107C93.8396 51.9551 94.3917 52.349 94.4551 52.8906C95.5228 62.0055 95.0626 71.8505 93.4509 81.3744C93.3597 81.9129 92.788 82.2847 92.1738 82.2048C91.5597 82.1249 91.1357 81.6236 91.2268 81.0851C92.8162 71.6935 93.2638 62.0158 92.2185 53.092C92.1551 52.5505 92.6043 52.0664 93.222 52.0107Z" fill="#F2F2F2"/>
<path d="M54.0281 20.033C36.8011 20.033 22.8041 32.0838 22.8041 46.9828C22.8041 48.5743 22.9652 50.1337 23.2722 51.6501C23.3807 52.1861 23.9643 52.5434 24.5756 52.4483C25.1869 52.3531 25.5945 51.8414 25.486 51.3054C25.2017 49.9015 25.0525 48.4574 25.0525 46.9828C25.0525 33.2028 38.0081 22.0044 54.0281 22.0044C61.2676 22.0044 67.8821 24.2923 72.959 28.0727C73.4322 28.4251 74.1417 28.3744 74.5436 27.9595C74.9455 27.5445 74.8876 26.9224 74.4144 26.57C68.9435 22.4962 61.8169 20.033 54.0281 20.033Z" fill="#F2F2F2"/>
<path d="M76.9332 30.2453C77.3813 29.8685 78.093 29.8815 78.5227 30.2745C83.484 34.8109 85.0721 41.9407 86.123 47.9241C87.3066 54.6639 87.4873 61.239 87.4873 64.2877C87.4873 64.8321 86.984 65.2734 86.3631 65.2734C85.7423 65.2734 85.2389 64.8321 85.2389 64.2877C85.2389 61.2884 85.0599 54.8245 83.9007 48.2241C82.9252 42.6693 81.5189 35.8624 76.8999 31.639C76.4702 31.2461 76.4851 30.6221 76.9332 30.2453Z" fill="#F2F2F2"/>
<path d="M87.2019 69.9329C87.2512 69.3902 86.7895 68.9152 86.1706 68.8719C85.5517 68.8287 85.01 69.2335 84.9606 69.7762C84.4085 75.848 83.6871 81.9132 82.2233 87.5159C82.0846 88.0466 82.4629 88.5753 83.0681 88.6969C83.6733 88.8184 84.2763 88.4868 84.4149 87.9561C85.9173 82.2058 86.6483 76.0209 87.2019 69.9329Z" fill="#F2F2F2"/>
<path d="M25.0818 55.278C25.6909 55.1728 26.282 55.5206 26.402 56.0547C28.7789 66.6386 27.1369 76.2532 20.8422 84.6752C20.5019 85.1306 19.8051 85.2578 19.2858 84.9594C18.7665 84.661 18.6214 84.05 18.9617 83.5946C24.8843 75.6704 26.4782 66.5977 24.1959 56.4356C24.076 55.9015 24.4726 55.3832 25.0818 55.278Z" fill="#F2F2F2"/>
<path d="M54.0281 26.4466C42.8455 26.4466 31.8753 34.0365 30.7555 43.5756C30.2653 47.7517 30.954 51.8653 31.6429 55.9805C32.2444 59.5739 32.8462 63.1686 32.6635 66.8072C32.2453 75.1348 29.4587 82.0088 24.6705 87.6706C24.3007 88.1079 24.4052 88.7252 24.9039 89.0495C25.4027 89.3738 26.1067 89.2821 26.4766 88.8448C31.555 82.8399 34.4736 75.579 34.9097 66.8939C35.0916 63.2717 34.488 59.6885 33.8848 56.1076C33.195 52.0127 32.5057 47.921 32.9921 43.7774C33.9758 35.3975 43.8128 28.418 54.0281 28.418C58.7926 28.418 71.1201 30.6801 75.0414 41.8807C77.4988 48.8997 78.169 58.3988 77.5738 67.6273C76.9787 76.8546 75.1273 85.68 72.6378 91.3392C72.4144 91.8471 72.7028 92.4177 73.2821 92.6136C73.8614 92.8095 74.5121 92.5566 74.7356 92.0487C77.3401 86.1279 79.2162 77.079 79.8186 67.7386C80.4209 58.3994 79.7588 48.6373 77.1908 41.3022C72.838 28.8691 59.1931 26.4466 54.0281 26.4466Z" fill="#F2F2F2"/>
<path d="M36.7276 84.6767C37.2477 84.9742 37.3943 85.5849 37.0551 86.0409C36.3579 86.9781 35.7447 87.9586 35.1314 88.9392C34.5181 89.9198 33.9048 90.9006 33.2075 91.8379C32.8683 92.2939 32.1718 92.4224 31.6517 92.125C31.1317 91.8276 30.9851 91.2169 31.3243 90.7609C32.0214 89.8237 32.6347 88.8432 33.2479 87.8626C33.8612 86.882 34.4746 85.9012 35.1718 84.9639C35.511 84.5079 36.2076 84.3793 36.7276 84.6767Z" fill="#F2F2F2"/>
<path d="M46.3537 36.6788C46.8698 36.3761 47.0084 35.7639 46.6632 35.3114C46.318 34.8589 45.6198 34.7375 45.1037 35.0401C40.6521 37.6509 37.9209 41.241 37.9209 46.5003C37.9209 49.632 38.5536 52.1918 39.2026 54.8173C40.1737 58.7462 40.8324 62.6665 40.714 66.702C40.5703 71.6023 39.4768 76.0802 37.3748 80.3459C37.1286 80.8457 37.391 81.4258 37.9609 81.6418C38.5309 81.8577 39.1926 81.6276 39.4388 81.1278C41.6613 76.6176 42.811 71.8899 42.9617 66.7527C43.0847 62.5593 42.4077 58.4838 41.4005 54.4004C40.75 51.7635 40.1693 49.4091 40.1693 46.5003C40.1693 41.9941 42.4301 38.9799 46.3537 36.6788Z" fill="#F2F2F2"/>
<path d="M50.7415 33.2154C55.4065 32.3815 60.4266 33.412 64.1216 36.0343C70.7217 40.7183 71.5994 49.2604 72.3107 56.1824L72.347 56.535C73.2662 65.4577 72.214 74.1244 70.0945 82.8279C69.9649 83.3603 69.3676 83.6998 68.7604 83.5861C68.1532 83.4724 67.7661 82.9487 67.8957 82.4163C69.9834 73.8432 71.0009 65.3828 70.1077 56.7124C70.0781 56.4253 70.0487 56.1342 70.019 55.8396L70.0185 55.8353C69.3867 49.58 68.5954 41.7455 62.7071 37.5667C59.548 35.3247 55.2153 34.4277 51.1907 35.1471C50.5823 35.2559 49.9886 34.9116 49.8645 34.3782C49.7405 33.8447 50.1332 33.3242 50.7415 33.2154Z" fill="#F2F2F2"/>
<path d="M68.5056 87.7328C68.6588 87.2052 68.2952 86.6687 67.6936 86.5343C67.0919 86.4 66.4799 86.7188 66.3267 87.2464C65.6471 89.5871 64.5999 91.6999 63.2721 93.6451C62.9532 94.1122 63.1266 94.7175 63.6593 94.9971C64.1921 95.2767 64.8824 95.1247 65.2013 94.6576C66.6323 92.5613 67.7682 90.2724 68.5056 87.7328Z" fill="#F2F2F2"/>
<path d="M63.0082 73.4282C63.6248 73.4922 64.0655 73.9823 63.9925 74.5229C62.9308 82.39 60.5338 89.4064 56.6876 95.4919C56.3866 95.9681 55.7024 96.1402 55.1594 95.8763C54.6163 95.6124 54.42 95.0125 54.721 94.5363C58.4019 88.7123 60.726 81.9508 61.7597 74.2912C61.8327 73.7506 62.3917 73.3642 63.0082 73.4282Z" fill="#F2F2F2"/>
<path d="M62.7766 45.9833C61.9971 42.3319 58.4229 39.5387 54.0838 39.5387C48.208 39.5387 44.0855 44.7318 45.5382 49.5633C47.9963 58.0919 48.3999 66.3115 46.7358 74.2282L46.7346 74.234C45.2906 81.3419 42.5175 87.7362 38.7349 93.1547C38.4108 93.619 38.5773 94.2258 39.1069 94.51C39.6364 94.7943 40.3285 94.6482 40.6526 94.1839C44.5899 88.5438 47.4573 81.9163 48.9476 74.5826C50.6753 66.3605 50.2472 57.8526 47.7166 49.0752L47.7136 49.0649C46.6239 45.4507 49.6612 41.5101 54.0838 41.5101C57.2753 41.5101 59.9701 43.5688 60.5651 46.3393C62.2015 54.6617 63.0538 62.3793 62.4469 69.024C62.3973 69.5667 62.8589 70.0418 63.4778 70.0853C64.0967 70.1287 64.6385 69.724 64.6881 69.1814C65.3171 62.294 64.4293 54.3865 62.7794 45.9972C62.7785 45.9926 62.7775 45.988 62.7766 45.9833Z" fill="#F2F2F2"/>
<path d="M50.7292 88.6757C51.2815 88.9245 51.4991 89.5188 51.2153 90.003L48.2365 95.0859C47.9527 95.5701 47.275 95.7609 46.7227 95.5121C46.1705 95.2633 45.9529 94.669 46.2367 94.1848L49.2155 89.1019C49.4993 88.6177 50.177 88.4269 50.7292 88.6757Z" fill="#F2F2F2"/>
<path d="M54.9199 46.9338C54.7779 46.4039 54.1728 46.0752 53.5684 46.1997C52.964 46.3242 52.5891 46.8547 52.7311 47.3847C56.5222 61.5348 56.0015 73.9599 51.3837 84.5444C51.1619 85.0529 51.4522 85.6228 52.0321 85.8173C52.612 86.0118 53.2619 85.7573 53.4837 85.2488C58.2986 74.2125 58.7879 61.3712 54.9199 46.9338Z" fill="#F2F2F2"/>
</svg>
