<svg width="226" height="150" viewBox="0 0 226 150" fill="none" xmlns="http://www.w3.org/2000/svg">
<path d="M81.0661 86.3263C88.8112 72.7194 103.585 62.2715 119.224 63.278C107.688 75.8069 100.961 92.0071 100.234 109.013C99.977 115.572 100.375 122.894 96.0145 127.806C93.3012 130.862 89.1538 132.342 85.076 132.652C80.9981 132.963 76.921 132.227 72.8976 131.494L71.9216 131.793C71.55 116.146 73.321 99.9333 81.0661 86.3263Z" fill="#F0F0F0"/>
<path d="M119.248 63.6056C107.682 69.166 97.8211 78.4523 91.7675 89.7776C90.4588 92.2262 89.3445 94.8237 88.8584 97.5702C88.3721 100.318 88.7118 102.934 89.6515 105.543C90.5106 107.929 91.666 110.27 91.9294 112.823C92.2071 115.514 91.2157 118.03 89.4313 120.027C87.2479 122.47 84.3158 123.984 81.3969 125.365C78.156 126.898 74.7655 128.439 72.47 131.301C72.1919 131.648 71.6694 131.197 71.9471 130.85C75.9408 125.871 82.777 124.935 87.5176 120.925C89.7296 119.053 91.3903 116.505 91.2855 113.518C91.1939 110.907 90.0045 108.492 89.1137 106.084C88.1784 103.555 87.712 101.012 88.0474 98.3166C88.3905 95.5588 89.4055 92.9122 90.6458 90.441C93.4431 84.8679 97.2713 79.7513 101.657 75.3283C106.697 70.2443 112.571 66.0588 119.024 62.9529C119.423 62.7608 119.644 63.4148 119.248 63.6056Z" fill="white"/>
<path d="M89.0564 104.391C93.4991 103.743 97.5339 101.446 100.356 97.9583C100.636 97.6126 101.158 98.0637 100.879 98.4091C97.9353 102.033 93.7316 104.414 89.107 105.079C88.6662 105.142 88.618 104.454 89.0564 104.391Z" fill="white"/>
<path d="M150.342 106.203C150.069 106.254 149.795 106.304 149.519 106.36C145.847 107.06 142.238 108.056 138.727 109.339C138.454 109.434 138.179 109.535 137.909 109.637C129.484 112.819 121.724 117.536 115.023 123.547C112.358 125.942 109.88 128.535 107.61 131.305C104.475 135.131 101.38 139.528 97.2832 142.022C96.8587 142.287 96.4181 142.526 95.9641 142.736L72.3628 132.959C72.3204 132.91 72.2754 132.866 72.2327 132.817L71.2725 132.47C71.3796 132.319 71.4939 132.164 71.601 132.013C71.6628 131.926 71.7298 131.84 71.7915 131.752C71.8344 131.694 71.8775 131.636 71.9128 131.582C71.927 131.562 71.9415 131.543 71.9534 131.529C71.9888 131.474 72.0274 131.427 72.0605 131.378C72.6972 130.514 73.3411 129.652 73.9922 128.793C73.9944 128.788 73.9944 128.788 74.0019 128.785C78.9795 122.256 84.5466 116.084 90.8746 110.953C91.065 110.799 91.2574 110.639 91.4586 110.489C94.3238 108.192 97.3723 106.132 100.573 104.331C102.329 103.351 104.134 102.459 105.98 101.661C110.755 99.6074 115.823 98.3164 120.999 97.8356C131.318 96.8787 141.828 99.2282 149.742 105.702C149.945 105.868 150.142 106.032 150.342 106.203Z" fill="#F0F0F0"/>
<path d="M150.165 106.48C137.579 103.966 124.107 105.451 112.446 110.853C109.925 112.021 107.469 113.425 105.425 115.326C103.381 117.227 102.075 119.52 101.252 122.169C100.5 124.59 100.011 127.154 98.6822 129.351C97.2818 131.666 94.9735 133.079 92.345 133.601C89.1288 134.238 85.875 133.684 82.7119 133.032C79.1999 132.307 75.5635 131.499 72.0056 132.404C71.5745 132.514 71.4294 131.839 71.8598 131.73C78.0501 130.156 84.0726 133.519 90.2756 133.167C93.17 133.003 96.0324 131.966 97.7489 129.519C99.25 127.379 99.7563 124.735 100.497 122.277C101.274 119.696 102.435 117.385 104.328 115.434C106.264 113.439 108.67 111.936 111.15 110.708C116.743 107.941 122.884 106.157 129.052 105.263C136.141 104.234 143.355 104.424 150.38 105.824C150.814 105.911 150.597 106.566 150.165 106.48Z" fill="white"/>
<path d="M101.472 120.891C105.41 123.045 110.016 123.637 114.372 122.549C114.803 122.441 114.949 123.116 114.518 123.224C109.983 124.347 105.191 123.721 101.098 121.471C100.708 121.256 101.084 120.677 101.472 120.891Z" fill="white"/>
<path d="M135.903 105.117C135.979 105.98 136.269 106.812 136.746 107.536C137.223 108.26 137.873 108.854 138.638 109.266C139.03 109.475 138.653 110.054 138.263 109.845C137.421 109.387 136.704 108.73 136.175 107.931C135.646 107.132 135.32 106.216 135.227 105.262C135.211 105.173 135.229 105.081 135.279 105.005C135.328 104.929 135.404 104.874 135.492 104.852C135.582 104.834 135.675 104.851 135.752 104.9C135.829 104.95 135.883 105.028 135.903 105.117Z" fill="white"/>
<path d="M116.144 108.897C115.509 106.798 115.641 104.541 116.519 102.53C117.396 100.519 118.96 98.8847 120.933 97.9193C121.332 97.7254 121.653 98.3367 121.253 98.5309C119.415 99.4264 117.957 100.949 117.144 102.823C116.331 104.697 116.216 106.8 116.819 108.752C116.949 109.176 116.273 109.319 116.144 108.897Z" fill="white"/>
<path d="M93.5408 85.9927C91.7678 84.698 90.5134 82.816 90.0015 80.6828C89.4897 78.5497 89.7538 76.3043 90.7466 74.3476C90.9488 73.9524 91.5732 74.2477 91.3707 74.6434C90.4429 76.4638 90.1971 78.5554 90.6778 80.5408C91.1585 82.5262 92.334 84.2746 93.9921 85.4705C94.3521 85.7308 93.8987 86.2515 93.5408 85.9927Z" fill="white"/>
<path d="M105.383 122.333C102.078 106.372 97.9464 101.05 97.9464 101.05L96.368 99.8278L94.4699 98.3553L94.4791 98.166L94.0289 98.0131L93.9231 97.9311L93.7498 97.7982L93.7219 97.8281L93.6631 97.889L85.0738 94.9731L74.1768 91.2764L69.1309 84.7261C68.3091 83.6592 67.251 82.797 66.0397 82.2069C64.8284 81.6168 63.4967 81.3149 62.149 81.3249L46.0338 81.444C43.8548 81.4601 41.7607 82.2897 40.1631 83.7696L29.5708 93.5822L13.0659 101.455L13.0381 101.427L12.8648 101.55L10.3146 102.768L10.4198 103.315L8.84146 104.453C8.84146 104.453 4.70984 109.404 1.40453 124.256C0.5637 128.035 0.149811 136.141 0.000419822 146.131C-0.0070841 146.636 0.0860737 147.138 0.274474 147.607C0.462874 148.076 0.74276 148.503 1.09786 148.863C1.45295 149.223 1.87618 149.509 2.34292 149.704C2.80966 149.899 3.3106 150 3.81663 150H91.9722L102.975 150C103.481 150 103.981 149.899 104.448 149.704C104.914 149.509 105.337 149.224 105.692 148.864C106.047 148.504 106.327 148.078 106.516 147.609C106.705 147.141 106.798 146.639 106.791 146.134C106.646 135.265 106.232 126.431 105.383 122.333Z" fill="#3F3D56"/>
<path opacity="0.2" d="M20.7803 117.514L26.7019 149.691L30.255 150L20.7803 117.514Z" fill="black"/>
<path opacity="0.2" d="M86.0079 115.087L80.0863 149.668L76.5332 150L86.0079 115.087Z" fill="black"/>
<path d="M107.038 71.0931C107.62 71.7368 108.352 72.2262 109.17 72.5174C109.987 72.8085 110.865 72.8923 111.723 72.7611C112.163 72.6925 112.21 73.381 111.773 73.4491C110.825 73.5896 109.856 73.4959 108.952 73.1762C108.048 72.8566 107.236 72.3207 106.587 71.6153C106.52 71.5539 106.479 71.4695 106.473 71.3791C106.466 71.2888 106.494 71.1993 106.551 71.1288C106.611 71.06 106.696 71.0176 106.787 71.0109C106.879 71.0042 106.969 71.0338 107.038 71.0931Z" fill="white"/>
<path d="M56.6223 75.2785C68.2824 75.2785 77.7349 65.8382 77.7349 54.1931C77.7349 42.5479 68.2824 33.1076 56.6223 33.1076C44.9622 33.1076 35.5098 42.5479 35.5098 54.1931C35.5098 65.8382 44.9622 75.2785 56.6223 75.2785Z" fill="#9E616A"/>
<path d="M51.2207 74.2461C51.1306 74.0477 51.0408 73.8487 50.9512 73.649C50.9857 73.6501 51.0199 73.6551 51.0544 73.656L51.2207 74.2461Z" fill="#2F2E41"/>
<path d="M34.9223 34.0665C35.9901 33.2158 37.2381 32.433 38.6034 32.477C39.9686 32.5209 41.353 33.7524 41.0702 35.087C43.5778 30.6527 47.5692 27.2422 52.3438 25.4542C57.1184 23.6661 62.371 23.6148 67.1797 25.3092C70.5729 26.5048 73.9004 28.8967 74.6798 32.4049C74.8799 33.3054 74.9229 34.2929 75.4859 35.0242C76.1958 35.9462 77.554 36.1548 78.6723 35.8304C78.6835 35.8272 78.6947 35.8239 78.7058 35.8206C78.8948 35.7561 79.0987 35.7498 79.2913 35.8024C79.4839 35.855 79.6562 35.964 79.786 36.1155C79.9159 36.267 79.9972 36.4539 80.0195 36.652C80.0418 36.8502 80.0041 37.0504 79.9112 37.2269L78.9511 39.0152C80.1613 39.2846 81.4189 39.2579 82.6166 38.9373C82.8155 38.8852 83.0258 38.8959 83.2184 38.9678C83.4111 39.0397 83.5767 39.1694 83.6927 39.3391C83.8086 39.5088 83.8691 39.7101 83.866 39.9155C83.8628 40.1209 83.7961 40.3203 83.6749 40.4863C80.5092 44.8272 75.2202 47.6303 69.8229 47.5973C65.9869 47.574 62.1113 46.2536 58.378 47.1346C56.9337 47.4755 55.5841 48.1349 54.4283 49.0646C53.2725 49.9942 52.3398 51.1705 51.6985 52.5072C51.0573 53.8438 50.7238 55.3069 50.7226 56.7891C50.7213 58.2712 51.0524 59.7348 51.6914 61.0725C50.5445 59.8197 48.3274 60.1163 47.1542 61.3447C45.9811 62.5731 45.6774 64.4065 45.7956 66.1C45.9763 68.6901 46.9925 71.1307 48.0637 73.5061C39.0826 73.2237 30.588 66.9317 27.7287 58.4217C24.8575 49.876 27.8667 39.6877 34.9223 34.0665Z" fill="#2F2E41"/>
<path d="M116.694 13.9194C113.264 13.9194 109.975 15.2802 107.55 17.7023C105.125 20.1244 103.762 23.4094 103.762 26.8348C103.762 30.2602 105.125 33.5452 107.55 35.9674C109.975 38.3895 113.264 39.7502 116.694 39.7502H213.068C216.498 39.7502 219.787 38.3895 222.212 35.9674C224.638 33.5452 226 30.2602 226 26.8348C226 23.4094 224.638 20.1244 222.212 17.7023C219.787 15.2802 216.498 13.9194 213.068 13.9194H116.694Z" fill="#E5E5E5"/>
<path d="M116.694 16.5332C113.959 16.5332 111.335 17.6186 109.401 19.5505C107.466 21.4824 106.379 24.1027 106.379 26.8348C106.379 29.5669 107.466 32.1872 109.401 34.1191C111.335 36.051 113.959 37.1363 116.694 37.1363H213.068C215.804 37.1363 218.427 36.051 220.362 34.1191C222.296 32.1872 223.383 29.5669 223.383 26.8348C223.383 24.1027 222.296 21.4824 220.362 19.5505C218.427 17.6186 215.804 16.5332 213.068 16.5332H116.694Z" fill="white"/>
<path d="M210.955 33.4558H191.78C191.658 33.455 191.541 33.406 191.455 33.3196C191.37 33.2332 191.321 33.1163 191.321 32.9945C191.321 32.8727 191.37 32.7559 191.455 32.6695C191.541 32.5831 191.658 32.5341 191.78 32.5333H210.955C211.077 32.5341 211.193 32.5831 211.279 32.6695C211.365 32.7559 211.414 32.8727 211.414 32.9945C211.414 33.1163 211.365 33.2332 211.279 33.3196C211.193 33.406 211.077 33.455 210.955 33.4558Z" fill="#936EE3"/>
<path d="M186.631 33.3021H167.456C167.334 33.3012 167.217 33.2523 167.131 33.1658C167.045 33.0794 166.997 32.9626 166.997 32.8408C166.997 32.719 167.045 32.6021 167.131 32.5157C167.217 32.4293 167.334 32.3804 167.456 32.3795H186.631C186.692 32.3791 186.752 32.3907 186.808 32.4137C186.865 32.4367 186.916 32.4706 186.959 32.5135C187.002 32.5564 187.037 32.6074 187.06 32.6635C187.084 32.7197 187.096 32.7799 187.096 32.8408C187.096 32.9016 187.084 32.9619 187.06 33.018C187.037 33.0742 187.002 33.1252 186.959 33.1681C186.916 33.2109 186.865 33.2449 186.808 33.2678C186.752 33.2908 186.692 33.3025 186.631 33.3021Z" fill="#936EE3"/>
<path d="M162.306 33.1483H143.132C143.071 33.1487 143.01 33.1371 142.954 33.1141C142.897 33.0911 142.846 33.0572 142.803 33.0143C142.76 32.9714 142.725 32.9204 142.702 32.8643C142.679 32.8081 142.667 32.7479 142.667 32.687C142.667 32.6262 142.679 32.5659 142.702 32.5098C142.725 32.4536 142.76 32.4026 142.803 32.3597C142.846 32.3169 142.897 32.283 142.954 32.26C143.01 32.237 143.071 32.2254 143.132 32.2258H162.306C162.367 32.2254 162.428 32.237 162.484 32.26C162.54 32.283 162.592 32.3169 162.635 32.3597C162.678 32.4026 162.712 32.4536 162.736 32.5098C162.759 32.5659 162.771 32.6262 162.771 32.687C162.771 32.7479 162.759 32.8081 162.736 32.8643C162.712 32.9204 162.678 32.9714 162.635 33.0143C162.592 33.0572 162.54 33.0911 162.484 33.1141C162.428 33.1371 162.367 33.1487 162.306 33.1483Z" fill="#936EE3"/>
<path d="M137.982 32.9946H118.807C118.746 32.995 118.685 32.9833 118.629 32.9604C118.573 32.9374 118.521 32.9034 118.478 32.8606C118.435 32.8177 118.401 32.7667 118.377 32.7105C118.354 32.6544 118.342 32.5941 118.342 32.5333C118.342 32.4725 118.354 32.4122 118.377 32.356C118.401 32.2999 118.435 32.2489 118.478 32.206C118.521 32.1631 118.573 32.1292 118.629 32.1062C118.685 32.0832 118.746 32.0716 118.807 32.072H137.982C138.104 32.0729 138.22 32.1218 138.306 32.2082C138.392 32.2946 138.44 32.4115 138.44 32.5333C138.44 32.6551 138.392 32.7719 138.306 32.8584C138.22 32.9448 138.104 32.9937 137.982 32.9946Z" fill="#936EE3"/>
<path d="M201.766 28.7495C203.735 28.7495 205.33 27.156 205.33 25.1903C205.33 23.2246 203.735 21.6311 201.766 21.6311C199.798 21.6311 198.203 23.2246 198.203 25.1903C198.203 27.156 199.798 28.7495 201.766 28.7495Z" fill="#936EE3"/>
<path d="M177.295 28.7495C179.263 28.7495 180.859 27.156 180.859 25.1903C180.859 23.2246 179.263 21.6311 177.295 21.6311C175.327 21.6311 173.731 23.2246 173.731 25.1903C173.731 27.156 175.327 28.7495 177.295 28.7495Z" fill="#936EE3"/>
<path d="M152.824 28.7495C154.792 28.7495 156.387 27.156 156.387 25.1903C156.387 23.2246 154.792 21.6311 152.824 21.6311C150.855 21.6311 149.26 23.2246 149.26 25.1903C149.26 27.156 150.855 28.7495 152.824 28.7495Z" fill="#936EE3"/>
<path d="M128.352 28.7495C130.321 28.7495 131.916 27.156 131.916 25.1903C131.916 23.2246 130.321 21.6311 128.352 21.6311C126.384 21.6311 124.789 23.2246 124.789 25.1903C124.789 27.156 126.384 28.7495 128.352 28.7495Z" fill="#936EE3"/>
</svg>
