<svg width="354" height="259" viewBox="0 0 354 259" fill="none" xmlns="http://www.w3.org/2000/svg">
<g clip-path="url(#clip0_0_1233)">
<path d="M315.728 138.773C314.185 156.482 306.418 173.594 295.339 187.747C294.875 188.339 294.407 188.926 293.932 189.507C292.865 190.814 291.771 192.096 290.649 193.354C289.276 194.904 287.862 196.418 286.409 197.897C285.227 199.113 284.016 200.304 282.778 201.469C281.823 202.377 280.856 203.268 279.879 204.141C268.121 214.701 254.613 223.416 240.696 231.037C213.537 245.905 183.767 257.168 152.802 258.809C121.842 260.445 89.5202 251.631 66.8147 230.642C36.2138 202.357 27.6734 155.178 40.0974 115.523C48.3607 89.1404 65.2265 65.2738 88.1802 49.6861C110.935 34.234 139.642 27.2788 166.81 31.8252C188.498 18.7244 216.891 18.4737 240.469 28.1708C253.05 33.3462 264.341 41.0414 274.246 50.3397C278.782 54.6069 283.027 59.1703 286.951 63.9995C287.352 64.4887 287.749 64.9819 288.142 65.4793C289.788 67.547 291.381 69.6572 292.919 71.8098C295.128 74.8969 297.225 78.0525 299.21 81.2767C299.756 82.1646 300.297 83.0566 300.827 83.9568C301.183 84.5611 301.542 85.1695 301.894 85.782C301.902 85.7946 301.907 85.8085 301.91 85.8231C307.415 95.4462 311.915 105.715 314.26 116.448C314.674 118.347 315.021 120.254 315.29 122.178V122.182C315.526 123.814 315.703 125.454 315.823 127.103C316.106 130.989 316.074 134.891 315.728 138.773Z" fill="#3F3D56"/>
<path opacity="0.3" d="M234.932 165.544L173.531 114.704L233.181 167.581C233.297 167.774 233.457 167.937 233.649 168.057C233.84 168.176 234.058 168.249 234.283 168.268C234.509 168.287 234.736 168.253 234.945 168.167C235.154 168.082 235.34 167.948 235.487 167.777C235.634 167.607 235.738 167.403 235.79 167.184C235.842 166.965 235.841 166.737 235.787 166.519C235.733 166.301 235.627 166.098 235.478 165.929C235.329 165.759 235.142 165.627 234.932 165.544Z" fill="#F0F0F0"/>
<path d="M94.1236 139.673C114.452 139.673 130.932 123.293 130.932 103.088C130.932 82.8826 114.452 66.5029 94.1236 66.5029C73.7947 66.5029 57.3149 82.8826 57.3149 103.088C57.3149 123.293 73.7947 139.673 94.1236 139.673Z" fill="#F2F2F2"/>
<path d="M126.796 100.622C126.797 104.994 125.931 109.324 124.247 113.364C122.564 117.404 120.096 121.075 116.985 124.166C113.874 127.258 110.181 129.711 106.117 131.384C102.052 133.057 97.6958 133.918 93.2964 133.918C89.3753 133.916 85.4845 133.234 81.7989 131.904C76.0361 129.817 70.9598 126.199 67.1225 121.444C63.2852 116.688 60.8341 110.977 60.036 104.933C59.2379 98.889 60.1234 92.743 62.5961 87.1644C65.0689 81.5858 69.034 76.7884 74.0599 73.2944C79.0857 69.8004 84.9797 67.7438 91.1 67.3486C97.2204 66.9533 103.333 68.2345 108.771 71.0526C114.21 73.8707 118.766 78.1178 121.944 83.3315C125.123 88.5451 126.801 94.5255 126.796 100.622Z" fill="white"/>
<path d="M87.5065 99.7994C93.2169 99.7994 97.846 95.1983 97.846 89.5227C97.846 83.847 93.2169 79.246 87.5065 79.246C81.7962 79.246 77.167 83.847 77.167 89.5227C77.167 95.1983 81.7962 99.7994 87.5065 99.7994Z" fill="#E4E4E4"/>
<path d="M125.489 91.3848C123.248 92.4563 120.694 92.6893 118.294 92.041C115.895 91.3927 113.811 89.9066 112.424 87.855C111.037 85.8035 110.44 83.3239 110.744 80.8707C111.047 78.4175 112.229 76.1551 114.074 74.4981C119.558 78.8065 123.549 84.7107 125.489 91.3848Z" fill="#F2F2F2"/>
<path d="M104.463 115.42C106.519 115.42 108.185 113.764 108.185 111.72C108.185 109.677 106.519 108.021 104.463 108.021C102.407 108.021 100.741 109.677 100.741 111.72C100.741 113.764 102.407 115.42 104.463 115.42Z" fill="#E4E4E4"/>
<path d="M89.1606 132.685C89.1603 133.01 89.1172 133.333 89.0324 133.647C86.5626 133.34 84.1359 132.755 81.7988 131.904C81.9929 131.011 82.5123 130.221 83.257 129.686C84.0017 129.151 84.9192 128.909 85.8328 129.006C86.7465 129.103 87.5918 129.532 88.2061 130.211C88.8205 130.891 89.1604 131.772 89.1606 132.685Z" fill="#F2F2F2"/>
<path d="M67.2409 98.9772C67.2407 100.854 66.5229 102.661 65.2328 104.032C63.9428 105.402 62.1769 106.235 60.2927 106.36C59.4398 101.474 59.6885 96.4601 61.0206 91.6808C62.7584 91.9688 64.3372 92.86 65.4761 94.196C66.615 95.532 67.2403 97.2261 67.2409 98.9772Z" fill="#F2F2F2"/>
<path d="M250.819 87.2226C251.664 87.2226 252.35 86.5412 252.35 85.7007C252.35 84.8602 251.664 84.1788 250.819 84.1788C249.973 84.1788 249.288 84.8602 249.288 85.7007C249.288 86.5412 249.973 87.2226 250.819 87.2226Z" fill="#AD63FF"/>
<path d="M236.693 50.1962C237.187 50.1962 237.588 49.7981 237.588 49.307C237.588 48.8159 237.187 48.4178 236.693 48.4178C236.199 48.4178 235.798 48.8159 235.798 49.307C235.798 49.7981 236.199 50.1962 236.693 50.1962Z" fill="#F0F0F0"/>
<path d="M93.1807 224.489C93.6748 224.489 94.0753 224.091 94.0753 223.6C94.0753 223.109 93.6748 222.711 93.1807 222.711C92.6867 222.711 92.2861 223.109 92.2861 223.6C92.2861 224.091 92.6867 224.489 93.1807 224.489Z" fill="#F0F0F0"/>
<path d="M241.772 137.197C242.266 137.197 242.666 136.799 242.666 136.308C242.666 135.817 242.266 135.419 241.772 135.419C241.277 135.419 240.877 135.817 240.877 136.308C240.877 136.799 241.277 137.197 241.772 137.197Z" fill="#F0F0F0"/>
<path d="M126.331 145.594C127.177 145.594 127.862 144.913 127.862 144.072C127.862 143.232 127.177 142.55 126.331 142.55C125.485 142.55 124.8 143.232 124.8 144.072C124.8 144.913 125.485 145.594 126.331 145.594Z" fill="#AD63FF"/>
<path d="M70.9113 178.39C74.9047 178.39 78.142 175.172 78.142 171.203C78.142 167.234 74.9047 164.016 70.9113 164.016C66.9179 164.016 63.6807 167.234 63.6807 171.203C63.6807 175.172 66.9179 178.39 70.9113 178.39Z" fill="#AD63FF"/>
<path d="M110.551 180.094C111.045 180.094 111.445 179.696 111.445 179.204C111.445 178.713 111.045 178.315 110.551 178.315C110.057 178.315 109.656 178.713 109.656 179.204C109.656 179.696 110.057 180.094 110.551 180.094Z" fill="#F0F0F0"/>
<path d="M201.539 41.1527C202.033 41.1527 202.433 40.7546 202.433 40.2635C202.433 39.7724 202.033 39.3743 201.539 39.3743C201.045 39.3743 200.644 39.7724 200.644 40.2635C200.644 40.7546 201.045 41.1527 201.539 41.1527Z" fill="#F0F0F0"/>
<path d="M148.187 230.655C148.681 230.655 149.082 230.257 149.082 229.766C149.082 229.275 148.681 228.877 148.187 228.877C147.693 228.877 147.292 229.275 147.292 229.766C147.292 230.257 147.693 230.655 148.187 230.655Z" fill="#F0F0F0"/>
<path d="M134.952 49.374C135.446 49.374 135.847 48.9759 135.847 48.4849C135.847 47.9938 135.446 47.5957 134.952 47.5957C134.458 47.5957 134.058 47.9938 134.058 48.4849C134.058 48.9759 134.458 49.374 134.952 49.374Z" fill="#F0F0F0"/>
<path d="M158.113 92.5362C158.607 92.5362 159.007 92.1381 159.007 91.647C159.007 91.1559 158.607 90.7578 158.113 90.7578C157.619 90.7578 157.218 91.1559 157.218 91.647C157.218 92.1381 157.619 92.5362 158.113 92.5362Z" fill="#F0F0F0"/>
<path d="M122.66 198.446C123.154 198.446 123.555 198.048 123.555 197.557C123.555 197.066 123.154 196.668 122.66 196.668C122.166 196.668 121.766 197.066 121.766 197.557C121.766 198.048 122.166 198.446 122.66 198.446Z" fill="#F0F0F0"/>
<path d="M227.296 204.201C227.791 204.201 228.191 203.803 228.191 203.312C228.191 202.821 227.791 202.423 227.296 202.423C226.802 202.423 226.402 202.821 226.402 203.312C226.402 203.803 226.802 204.201 227.296 204.201Z" fill="#F0F0F0"/>
<path d="M180.975 152.406C181.469 152.406 181.87 152.008 181.87 151.517C181.87 151.026 181.469 150.628 180.975 150.628C180.481 150.628 180.081 151.026 180.081 151.517C180.081 152.008 180.481 152.406 180.975 152.406Z" fill="#F0F0F0"/>
<path d="M204.549 92.3904C205.043 92.3904 205.444 91.9923 205.444 91.5013C205.444 91.0102 205.043 90.6121 204.549 90.6121C204.055 90.6121 203.655 91.0102 203.655 91.5013C203.655 91.9923 204.055 92.3904 204.549 92.3904Z" fill="#F0F0F0"/>
<path d="M247.409 122.064C248.389 122.064 249.183 121.275 249.183 120.301C249.183 119.327 248.389 118.538 247.409 118.538C246.429 118.538 245.635 119.327 245.635 120.301C245.635 121.275 246.429 122.064 247.409 122.064Z" fill="#FF6584"/>
<path d="M175.446 63.6924C176.425 63.6924 177.219 62.903 177.219 61.9293C177.219 60.9556 176.425 60.1663 175.446 60.1663C174.466 60.1663 173.672 60.9556 173.672 61.9293C173.672 62.903 174.466 63.6924 175.446 63.6924Z" fill="#FF6584"/>
<path d="M175.446 184.957C176.425 184.957 177.219 184.168 177.219 183.194C177.219 182.221 176.425 181.431 175.446 181.431C174.466 181.431 173.672 182.221 173.672 183.194C173.672 184.168 174.466 184.957 175.446 184.957Z" fill="#FF6584"/>
<path d="M285.959 193.354C285.268 193.355 284.596 193.579 284.045 193.993C283.493 194.407 283.092 194.988 282.902 195.648C282.819 195.931 282.777 196.225 282.778 196.52V201.469C284.015 200.306 285.225 199.115 286.41 197.897C287.861 196.417 289.274 194.903 290.649 193.354H285.959Z" fill="#AD63FF"/>
<path d="M297.22 219.071C291.88 219.071 286.027 218.87 279.661 218.469C246.734 216.391 204.084 209.166 159.567 198.125C115.05 187.083 73.9847 173.545 43.9359 160.004C29.2982 153.408 18.0639 147.164 10.5453 141.446C2.58512 135.392 -0.896788 130.115 0.19592 125.762C2.32503 117.282 21.1773 115.427 36.6175 115.364L36.6227 116.597C15.4193 116.684 2.91026 120.045 1.39993 126.061C-0.523992 133.723 15.1666 145.686 44.4483 158.881C74.431 172.392 115.421 185.904 159.868 196.928C204.314 207.952 246.885 215.165 279.74 217.238C311.825 219.264 331.331 216.031 333.255 208.368C334.852 202.006 324.322 192.635 303.605 181.978L304.176 180.883C319.229 188.626 336.702 199.731 334.459 208.667C333.366 213.02 327.798 216.052 317.909 217.679C312.272 218.606 305.349 219.071 297.22 219.071Z" fill="#AD63FF"/>
<path d="M295.538 127.135C318.493 127.135 337.102 108.639 337.102 85.8231C337.102 63.0069 318.493 44.5107 295.538 44.5107C272.582 44.5107 253.973 63.0069 253.973 85.8231C253.973 108.639 272.582 127.135 295.538 127.135Z" fill="white"/>
<path d="M295.537 43.8941C287.194 43.8941 279.038 46.3532 272.1 50.9604C265.163 55.5676 259.756 62.116 256.563 69.7776C253.37 77.4391 252.535 85.8696 254.163 94.003C255.79 102.136 259.808 109.607 265.708 115.471C271.608 121.335 279.124 125.329 287.307 126.946C295.491 128.564 303.973 127.734 311.681 124.56C319.389 121.387 325.978 116.013 330.613 109.118C335.248 102.222 337.723 94.1158 337.723 85.8231C337.742 80.3113 336.665 74.8501 334.552 69.7541C332.439 64.6581 329.332 60.028 325.411 56.1306C321.49 52.2332 316.832 49.1455 311.704 47.0454C306.577 44.9453 301.083 43.8743 295.537 43.8941ZM295.537 126.519C287.439 126.519 279.523 124.132 272.79 119.66C266.056 115.189 260.809 108.833 257.71 101.397C254.611 93.9605 253.8 85.7779 255.38 77.8837C256.959 69.9895 260.859 62.7382 266.585 57.0468C272.311 51.3554 279.607 47.4795 287.549 45.9093C295.492 44.339 303.724 45.145 311.206 48.2251C318.688 51.3053 325.082 56.5213 329.581 63.2137C334.08 69.9061 336.482 77.7742 336.482 85.8231C336.503 91.1731 335.458 96.4744 333.408 101.421C331.357 106.368 328.342 110.863 324.536 114.646C320.73 118.429 316.208 121.426 311.231 123.463C306.254 125.501 300.92 126.54 295.537 126.519Z" fill="#2F2E41"/>
<path d="M259.062 95.7178C258.871 95.7176 258.687 95.6521 258.539 95.5325C258.392 95.4128 258.291 95.2463 258.252 95.0611C257.063 89.0417 257.278 82.8316 258.88 76.9076C260.481 70.9835 263.427 65.503 267.492 60.8868C267.638 60.7248 267.843 60.6271 268.061 60.6149C268.28 60.6027 268.495 60.6772 268.658 60.822C268.821 60.9667 268.92 61.17 268.933 61.3872C268.946 61.6044 268.872 61.8178 268.727 61.9807C264.832 66.4044 262.009 71.6564 260.474 77.3334C258.939 83.0104 258.733 88.9616 259.873 94.7299C259.897 94.8495 259.895 94.973 259.865 95.0915C259.836 95.21 259.781 95.3205 259.703 95.4151C259.625 95.5096 259.527 95.5859 259.417 95.6382C259.306 95.6906 259.184 95.7178 259.062 95.7178Z" fill="#2F2E41"/>
<path d="M295.511 124.205C310.101 124.205 321.929 112.448 321.929 97.9467C321.929 83.4449 310.101 71.6889 295.511 71.6889C280.921 71.6889 269.093 83.4449 269.093 97.9467C269.093 112.448 280.921 124.205 295.511 124.205Z" fill="#AD63FF"/>
<path d="M287.115 107.86C285.403 107.813 283.271 107.754 281.63 106.562C281.141 106.192 280.739 105.721 280.453 105.181C280.166 104.64 280.002 104.045 279.972 103.435C279.942 103.002 280.014 102.567 280.181 102.166C280.348 101.765 280.606 101.407 280.936 101.122C281.793 100.401 283.045 100.232 284.395 100.627L282.997 90.4707L284.023 90.3309L285.667 102.27L284.81 101.88C283.816 101.427 282.452 101.196 281.604 101.908C281.396 102.094 281.234 102.325 281.13 102.584C281.027 102.843 280.985 103.121 281.007 103.399C281.032 103.853 281.156 104.296 281.368 104.698C281.581 105.1 281.879 105.452 282.241 105.73C283.518 106.658 285.217 106.777 287.144 106.831L287.115 107.86Z" fill="#2F2E41"/>
<path d="M277.921 91.3466H272.341V92.3763H277.921V91.3466Z" fill="#2F2E41"/>
<path d="M295.533 91.3466H289.953V92.3763H295.533V91.3466Z" fill="#2F2E41"/>
<path d="M296.621 130.695H272.675C271.782 130.696 270.926 131.049 270.295 131.676C269.664 132.304 269.309 133.154 269.308 134.041V186.794C269.311 190.369 270.297 193.875 272.16 196.932C274.023 199.99 276.693 202.483 279.879 204.141C280.859 203.269 281.826 202.379 282.778 201.469C284.015 200.305 285.225 199.115 286.41 197.897C287.861 196.417 289.274 194.903 290.649 193.354C291.774 192.096 292.868 190.814 293.933 189.507C294.408 188.927 294.877 188.341 295.339 187.747C306.419 173.594 314.186 156.482 315.728 138.773C313.255 136.217 310.288 134.184 307.004 132.796C303.721 131.408 300.189 130.693 296.621 130.695Z" fill="#2F2E41"/>
<path d="M297.493 141.704C296.924 141.149 296.249 140.712 295.509 140.418C294.768 140.124 293.977 139.978 293.18 139.989C291.794 140 290.455 140.488 289.391 141.371C289.221 141.507 289.06 141.654 288.907 141.811L269.308 161.788L255.093 176.279C254.877 176.495 254.698 176.745 254.564 177.019C254.351 177.442 254.241 177.91 254.245 178.383C254.249 178.773 254.331 179.157 254.486 179.515C254.641 179.873 254.865 180.196 255.147 180.467L255.705 181.01L259.758 184.936L259.762 184.932C260.307 185.371 260.988 185.608 261.69 185.602C262.081 185.597 262.468 185.516 262.828 185.362C263.188 185.208 263.514 184.985 263.787 184.705L264.444 184.04L269.151 179.242L269.308 179.082L297.601 150.242C298.725 149.095 299.346 147.552 299.326 145.95C299.305 144.349 298.646 142.822 297.493 141.704Z" fill="#AD63FF"/>
<path d="M297.295 85.6966C298.168 83.8605 297.273 81.8993 295.738 80.7265C293.804 79.2485 291.304 79.4929 289.104 80.1925C286.696 80.9584 284.342 82.3366 281.741 82.2574C280.814 82.2409 279.913 81.9465 279.157 81.4127C278.401 80.8789 277.825 80.1306 277.504 79.2658C276.111 75.7146 277.684 71.7454 280.11 69.0521C281.479 67.5098 283.171 66.2842 285.067 65.4614C286.964 64.6386 289.019 64.2386 291.088 64.2895C293.449 64.4059 295.745 65.1013 297.77 66.3136C299.796 67.5259 301.488 69.2175 302.696 71.2376C302.782 71.3755 302.918 71.4754 303.076 71.5165C303.234 71.5577 303.402 71.537 303.545 71.4588C305.386 70.6409 307.371 70.1938 309.387 70.1434C311.402 70.093 313.408 70.4403 315.288 71.1652C318.108 72.3077 320.512 74.2759 322.18 76.8084C323.848 79.3408 324.701 82.3177 324.627 85.3437C324.606 86.1375 325.847 86.1371 325.867 85.3437C325.945 81.1133 324.374 77.017 321.484 73.9108C320.016 72.3621 318.251 71.1215 316.293 70.2624C314.335 69.4033 312.223 68.9431 310.083 68.9091C307.612 68.8568 305.162 69.3646 302.919 70.394L303.767 70.6152C302.649 68.7441 301.147 67.1281 299.358 65.8725C297.57 64.6169 295.535 63.7499 293.387 63.3277C291.26 62.9333 289.072 62.9981 286.973 63.5178C284.873 64.0375 282.91 65 281.218 66.3399C278.033 68.8175 275.619 72.6622 275.769 76.7855C275.834 78.5697 276.367 80.4012 277.614 81.7308C279.21 83.4338 281.593 83.7284 283.795 83.292C286.721 82.7122 289.393 80.7991 292.444 80.8581C293.041 80.8584 293.632 80.9849 294.177 81.229C294.722 81.4732 295.208 81.8294 295.604 82.2743C296.276 83.0279 296.681 84.112 296.223 85.0742C295.884 85.7878 296.953 86.4144 297.295 85.6966Z" fill="#2F2E41"/>
<path d="M99.2856 234.044C84.5625 234.044 70.875 233.542 58.6214 232.529C42.6049 231.204 29.9129 229.075 20.8985 226.2C11.3545 223.156 6.29115 219.349 5.8491 214.884C4.98761 206.187 22.1169 198.143 36.6382 192.928L37.0599 194.088C17.1184 201.25 6.47271 208.593 7.08378 214.764C7.86207 222.623 26.6842 228.65 58.7242 231.3C91.5316 234.013 134.706 233.052 180.295 228.591C225.884 224.131 268.419 216.708 300.064 207.69C330.97 198.882 348.249 189.323 347.47 181.464C346.824 174.939 333.738 169.628 310.624 166.51L310.79 165.288C327.586 167.554 347.797 172.178 348.705 181.343C349.147 185.808 344.928 190.523 336.164 195.358C327.886 199.925 315.856 204.473 300.406 208.875C268.691 217.914 226.078 225.351 180.417 229.818C151.772 232.621 124.068 234.044 99.2856 234.044Z" fill="#AD63FF"/>
<path d="M346.769 185.789C350.763 185.789 354 182.571 354 178.602C354 174.633 350.763 171.415 346.769 171.415C342.776 171.415 339.539 174.633 339.539 178.602C339.539 182.571 342.776 185.789 346.769 185.789Z" fill="#AD63FF"/>
<path d="M137.084 14.3734C141.078 14.3734 144.315 11.1558 144.315 7.18672C144.315 3.21761 141.078 0 137.084 0C133.091 0 129.854 3.21761 129.854 7.18672C129.854 11.1558 133.091 14.3734 137.084 14.3734Z" fill="#E6E6E6"/>
<path d="M8.04706 185.378C12.0404 185.378 15.2777 182.16 15.2777 178.191C15.2777 174.222 12.0404 171.004 8.04706 171.004C4.05368 171.004 0.816406 174.222 0.816406 178.191C0.816406 182.16 4.05368 185.378 8.04706 185.378Z" fill="#E6E6E6"/>
<path d="M52.7134 48.9933C55.158 48.9933 57.1397 47.0236 57.1397 44.5939C57.1397 42.1642 55.158 40.1945 52.7134 40.1945C50.2688 40.1945 48.2871 42.1642 48.2871 44.5939C48.2871 47.0236 50.2688 48.9933 52.7134 48.9933Z" fill="#FF6584"/>
<path d="M32.0347 215.887C34.4792 215.887 36.461 213.917 36.461 211.487C36.461 209.058 34.4792 207.088 32.0347 207.088C29.5901 207.088 27.6084 209.058 27.6084 211.487C27.6084 213.917 29.5901 215.887 32.0347 215.887Z" fill="#FF6584"/>
<path d="M333.948 143.95C336.393 143.95 338.375 141.98 338.375 139.551C338.375 137.121 336.393 135.151 333.948 135.151C331.504 135.151 329.522 137.121 329.522 139.551C329.522 141.98 331.504 143.95 333.948 143.95Z" fill="#FF6584"/>
<path d="M266.948 253.204C270.942 253.204 274.179 249.986 274.179 246.017C274.179 242.048 270.942 238.831 266.948 238.831C262.955 238.831 259.718 242.048 259.718 246.017C259.718 249.986 262.955 253.204 266.948 253.204Z" fill="#E6E6E6"/>
</g>
<defs>
<clipPath id="clip0_0_1233">
<rect width="354" height="259" fill="white"/>
</clipPath>
</defs>
</svg>
