<svg width="300" height="302" viewBox="0 0 300 302" fill="none" xmlns="http://www.w3.org/2000/svg">
<g clip-path="url(#clip0_0_1062)">
<path d="M190.088 289.802C190.419 289.818 190.747 289.731 191.027 289.554C191.307 289.377 191.526 289.118 191.654 288.812C191.782 288.507 191.812 288.169 191.742 287.846C191.671 287.522 191.503 287.228 191.26 287.003C191.219 286.842 191.19 286.725 191.149 286.563C191.466 285.759 192.016 285.068 192.728 284.578C193.441 284.088 194.283 283.822 195.148 283.814C196.013 283.806 196.861 284.056 197.582 284.532C198.304 285.009 198.867 285.69 199.199 286.488C201.114 290.967 203.593 295.605 202.36 300.54C210.503 283.294 207.734 261.842 195.7 247.094C192.373 245.263 189.677 242.01 188.975 238.233C190.621 238.79 192.674 237.452 191.436 235.719C190.899 235.057 190.358 234.4 189.821 233.737C196.075 227.082 203.526 237.542 196.643 246.524C198.895 249.345 200.845 252.394 202.462 255.62C202.089 252.194 202.535 248.729 203.763 245.508C205.008 242.507 207.342 239.98 209.397 237.385C211.895 234.224 217.038 235.683 217.374 239.694C215.068 240.452 214.768 243.78 217.406 244.235C216.715 251.698 211.836 258.557 205.115 261.83C207.597 268.788 208.566 276.195 207.958 283.556C209.144 274.953 218.387 272.865 224.847 269.445C225.258 269.182 225.737 269.044 226.226 269.047C226.714 269.051 227.191 269.197 227.598 269.467C228.005 269.737 228.324 270.12 228.517 270.568C228.71 271.016 228.768 271.511 228.685 271.992C227.793 272.354 226.94 272.804 226.137 273.335C225.761 273.588 225.472 273.951 225.311 274.374C225.149 274.797 225.122 275.259 225.234 275.698C225.346 276.137 225.591 276.531 225.935 276.825C226.279 277.119 226.706 277.3 227.158 277.342C223.901 285.395 215.482 290.803 206.836 290.772C206.005 294.381 204.801 297.893 203.243 301.252H190.41C190.364 301.109 190.323 300.962 190.281 300.82C191.469 300.894 192.662 300.824 193.832 300.608C190.689 296.89 188.259 294.993 190.088 289.802Z" fill="#F2F2F2"/>
<path d="M194.847 291.707L189.32 292.963L181.84 272.259L189.997 270.405L194.847 291.707Z" fill="#FFB6B6"/>
<path d="M196.354 297.423L179.358 301.287L179.309 301.072C178.91 299.319 179.224 297.48 180.182 295.958C181.141 294.436 182.665 293.357 184.419 292.958L186.988 289.899L193.316 290.935L194.8 290.598L196.354 297.423Z" fill="#2F2E41"/>
<path d="M80.5499 290.988L86.2005 290.987L88.8887 269.208L80.5486 269.208L80.5499 290.988Z" fill="#A0616A"/>
<path d="M88.0808 291.496V287.668L86.5952 287.759L80.5481 288.116L79.1485 288.202L78.0786 301.022L78.0212 301.71H82.0336L82.1625 301.027L82.7453 297.925L84.2499 301.027L84.5795 301.71H95.217C95.85 301.706 96.4559 301.452 96.903 301.005C97.3502 300.557 97.6025 299.951 97.6053 299.319C98.0543 297.223 89.208 292.694 88.0808 291.496Z" fill="#2F2E41"/>
<path d="M75.6762 289.802C75.3452 289.818 75.0175 289.731 74.7375 289.554C74.4575 289.377 74.2388 289.118 74.1109 288.812C73.9831 288.507 73.9523 288.169 74.0228 287.846C74.0933 287.522 74.2616 287.228 74.5049 287.003C74.5457 286.842 74.5749 286.725 74.6156 286.563C74.2988 285.759 73.749 285.068 73.0364 284.578C72.3239 284.088 71.4812 283.822 70.6164 283.814C69.7515 283.806 68.904 284.056 68.1823 284.532C67.4607 285.009 66.8978 285.69 66.5659 286.488C64.6505 290.967 62.1715 295.605 63.4044 300.54C55.2611 283.294 58.0304 261.842 70.0651 247.094C73.3916 245.263 76.0878 242.01 76.7898 238.233C75.1434 238.79 73.0908 237.452 74.3286 235.719C74.8652 235.057 75.4069 234.4 75.9434 233.737C69.6896 227.082 62.2383 237.542 69.1219 246.524C66.8701 249.345 64.9196 252.394 63.3022 255.62C63.6757 252.194 63.2299 248.729 62.0014 245.508C60.7564 242.507 58.4229 239.98 56.3679 237.385C53.8693 234.224 48.7269 235.683 48.3907 239.694C50.6966 240.452 50.9961 243.78 48.3585 244.235C49.0494 251.698 53.9287 258.557 60.6491 261.83C58.1674 268.788 57.1983 276.195 57.8065 283.556C56.6202 274.953 47.3777 272.865 40.9176 269.445C40.5064 269.182 40.0274 269.044 39.539 269.047C39.0506 269.051 38.5738 269.197 38.1669 269.467C37.76 269.737 37.4406 270.12 37.2476 270.568C37.0545 271.016 36.9963 271.511 37.0798 271.992C37.9715 272.354 38.8249 272.804 39.6275 273.335C40.0036 273.588 40.2923 273.951 40.454 274.374C40.6157 274.797 40.6425 275.259 40.5307 275.698C40.4189 276.137 40.174 276.531 39.8296 276.825C39.4852 277.119 39.0582 277.3 38.607 277.342C41.8633 285.395 50.2821 290.803 58.9288 290.772C59.7597 294.381 60.9637 297.893 62.5212 301.252H75.3546C75.4006 301.109 75.442 300.962 75.4834 300.82C74.2955 300.894 73.103 300.824 71.9324 300.608C75.0752 296.89 77.5057 294.993 75.6766 289.803L75.6762 289.802Z" fill="#F2F2F2"/>
<path d="M234.143 301.238C233.8 302.254 37.8559 302.254 37.4856 301.24C37.8284 300.222 233.772 300.222 234.143 301.238Z" fill="#CCCCCC"/>
<path d="M13.4735 204.555L12.1562 210.046L32.7247 217.736L34.6686 209.632L13.4735 204.555Z" fill="#A0616A"/>
<path d="M11.6702 211.755L15.3955 212.647L15.6536 211.182L16.7152 205.223L16.9579 203.843L4.73106 199.814L4.07554 199.598L3.14002 203.497L3.77417 203.782L6.65752 205.071L3.28748 205.81L2.5464 205.971L0.0661725 216.307C-0.0775218 216.923 0.0277776 217.571 0.359226 218.11C0.690674 218.649 1.2215 219.035 1.83642 219.186C3.77087 220.11 10.2415 212.571 11.6702 211.755Z" fill="#2F2E41"/>
<path d="M284.003 190.791L287.04 195.572L270.031 209.559L265.547 202.502L284.003 190.791Z" fill="#FFB6B6"/>
<path d="M288.887 187.455L298.231 202.157L298.044 202.275C296.526 203.239 294.686 203.561 292.93 203.169C291.174 202.777 289.645 201.705 288.681 200.187L284.934 198.795L283.789 192.491L282.973 191.207L288.887 187.455Z" fill="#2F2E41"/>
<path d="M191.168 188.573L187.01 199.408L167.505 237.855L184.644 282.579L193.489 280.246L186.199 237.855L207.115 212.459L231.956 229.294C231.956 229.294 242.973 237.888 247.164 229.741C251.355 221.594 278.474 204.265 278.474 204.265L271.764 197.114L240.535 211.718L218.981 181.402L191.168 188.573Z" fill="#2F2E41"/>
<path d="M153.49 179.409C151.948 179.409 150.441 178.953 149.159 178.097C147.877 177.241 146.878 176.024 146.288 174.601C145.698 173.178 145.544 171.612 145.844 170.101C146.145 168.59 146.888 167.202 147.978 166.112C149.068 165.023 150.457 164.281 151.969 163.981C153.481 163.68 155.048 163.834 156.473 164.424C157.897 165.013 159.115 166.012 159.971 167.293C160.828 168.574 161.285 170.08 161.285 171.62C161.283 173.685 160.461 175.665 158.999 177.125C157.538 178.586 155.556 179.407 153.49 179.409ZM153.49 164.725C152.125 164.725 150.791 165.129 149.656 165.887C148.521 166.645 147.637 167.722 147.114 168.981C146.592 170.241 146.455 171.628 146.722 172.965C146.988 174.303 147.645 175.532 148.61 176.496C149.575 177.46 150.805 178.117 152.144 178.383C153.482 178.649 154.87 178.513 156.131 177.991C157.391 177.469 158.469 176.585 159.227 175.451C159.986 174.317 160.39 172.984 160.39 171.62C160.388 169.792 159.661 168.039 158.367 166.747C157.073 165.454 155.319 164.727 153.49 164.725Z" fill="#E6E6E6"/>
<path d="M152.94 174.555C152.924 174.555 152.908 174.554 152.893 174.553C152.754 174.547 152.619 174.51 152.496 174.446C152.373 174.383 152.265 174.293 152.18 174.184L150.952 172.606C150.875 172.506 150.818 172.393 150.784 172.271C150.751 172.149 150.742 172.022 150.757 171.897C150.773 171.772 150.813 171.651 150.875 171.541C150.938 171.432 151.021 171.335 151.121 171.258L151.165 171.224C151.265 171.146 151.379 171.089 151.5 171.055C151.622 171.022 151.749 171.013 151.875 171.028C152 171.044 152.121 171.084 152.231 171.147C152.341 171.209 152.437 171.292 152.515 171.392C152.577 171.472 152.655 171.537 152.745 171.583C152.834 171.63 152.933 171.656 153.034 171.661C153.134 171.666 153.235 171.649 153.329 171.612C153.423 171.574 153.507 171.517 153.576 171.444L156.07 168.814C156.245 168.629 156.487 168.521 156.742 168.514C156.996 168.507 157.244 168.602 157.429 168.777L157.47 168.816C157.561 168.902 157.635 169.006 157.687 169.121C157.738 169.237 157.766 169.361 157.77 169.487C157.773 169.613 157.752 169.739 157.706 169.857C157.661 169.974 157.593 170.082 157.506 170.174L153.637 174.255C153.548 174.349 153.439 174.425 153.319 174.476C153.199 174.528 153.07 174.555 152.94 174.555Z" fill="#E6E6E6"/>
<path d="M89.287 150.034L82.0136 146.637L67.509 164.177L58.674 166.409C58.0404 166.087 57.3298 165.945 56.6208 166.001C55.9118 166.056 55.2319 166.306 54.6563 166.724C54.0807 167.141 53.6317 167.709 53.359 168.365C53.0862 169.022 53.0003 169.741 53.1108 170.443C53.2212 171.145 53.5237 171.803 53.9848 172.344C54.446 172.885 55.0478 173.288 55.7238 173.508C56.3998 173.729 57.1237 173.759 57.8155 173.594C58.5074 173.43 59.1403 173.077 59.6442 172.576L72.5814 168.468L89.287 150.034Z" fill="#A0616A"/>
<path d="M130.467 208.37C112.391 208.37 91.6166 188.327 73.2369 197.85C17.5878 226.684 25.2483 178.435 9.26074 160.491L9.78561 159.439C27.426 175.244 49.4506 188.103 73.4785 196.626C95.1922 204.329 117.069 207.898 136.735 206.956L136.769 208.221C134.692 208.321 132.591 208.371 130.467 208.37Z" fill="#F2F2F2"/>
<path d="M81.9541 178.287C81.9541 178.287 70.0203 186.052 73.1758 191.212C73.2847 191.39 58.921 210.346 58.921 210.346L31.8057 208.626L30.8503 217.694L54.9903 224.681C54.9903 224.681 60.8959 229.016 65.4581 224.239C70.0203 219.463 85.2165 204.835 85.2165 204.835L85.9495 234.368L78.3211 275.291L89.7112 274.569L100.797 233.513L104.889 187.007L81.9541 178.287Z" fill="#2F2E41"/>
<path d="M128.317 181.246C130.961 181.246 133.104 179.104 133.104 176.463C133.104 173.821 130.961 171.679 128.317 171.679C125.673 171.679 123.53 173.821 123.53 176.463C123.53 179.104 125.673 181.246 128.317 181.246Z" fill="#F2F2F2"/>
<path d="M149.311 151.832C147.584 152.983 145.816 150.245 147.576 149.146C149.304 147.996 151.072 150.734 149.311 151.832Z" fill="#E6E6E6"/>
<path d="M107.829 139.675L106.464 131.769L127.217 122.405L131.699 114.476C131.554 113.781 131.605 113.058 131.845 112.39C132.085 111.721 132.506 111.131 133.06 110.686C133.615 110.241 134.282 109.958 134.987 109.868C135.692 109.778 136.409 109.884 137.058 110.175C137.706 110.467 138.262 110.932 138.663 111.519C139.064 112.106 139.295 112.792 139.33 113.502C139.365 114.211 139.203 114.917 138.862 115.541C138.521 116.164 138.014 116.681 137.397 117.035L130.024 128.425L107.829 139.675Z" fill="#A0616A"/>
<path d="M101.521 133.212L110.866 128.442L113.34 137.724L106.849 142.532L101.521 133.212Z" fill="#936EE3"/>
<path d="M90.4547 131.685L85.4363 135.485L79.7164 147.684L85.2166 155.148C85.2166 155.148 89.8432 163.16 82.4376 170.92C75.032 178.679 69.3452 186.966 75.2727 186.67C81.2002 186.374 105.207 198.576 105.365 188.58C105.523 178.583 105.843 170.92 105.843 170.92L112.137 154.968C112.137 154.968 115.887 145.452 113.254 142.603C110.621 139.755 107.096 136.115 107.096 136.115L100.686 129.709H94.8975L90.4547 131.685Z" fill="#936EE3"/>
<path d="M212.149 137.463L205.304 130.115L193.563 128.501L179.177 138.565L179.321 149.704L186.433 175.953C186.433 175.953 183.724 194.811 191.291 194.622C198.857 194.433 202.981 190.663 206.063 191.431C209.145 192.198 222.245 195.463 223.075 192.043C223.905 188.622 228.318 191.071 228.124 187.836C227.931 184.6 216.178 161.275 216.178 161.275L219.1 137.949L212.149 137.463Z" fill="#936EE3"/>
<path d="M99.8227 108.247C111.081 114.648 101.838 131.539 90.3702 125.524C79.1122 119.123 88.3548 102.232 99.8227 108.247Z" fill="#A0616A"/>
<path d="M105.843 111.796C105.054 112.821 103.406 112.341 100.178 113.072C100.185 111.979 100.059 110.889 99.8019 109.826C99.5618 111.142 99.0355 112.389 98.2603 113.479C95.4577 113.79 98.8933 122.297 97.4583 128.552C95.6095 115.356 91.7208 118.813 93.6853 121.431C94.943 123.107 94.1045 128.133 90.3315 125.62C84.1062 128.576 75.2395 113.891 85.0665 107.003C84.8909 103.28 89.0364 102.692 91.5892 103.837C97.7844 99.2255 104.862 105.134 105.843 111.796Z" fill="#2F2E41"/>
<path d="M76.9564 102.167C74.4499 117.566 61.0151 99.3351 54.6981 114.489C52.712 119.977 56.1197 123.903 58.2752 128.459C58.7672 132.202 53.8933 134.102 53.3828 137.548C53.2407 145.448 65.9962 144.965 69.5621 139.98C73.2261 134.762 68.8507 127.762 71.0531 122.161C74.1484 114.386 86.7365 114.328 87.8332 105.282C85.7093 102.259 79.9983 98.7981 76.9564 102.167Z" fill="#2F2E41"/>
<path d="M255.487 103.638C255.548 104.248 255.475 104.863 255.272 105.441C255.07 106.019 254.743 106.546 254.315 106.984C253.886 107.422 253.367 107.761 252.794 107.977C252.22 108.193 251.606 108.281 250.995 108.234L235.255 138.146L231.029 131.664L247.117 103.433C247.264 102.413 247.78 101.481 248.568 100.816C249.356 100.15 250.362 99.796 251.393 99.8213C252.425 99.8466 253.411 100.249 254.166 100.953C254.92 101.656 255.39 102.612 255.487 103.638Z" fill="#FFB6B6"/>
<path d="M205.935 143.025C205.935 143.025 205.31 148.346 211.305 149.663C217.299 150.98 233.907 141.498 236.63 140.049C237.482 139.596 238.639 137.373 239.826 134.533C240.359 133.258 240.898 131.859 241.419 130.44C241.72 129.618 243.161 129.394 243.445 128.58C243.727 127.77 242.851 126.369 243.107 125.606C244.32 121.982 245.179 119.107 245.179 119.107L241.206 111.65C235.649 114.585 232.799 121.051 230.703 128.5L205.935 143.025Z" fill="#936EE3"/>
<path d="M295.066 153.104C280.657 164.01 251.985 160.564 243.088 179.245C216.149 235.803 193.102 192.719 169.515 188.06L169.298 186.905C192.91 188.862 218.237 185.825 242.541 178.123C264.505 171.164 284.101 160.811 299.209 148.195L300 149.183C298.405 150.515 296.76 151.823 295.066 153.104Z" fill="#F2F2F2"/>
<path d="M135.925 110.507C136.019 111.113 136.244 111.69 136.585 112.199C136.926 112.708 137.374 113.136 137.898 113.454C138.423 113.771 139.01 113.969 139.62 114.035C140.229 114.1 140.845 114.032 141.425 113.834L164.156 138.858L166.624 131.525L143.977 108.216C143.579 107.265 142.846 106.492 141.917 106.044C140.987 105.597 139.925 105.506 138.933 105.788C137.94 106.071 137.086 106.707 136.532 107.577C135.977 108.447 135.762 109.489 135.925 110.507Z" fill="#FFB6B6"/>
<path d="M193.765 136.25C193.765 136.25 195.702 141.245 190.228 144.019C184.754 146.794 166.3 141.766 163.301 141.045C162.362 140.819 160.686 138.956 158.825 136.503C157.99 135.402 157.118 134.182 156.258 132.938C155.761 132.218 154.309 132.362 153.831 131.644C153.355 130.93 153.852 129.355 153.413 128.68C151.331 125.475 149.78 122.907 149.78 122.907L151.759 114.693C157.874 116.145 162.252 121.693 166.147 128.381L193.765 136.25Z" fill="#936EE3"/>
<path d="M199.668 126.632C205.838 126.632 210.839 121.634 210.839 115.469C210.839 109.304 205.838 104.306 199.668 104.306C193.498 104.306 188.496 109.304 188.496 115.469C188.496 121.634 193.498 126.632 199.668 126.632Z" fill="#FFB6B6"/>
<path d="M212.42 109.077C211.245 107.261 209.04 106.05 206.902 106.39C206.703 105.027 206.133 103.744 205.255 102.682C204.378 101.62 203.225 100.819 201.923 100.366C200.621 99.9128 199.219 99.8255 197.871 100.113C196.522 100.401 195.279 101.053 194.276 101.998C193.946 101.766 193.562 101.623 193.16 101.583C192.759 101.543 192.354 101.607 191.984 101.769C191.249 102.103 190.609 102.617 190.123 103.262C188.896 104.791 188.107 106.623 187.84 108.564C187.573 110.505 187.837 112.483 188.605 114.285C188.344 113.336 189.296 112.443 190.258 112.23C191.219 112.017 192.228 112.219 193.203 112.08C194.453 111.903 195.577 111.178 196.829 111.015C197.891 110.946 198.956 111.083 199.965 111.418C200.975 111.753 202.038 111.895 203.1 111.838C204.154 111.713 205.511 115.703 205.493 118.514C205.49 119.046 205.599 119.73 206.12 119.843C206.762 119.982 207.133 119.098 207.744 118.857C208.025 118.776 208.327 118.808 208.586 118.945C208.844 119.082 209.039 119.315 209.129 119.593C209.206 119.876 209.215 120.173 209.153 120.459C209.092 120.746 208.964 121.014 208.778 121.241C208.403 121.69 207.957 122.077 207.458 122.384L207.71 122.593C207.949 122.845 208.268 123.007 208.612 123.049C208.957 123.092 209.306 123.014 209.599 122.828C210.175 122.438 210.642 121.906 210.955 121.285C212.133 119.464 212.976 117.447 213.442 115.329C213.836 113.202 213.595 110.894 212.42 109.077Z" fill="#2F2E41"/>
<path d="M87.1102 103.672C87.0282 103.706 86.9462 103.741 86.8728 103.78H86.8685C86.7995 103.814 86.7304 103.849 86.6614 103.888C86.6527 103.892 86.6484 103.896 86.6398 103.901C86.5491 103.814 86.4585 103.728 86.3636 103.642C86.339 103.782 86.3449 103.926 86.3808 104.064L86.3938 104.116C86.4801 104.207 86.5707 104.293 86.6657 104.384C86.752 104.319 86.834 104.25 86.9203 104.185C86.9721 104.142 87.0239 104.099 87.08 104.056C87.0886 103.944 87.1016 103.814 87.1145 103.672L87.1102 103.672ZM89.7083 98.8765C87.7834 98.4366 87.162 100.951 86.9764 102.163C86.2772 97.7639 83.3684 99.1482 84.374 102.15C84.6945 103.038 85.1989 103.849 85.8543 104.53C85.9449 104.634 86.0442 104.737 86.1478 104.841C86.0312 105.444 86.6182 105.289 87.4123 104.733C87.9987 104.316 88.5409 103.841 89.0307 103.314C90.6146 101.654 91.8489 99.4328 89.7083 98.8765ZM89.7687 101.352C89.1749 102.117 88.5086 102.823 87.7792 103.461C87.5504 103.668 87.3174 103.866 87.08 104.056C87.0757 104.095 87.0757 104.129 87.0714 104.159C87.0547 104.201 87.0345 104.242 87.0109 104.28C86.7692 104.716 86.4974 104.478 86.3938 104.116C86.3852 104.103 86.3722 104.09 86.3636 104.077C86.0187 103.721 85.7187 103.325 85.4702 102.896C83.6878 99.808 86.5578 97.7078 86.4154 103.474C86.3891 103.526 86.3716 103.583 86.3636 103.642C86.339 103.782 86.3449 103.926 86.3808 104.064L86.3938 104.116C86.4801 104.207 86.5707 104.293 86.6657 104.384C86.752 104.319 86.834 104.25 86.9203 104.185C86.9721 104.142 87.0239 104.099 87.08 104.056C87.0886 103.944 87.1016 103.814 87.1145 103.672V103.668C87.2267 102.512 87.5332 100.433 88.0985 99.8684C89.3415 98.9153 90.9512 99.946 89.7687 101.352ZM87.1102 103.672C87.0282 103.706 86.9462 103.741 86.8728 103.78H86.8685C86.7995 103.814 86.7304 103.849 86.6614 103.888C86.6527 103.892 86.6484 103.896 86.6398 103.901C86.5491 103.814 86.4585 103.728 86.3636 103.642C86.339 103.782 86.3449 103.926 86.3808 104.064L86.3938 104.116C86.4801 104.207 86.5707 104.293 86.6657 104.384C86.752 104.319 86.834 104.25 86.9203 104.185C86.9721 104.142 87.0239 104.099 87.08 104.056C87.0886 103.944 87.1016 103.814 87.1145 103.672L87.1102 103.672Z" fill="#2F2E41"/>
<path d="M192.404 85.1044C190.862 85.1044 189.355 84.6476 188.073 83.7917C186.791 82.9358 185.792 81.7193 185.202 80.296C184.612 78.8727 184.457 77.3066 184.758 75.7956C185.059 74.2847 185.801 72.8968 186.892 71.8074C187.982 70.7181 189.371 69.9762 190.883 69.6757C192.395 69.3751 193.962 69.5294 195.387 70.119C196.811 70.7085 198.028 71.7069 198.885 72.9878C199.742 74.2687 200.199 75.7747 200.199 77.3152C200.196 79.3803 199.374 81.3602 197.913 82.8205C196.452 84.2807 194.47 85.1021 192.404 85.1044ZM192.404 70.4199C191.039 70.4199 189.705 70.8243 188.57 71.582C187.435 72.3397 186.551 73.4166 186.028 74.6765C185.506 75.9365 185.369 77.3229 185.636 78.6604C185.902 79.998 186.559 81.2266 187.524 82.191C188.489 83.1553 189.719 83.812 191.057 84.0781C192.396 84.3441 193.783 84.2076 195.044 83.6857C196.305 83.1638 197.383 82.28 198.141 81.1461C198.899 80.0121 199.304 78.679 199.304 77.3152C199.302 75.4871 198.574 73.7345 197.281 72.4418C195.987 71.1491 194.233 70.422 192.404 70.4199Z" fill="#E6E6E6"/>
<path d="M191.853 80.2497C191.838 80.2497 191.822 80.2492 191.806 80.2484C191.668 80.2417 191.533 80.2052 191.41 80.1414C191.287 80.0776 191.179 79.9879 191.094 79.8786L189.866 78.3011C189.789 78.2015 189.732 78.0877 189.698 77.966C189.665 77.8444 189.655 77.7173 189.671 77.5921C189.687 77.4669 189.727 77.3461 189.789 77.2364C189.852 77.1267 189.935 77.0304 190.035 76.9529L190.079 76.9186C190.179 76.841 190.293 76.7839 190.414 76.7504C190.536 76.7169 190.663 76.7077 190.789 76.7234C190.914 76.739 191.035 76.7792 191.145 76.8416C191.254 76.904 191.351 76.9874 191.428 77.0871C191.49 77.1667 191.569 77.2319 191.658 77.2784C191.748 77.3248 191.847 77.3514 191.947 77.3564C192.048 77.3613 192.149 77.3444 192.243 77.3068C192.336 77.2692 192.421 77.2119 192.49 77.1387L194.983 74.5086C195.159 74.3239 195.401 74.2163 195.655 74.2093C195.91 74.2024 196.157 74.2968 196.343 74.4717L196.384 74.5106C196.475 74.5974 196.549 74.7013 196.6 74.8165C196.652 74.9317 196.68 75.056 196.684 75.1821C196.687 75.3082 196.665 75.4338 196.62 75.5516C196.575 75.6694 196.507 75.7772 196.42 75.8687L192.551 79.9496C192.461 80.0444 192.353 80.1199 192.233 80.1715C192.113 80.2231 191.984 80.2497 191.853 80.2497Z" fill="#E6E6E6"/>
<path d="M68.0584 74.3778C66.5166 74.3778 65.0095 73.921 63.7276 73.0651C62.4457 72.2092 61.4466 70.9927 60.8566 69.5694C60.2666 68.1461 60.1122 66.58 60.413 65.069C60.7137 63.5581 61.4562 62.1701 62.5463 61.0808C63.6365 59.9915 65.0255 59.2496 66.5376 58.9491C68.0497 58.6485 69.6171 58.8028 71.0414 59.3923C72.4658 59.9819 73.6833 60.9802 74.5398 62.2612C75.3964 63.5421 75.8535 65.048 75.8535 66.5886C75.8512 68.6537 75.0292 70.6336 73.5678 72.0939C72.1065 73.5541 70.1251 74.3755 68.0584 74.3778ZM68.0584 59.6933C66.6935 59.6933 65.3594 60.0977 64.2246 60.8554C63.0898 61.613 62.2053 62.6899 61.683 63.9499C61.1607 65.2098 61.0241 66.5963 61.2904 67.9338C61.5566 69.2714 62.2138 70.5 63.1789 71.4643C64.144 72.4287 65.3735 73.0854 66.7121 73.3514C68.0507 73.6175 69.4382 73.4809 70.6991 72.9591C71.96 72.4372 73.0378 71.5534 73.796 70.4194C74.5543 69.2855 74.959 67.9524 74.959 66.5886C74.9569 64.7605 74.2292 63.0078 72.9355 61.7152C71.6419 60.4225 69.8879 59.6954 68.0584 59.6933Z" fill="#E6E6E6"/>
<path d="M67.5083 69.523C67.4926 69.523 67.477 69.5225 67.4613 69.5218C67.3229 69.5151 67.1876 69.4786 67.0646 69.4148C66.9417 69.3509 66.834 69.2613 66.749 69.152L65.521 67.5745C65.4435 67.4749 65.3863 67.361 65.3528 67.2394C65.3193 67.1178 65.3101 66.9907 65.3258 66.8655C65.3414 66.7403 65.3816 66.6194 65.444 66.5097C65.5064 66.4001 65.5898 66.3038 65.6895 66.2263L65.7337 66.1919C65.8334 66.1144 65.9473 66.0573 66.0691 66.0238C66.1909 65.9903 66.3181 65.9811 66.4434 65.9967C66.5687 66.0124 66.6897 66.0526 66.7995 66.115C66.9093 66.1774 67.0057 66.2608 67.0832 66.3604C67.1452 66.44 67.2237 66.5053 67.3133 66.5517C67.4028 66.5982 67.5014 66.6248 67.6022 66.6297C67.7031 66.6346 67.8038 66.6177 67.8974 66.5802C67.9911 66.5426 68.0756 66.4853 68.1451 66.4121L70.6383 63.782C70.8138 63.5972 71.0555 63.4896 71.3103 63.4827C71.5651 63.4758 71.8122 63.5701 71.9975 63.7451L72.0384 63.784C72.1301 63.8707 72.2038 63.9747 72.2552 64.0899C72.3067 64.2051 72.3349 64.3293 72.3383 64.4554C72.3417 64.5816 72.3203 64.7071 72.2751 64.8249C72.2299 64.9428 72.162 65.0505 72.0751 65.1421L68.2059 69.223C68.1162 69.3178 68.008 69.3933 67.8881 69.4449C67.7681 69.4965 67.6389 69.5231 67.5083 69.523Z" fill="#E6E6E6"/>
<path d="M105.671 72.8531C107.757 72.8531 109.449 70.5864 109.449 67.7904C109.449 64.9943 107.757 62.7276 105.671 62.7276C103.584 62.7276 101.892 64.9943 101.892 67.7904C101.892 70.5864 103.584 72.8531 105.671 72.8531Z" fill="#E6E6E6"/>
<path d="M139.368 59.6803C142.085 59.6803 144.288 57.4791 144.288 54.7639C144.288 52.0487 142.085 49.8475 139.368 49.8475C136.651 49.8475 134.448 52.0487 134.448 54.7639C134.448 57.4791 136.651 59.6803 139.368 59.6803Z" fill="#FF6584"/>
<path opacity="0.3" d="M156.577 81.7052L184.574 7.62939e-06L153.831 80.7271C153.679 80.9187 153.575 81.1438 153.528 81.3837C153.48 81.6236 153.49 81.8713 153.558 82.1064C153.625 82.3415 153.748 82.5571 153.915 82.7354C154.083 82.9137 154.29 83.0496 154.521 83.1317C154.751 83.2138 154.998 83.2398 155.241 83.2076C155.483 83.1754 155.715 83.0858 155.916 82.9463C156.117 82.8069 156.281 82.6215 156.396 82.4057C156.511 82.1898 156.573 81.9497 156.577 81.7052Z" fill="#F0F0F0"/>
</g>
<defs>
<clipPath id="clip0_0_1062">
<rect width="300" height="302" fill="white"/>
</clipPath>
</defs>
</svg>
